<svg width="656" height="674" viewBox="0 0 656 674" fill="none" xmlns="http://www.w3.org/2000/svg">
<path d="M429.317 422.359C449.433 430.98 469.6 439.487 489.651 448.256C509.737 457.04 529.757 465.979 549.718 475.044C579.88 488.743 598.804 511.497 601.799 544.908C603.752 566.687 602.993 588.709 601.893 612.823C594.517 614.02 588.495 613.658 582.914 611.896C563.253 605.688 543.749 598.982 524.175 592.496C490.094 581.203 456.192 569.433 420.922 561.994C405.028 558.642 389.214 558.291 373.273 558.954C357.051 559.629 343.872 566.598 334.448 580.144C332.371 583.13 330.036 585.937 327.064 589.81C316.276 565.922 297.74 557.854 274.529 558.719C262.614 559.162 250.659 560.093 238.862 561.78C213.747 565.372 189.694 573.31 165.669 581.126C134.046 591.412 102.598 602.237 70.9562 612.461C65.415 614.252 59.2873 614.229 53.4306 615.043C53.3886 595.163 52.9784 575.275 53.3852 555.403C54.133 518.878 71.0307 491.81 103.972 476.346C144.122 457.498 184.971 440.142 227.221 423.371C243.234 452.236 257.461 479.914 271.992 507.432C273.337 509.978 276.619 511.501 279.736 514.115C287.993 505.929 295.36 498.341 303.042 491.088C311.057 483.521 317.825 474.471 327.976 468.085C336.699 476.763 344.442 484.944 352.708 492.556C360.81 500.017 367.02 509.839 377.01 514.313C379.282 513.04 380.952 512.693 381.472 511.727C397.489 481.975 413.394 452.162 429.317 422.359ZM334.602 522.363C333.059 521.302 331.639 519.644 329.949 519.296C325.625 518.406 321.941 520.365 321.408 524.66C321.086 527.252 322.57 531.027 324.561 532.737C328.122 535.797 331.833 533.669 334.324 530.364C335.375 528.969 335.411 526.81 334.602 522.363ZM335.634 553.825C334.937 552.709 334.412 551.423 333.511 550.506C330.24 547.178 326.625 546.709 323.124 550.058C320.039 553.01 320.04 557.782 323.175 560.62C326.69 563.802 330.336 563.474 333.577 560.06C334.467 559.124 334.993 557.843 335.634 553.825ZM324.415 503.722C326.89 503.785 329.676 504.602 331.768 503.738C334.981 502.411 336.845 499.112 335.394 495.717C334.496 493.615 332.128 491.454 329.954 490.747C326.701 489.688 323.074 490.83 321.874 494.373C321.127 496.577 322.035 499.342 324.415 503.722Z" fill="#FF4A42"/>
<path d="M190.061 174.131C188.368 155.603 186.146 137.105 185.081 118.541C181.883 62.7894 225.473 17.8635 267.976 7.35395C282.066 3.86999 296.792 2.3592 311.324 1.39895C335.929 -0.226917 360.568 0.423047 384.691 6.3757C432.312 18.1263 466.837 58.1676 471.481 106.767C471.859 110.724 471.974 114.757 471.684 118.717C470.421 135.959 468.963 153.186 465.735 172.017C457.668 177.147 451.441 180.68 443.144 185.386C438.627 186.888 430.785 183.283 423.868 188.447C423.087 193.43 422.559 198.715 421.397 203.857C418.185 218.076 409.426 227.816 395.376 231.121C387.175 233.05 378.162 233.396 369.787 232.322C351.448 229.969 340.215 217.972 337.264 199.658C336.556 195.268 335.895 190.87 335.084 185.649C329.606 186.277 325.257 186.776 321.225 187.239C319.861 194.24 319.136 200.216 317.498 205.931C313.497 219.899 304.214 228.849 289.98 231.763C283.56 233.078 276.73 233.583 270.214 233.009C250.088 231.233 237.514 219.323 233.737 199.409C232.911 195.05 232.242 190.662 231.541 186.532C228.394 186.089 226.4 185.453 224.465 185.598C215.415 186.274 207.724 184.243 201.084 177.313C198.795 174.925 193.813 175.117 190.061 174.131ZM248.578 203.887C248.578 203.887 248.263 204.372 248.005 207.278C251.146 215.515 257.904 219.826 265.808 221.58C274.167 223.436 282.856 223.74 291.181 220.44C299.798 217.024 305.769 210.684 307.598 201.885C309.425 193.102 310.627 183.836 306.559 175.411C278.153 172.398 257.331 173.14 244.992 177.644C245.818 186.374 241.357 195.743 248.578 203.887ZM352.547 204.641C352.547 204.641 352.601 204.972 351.681 207.74C354.165 215.594 360.481 219.507 367.652 221.304C376.695 223.571 386.072 223.92 394.996 220.137C410.332 213.636 415.051 199.675 409.995 176.248C392.963 172.925 363.959 173.112 348.32 176.93C348.32 183.809 348.016 191.029 348.498 198.197C348.649 200.438 350.918 202.537 352.547 204.641ZM446.239 164.029C445.561 155.68 448.202 146.908 443.443 138.398C432.531 138.398 421.977 138.284 411.426 138.419C380.182 138.817 348.95 140.067 317.842 135.248C287.156 130.494 258.533 120.759 232.982 102.776C228.736 99.7888 224.428 96.8909 220.414 94.133C218.647 95.4066 217.077 95.9261 216.73 96.8873C214.271 103.699 210.417 110.525 210.093 117.49C209.235 135.922 208.37 154.48 210.903 173.795C218.125 173.795 224.582 173.795 232.246 173.795C238.012 164.088 247.874 162.328 259.15 162.784C273.761 163.374 288.413 162.999 303.046 162.938C308.626 162.915 313.007 164.68 317.243 168.696C326.102 177.095 330.405 177.209 338.471 169.228C342.584 165.158 346.762 162.936 352.422 162.952C369.716 163 387.011 163.019 404.305 162.912C410.599 162.874 416.137 164.238 420.234 169.443C426.927 177.947 435.456 175.17 443.657 172.81C444.857 172.465 445.296 169.477 446.239 164.029Z" fill="#434240"/>
<path d="M188.477 174.477C193.813 175.117 198.795 174.925 201.084 177.313C207.724 184.243 215.415 186.274 224.465 185.598C226.4 185.453 228.394 186.089 231.542 186.532C232.242 190.662 232.911 195.05 233.737 199.409C237.514 219.323 250.088 231.233 270.214 233.008C276.731 233.583 283.56 233.078 289.98 231.763C304.214 228.849 313.497 219.899 317.499 205.931C319.136 200.216 319.861 194.24 321.225 187.239C325.257 186.776 329.606 186.277 335.085 185.649C335.895 190.87 336.556 195.267 337.264 199.658C340.215 217.972 351.448 229.969 369.787 232.321C378.162 233.396 387.176 233.05 395.376 231.121C409.426 227.816 418.185 218.076 421.397 203.857C422.559 198.715 423.087 193.43 423.868 188.447C430.785 183.283 438.627 186.888 443.144 185.386C451.441 180.679 457.668 177.147 465.314 173.704C476.45 176.931 479.54 185.163 480.394 193.819C482.105 211.147 478.786 228.036 472.373 244.089C467.754 255.654 466.717 255.803 451.246 260.816C448.307 270.938 445.533 281.72 442.043 292.264C434.871 313.93 420.674 331.525 407.915 349.938C404.545 354.803 401.331 359.776 396.233 366.544C380.642 382.264 364.314 388.878 344.478 387.322C333.32 386.446 322.036 387.095 310.81 387.169C294.404 387.278 279.69 382.927 267.245 371.701C264.981 369.66 261.52 368.947 258.612 367.621C251.607 356.467 245.333 344.761 237.433 334.281C224.058 316.537 214.572 297.089 209.332 275.675C207.155 266.777 204.543 259.905 194.538 256.975C187.929 255.04 184.854 248.089 182.706 241.769C177.091 225.256 175.671 208.157 177.078 190.862C177.629 184.098 179.885 177.878 188.477 174.477Z" fill="#FCCEA0"/>
<path d="M52.4961 616.194C59.2874 614.229 65.415 614.252 70.9563 612.461C102.598 602.237 134.046 591.412 165.669 581.125C189.694 573.31 213.747 565.372 238.862 561.78C250.659 560.093 262.615 559.162 274.529 558.718C297.74 557.854 316.276 565.922 327.064 589.81C330.036 585.937 332.371 583.13 334.448 580.144C343.872 566.598 357.051 559.629 373.273 558.954C389.214 558.291 405.028 558.642 420.922 561.994C456.192 569.433 490.094 581.203 524.175 592.496C543.749 598.982 563.253 605.688 582.915 611.896C588.495 613.658 594.517 614.02 601.827 614.639C607.591 619.924 613.789 621.82 620.35 623.34C626.694 624.81 632.907 626.85 638.415 628.422C642.772 635.648 641.065 642.305 638.72 650.859C597.026 649.387 557.526 645.953 518.05 642.265C504.27 640.977 490.548 639.058 476.206 635.922C467.512 631.961 459.542 628.87 451.285 627.184C433.831 623.62 416.017 621.638 398.76 617.358C387.452 614.554 376.35 615.21 365.144 615.275C358.318 615.314 352.208 618.092 346.558 624.418C333.076 624.368 321.352 624.201 308.66 622.746C294.987 613.896 281.034 614.361 267.104 615.511C262.555 615.887 258.171 617.937 253.629 618.769C229.639 623.164 205.601 627.305 181.657 631.936C179.853 632.285 178.655 635.765 175.451 638.285C157.429 639.84 141.131 640.898 124.576 640.713C117.923 633.366 116.108 633.911 111.47 643.445C77.4912 647.347 45.0852 650.662 12.6792 653.977C13.1597 646.146 13.6401 638.314 14.1252 630.408C27.0515 625.898 39.3066 621.622 52.4961 616.194ZM530.344 624.903C532.899 626.441 535.458 628.036 538.359 623.588C534.833 623.367 531.916 623.183 527.656 621.096C525.1 619.556 522.541 617.958 519.635 622.411C523.165 622.633 526.083 622.817 530.344 624.903ZM221.076 616.991C234.704 614.614 248.115 611.524 262.086 610.491C274.525 609.571 286.611 606.966 299.025 610.698C301.72 611.509 305.798 611.367 307.046 605.387C303.541 603.495 299.776 599.769 295.931 599.685C280.736 599.352 265.147 598.201 250.385 600.975C223.825 605.967 197.689 613.311 171.51 620.183C158.322 623.645 145.427 628.226 130.637 632.853C138.73 636.031 144.239 634.079 150.111 632.728C172.617 627.547 195.263 622.975 221.076 616.991ZM482.146 619.809C459.015 613.963 435.695 608.762 412.815 602.056C396.302 597.216 379.803 599.48 363.285 599.457C358.243 599.449 353.25 601.794 350.754 606.743C354.542 612.733 359.507 610.923 363.806 610.422C368.368 609.89 373.252 606.675 377.239 607.669C388.984 610.596 401.094 609.657 412.702 611.888C438.032 616.757 463.082 623.074 488.273 628.679C499.067 631.081 509.813 633.95 521.266 633.266C510.477 625.401 497.172 625.064 482.146 619.809ZM427.634 598.054C432.165 599.08 436.753 599.899 441.215 601.165C460.355 606.599 479.426 612.276 498.603 617.573C501.95 618.497 505.684 618.018 511.215 618.282C503.605 610.519 495.289 609.868 487.892 607.565C473.339 603.035 458.329 599.92 443.895 595.069C426.164 589.111 407.675 587.154 389.534 583.435C383.167 582.13 376.2 582.869 369.646 583.731C366.498 584.145 363.672 587.016 356.508 591.255C382.736 589.513 403.64 592.823 427.634 598.054ZM552.883 627.726C551.251 628.099 549.619 628.473 547.987 628.847C549.544 629.372 551.082 629.983 552.675 630.349C553.003 630.424 553.541 629.586 552.883 627.726ZM566.918 631.345C565.939 631.915 564.96 632.485 563.982 633.055C564.991 633.584 566.029 634.589 567.002 634.53C568.461 634.443 571.22 634.368 566.918 631.345ZM585.964 637.121C584.406 636.616 582.866 636.026 581.273 635.677C580.951 635.606 580.429 636.44 579.999 636.857C581.556 637.36 583.114 637.863 585.964 637.121Z" fill="#D4C0A5"/>
<path d="M124.833 641.957C141.131 640.898 157.429 639.84 177.091 638.447C205.313 635.652 230.188 633.351 255.022 630.678C273.251 628.716 291.428 626.266 309.628 624.033C321.352 624.201 333.076 624.368 348.107 625.046C393.21 629.514 435.005 633.471 476.8 637.428C490.548 639.058 504.269 640.977 518.05 642.265C557.526 645.954 597.026 649.387 638.267 652.575C644.921 653.899 649.826 655.569 656.004 657.674C655.678 662.557 655.352 667.438 655.03 672.279C651.781 673.069 649.867 674.063 648.059 673.895C620.269 671.323 592.486 668.682 564.718 665.888C532.322 662.63 499.957 659.061 467.553 655.896C433.163 652.536 398.742 649.492 361.696 645.417C354.601 644.079 350.145 643.634 343.86 643.1C334.344 642.995 326.624 642.556 318.985 643.15C315.5 643.421 312.175 645.73 307.267 647.078C302.736 647.079 299.715 647.119 296.694 647.158C288.095 647.361 279.441 647.011 270.905 647.854C184.36 656.396 97.8347 665.139 11.2995 673.782C8.70016 674.042 6.05221 673.815 2.54123 673.815C1.76364 669.696 0.569058 665.955 0.454068 662.181C0.260952 655.828 5.10275 655.07 11.3256 654.353C45.0852 650.662 77.4912 647.347 112.952 643.637C118.948 642.813 121.891 642.385 124.833 641.957Z" fill="#6A3E14"/>
<path d="M428.433 421.316C413.395 452.162 397.49 481.975 381.472 511.727C380.952 512.693 379.282 513.04 377.01 514.313C367.021 509.839 360.81 500.017 352.708 492.556C344.442 484.944 336.699 476.763 327.976 468.085C317.825 474.471 311.057 483.521 303.042 491.088C295.36 498.341 287.993 505.929 279.736 514.115C276.619 511.501 273.337 509.978 271.992 507.432C257.461 479.914 243.234 452.236 228.685 423.056C237.23 417.101 246.015 412.69 257.198 408.423C282.833 426.124 303.359 447.077 327.308 464.13C330.423 462.324 332.928 461.322 334.884 459.669C355.684 442.085 376.398 424.397 397.135 406.737C407.273 411.249 417.411 415.761 428.433 421.316Z" fill="#E74A40"/>
<path d="M397.185 404.941C376.398 424.397 355.684 442.085 334.883 459.669C332.928 461.322 330.423 462.324 327.308 464.13C303.359 447.077 282.833 426.124 258.469 407.913C257.558 395.209 257.775 383.159 258.302 369.365C261.52 368.947 264.981 369.66 267.245 371.701C279.69 382.927 294.404 387.278 310.81 387.169C322.036 387.095 333.32 386.446 344.478 387.322C364.314 388.878 380.642 382.264 395.627 367.783C396.966 379.167 397.101 391.156 397.185 404.941Z" fill="#E5B07D"/>
<path d="M296.686 648.681C299.715 647.119 302.736 647.079 307.69 648.616C310.912 651.538 312.064 653.873 313.51 654.071C323.547 655.448 333.667 656.768 343.839 652.879C344.5 649.417 345.095 646.302 345.69 643.188C350.146 643.634 354.601 644.079 359.938 645.534C359.918 650.375 359.304 654.302 358.06 658.02C355.024 667.093 348.782 672.12 338.96 672.172C333.695 672.2 328.427 672.328 323.163 672.228C304.6 671.874 301.68 669.414 296.686 648.681Z" fill="#82552C"/>
<path d="M335.255 523.681C335.411 526.81 335.375 528.969 334.324 530.364C331.834 533.669 328.122 535.797 324.561 532.737C322.571 531.027 321.086 527.252 321.408 524.66C321.941 520.365 325.625 518.406 329.949 519.296C331.639 519.644 333.059 521.302 335.255 523.681Z" fill="#FCE3C5"/>
<path d="M335.66 555.273C334.993 557.843 334.467 559.124 333.577 560.06C330.336 563.474 326.69 563.802 323.176 560.62C320.04 557.782 320.039 553.01 323.124 550.058C326.625 546.709 330.24 547.178 333.511 550.506C334.412 551.423 334.937 552.709 335.66 555.273Z" fill="#FCE3C5"/>
<path d="M323.308 502.789C322.035 499.342 321.128 496.577 321.874 494.373C323.075 490.83 326.701 489.688 329.954 490.746C332.128 491.454 334.496 493.615 335.395 495.717C336.845 499.112 334.981 502.411 331.768 503.738C329.676 504.602 326.89 503.785 323.308 502.789Z" fill="#FCE3C5"/>
<path d="M446.163 165.871C445.296 169.477 444.857 172.465 443.657 172.81C435.456 175.17 426.927 177.947 420.234 169.443C416.137 164.238 410.599 162.874 404.305 162.912C387.011 163.019 369.716 163 352.422 162.952C346.762 162.937 342.584 165.158 338.471 169.228C330.406 177.209 326.102 177.095 317.243 168.696C313.007 164.68 308.626 162.915 303.046 162.938C288.413 162.999 273.761 163.374 259.15 162.784C247.875 162.328 238.012 164.088 232.246 173.795C224.582 173.795 218.125 173.795 210.903 173.795C208.37 154.48 209.235 135.922 210.093 117.49C210.417 110.525 214.271 103.699 216.73 96.8874C217.077 95.9262 218.647 95.4067 220.414 94.1331C224.428 96.8909 228.736 99.7888 232.982 102.776C258.533 120.759 287.156 130.494 317.842 135.248C348.95 140.067 380.182 138.817 411.426 138.419C421.977 138.284 432.531 138.398 443.443 138.398C448.202 146.908 445.561 155.68 446.163 165.871Z" fill="#FCCEA0"/>
<path d="M352.217 204.701C350.918 202.537 348.649 200.438 348.499 198.197C348.016 191.029 348.32 183.809 348.32 176.93C363.959 173.112 392.963 172.925 409.995 176.248C415.051 199.675 410.332 213.636 394.996 220.137C386.072 223.92 376.695 223.571 367.652 221.304C360.481 219.507 354.165 215.594 353.25 205.416C359.994 198.061 365.322 193.173 370.268 187.926C372.174 185.903 373.212 183.063 374.845 180.252C372.149 179.55 370.881 178.891 369.647 178.948C356.019 179.58 353.822 181.659 352.717 194.87C352.443 198.138 352.378 201.423 352.217 204.701Z" fill="#FCCEA0"/>
<path d="M248.025 204.057C241.357 195.743 245.818 186.374 244.992 177.644C257.331 173.14 278.153 172.398 306.559 175.411C310.627 183.836 309.425 193.102 307.598 201.885C305.769 210.683 299.798 217.024 291.181 220.44C282.856 223.74 274.167 223.436 265.808 221.58C257.904 219.826 251.146 215.515 249.515 205.277C264.876 194.367 265.789 193.379 271.099 181.549C260.012 178.553 258.817 178.456 254.893 180.775C249.677 183.857 249.056 188.951 248.917 194.343C248.834 197.586 248.336 200.819 248.025 204.057Z" fill="#FCCEA0"/>
<path d="M219.466 617.584C195.263 622.975 172.617 627.547 150.111 632.728C144.239 634.08 138.73 636.031 130.637 632.853C145.427 628.226 158.322 623.645 171.51 620.183C197.689 613.311 223.825 605.967 250.385 600.975C265.147 598.201 280.736 599.352 295.931 599.685C299.776 599.769 303.541 603.495 307.046 605.387C305.798 611.367 301.72 611.509 299.025 610.698C286.611 606.966 274.525 609.571 262.086 610.491C248.115 611.524 234.704 614.614 219.466 617.584Z" fill="#E4D1B4"/>
<path d="M483.654 620.419C497.172 625.064 510.477 625.401 521.266 633.266C509.813 633.95 499.067 631.081 488.273 628.679C463.082 623.074 438.032 616.757 412.702 611.888C401.094 609.657 388.984 610.596 377.239 607.669C373.252 606.675 368.368 609.89 363.806 610.422C359.507 610.923 354.542 612.733 350.754 606.743C353.25 601.794 358.243 599.449 363.285 599.457C379.803 599.48 396.302 597.216 412.815 602.056C435.695 608.762 459.015 613.963 483.654 620.419Z" fill="#E4D1B4"/>
<path d="M308.66 622.746C291.428 626.266 273.251 628.716 255.022 630.678C230.188 633.351 205.313 635.652 178.815 637.95C178.655 635.765 179.853 632.285 181.657 631.936C205.601 627.305 229.639 623.164 253.629 618.769C258.171 617.937 262.555 615.887 267.104 615.511C281.034 614.361 294.987 613.896 308.66 622.746Z" fill="#E4D1B4"/>
<path d="M476.206 635.922C435.005 633.471 393.21 629.514 349.866 624.929C352.208 618.092 358.318 615.315 365.144 615.275C376.35 615.21 387.452 614.554 398.76 617.358C416.017 621.638 433.831 623.62 451.285 627.184C459.542 628.87 467.512 631.962 476.206 635.922Z" fill="#E4D1B4"/>
<path d="M426.051 597.439C403.64 592.823 382.736 589.513 356.508 591.255C363.672 587.016 366.498 584.145 369.646 583.731C376.2 582.869 383.167 582.13 389.534 583.435C407.675 587.154 426.164 589.111 443.895 595.069C458.329 599.92 473.339 603.035 487.892 607.565C495.289 609.868 503.605 610.519 511.215 618.282C505.684 618.018 501.95 618.497 498.603 617.573C479.426 612.276 460.355 606.598 441.215 601.165C436.753 599.899 432.165 599.08 426.051 597.439Z" fill="#E4D1B4"/>
<path d="M124.576 640.713C121.891 642.385 118.948 642.814 114.524 643.05C116.108 633.911 117.923 633.366 124.576 640.713Z" fill="#E4D1B4"/>
<path d="M528.328 622.048C526.083 622.817 523.165 622.633 519.635 622.411C522.541 617.958 525.1 619.556 528.328 622.048Z" fill="#E4D1B4"/>
<path d="M529.672 623.952C531.916 623.183 534.833 623.367 538.359 623.588C535.458 628.036 532.899 626.441 529.672 623.952Z" fill="#E4D1B4"/>
<path d="M553.433 628.447C553.541 629.586 553.003 630.424 552.675 630.349C551.082 629.983 549.544 629.372 547.987 628.847C549.619 628.473 551.251 628.099 553.433 628.447Z" fill="#E4D1B4"/>
<path d="M567.816 631.485C571.22 634.368 568.461 634.443 567.002 634.53C566.029 634.589 564.991 633.584 563.982 633.055C564.96 632.485 565.939 631.915 567.816 631.485Z" fill="#E4D1B4"/>
<path d="M585.318 637.743C583.114 637.863 581.556 637.36 579.999 636.857C580.429 636.44 580.951 635.606 581.273 635.677C582.866 636.027 584.406 636.616 585.318 637.743Z" fill="#E4D1B4"/>
<path d="M314.84 612.79C315.077 612.646 314.603 612.934 314.84 612.79Z" fill="#E4D1B4"/>
<path d="M351.216 592.867C351.356 593.094 351.075 592.641 351.216 592.867Z" fill="#E4D1B4"/>
<path d="M343.86 643.1C345.095 646.302 344.5 649.417 343.839 652.879C333.667 656.768 323.547 655.448 313.51 654.071C312.064 653.873 310.912 651.538 309.201 648.654C312.175 645.731 315.5 643.421 318.985 643.15C326.624 642.556 334.344 642.995 343.86 643.1Z" fill="#434240"/>
<path d="M352.382 204.671C352.378 201.423 352.443 198.138 352.717 194.87C353.821 181.659 356.019 179.58 369.647 178.948C370.881 178.891 372.149 179.55 374.845 180.252C373.212 183.063 372.174 185.903 370.267 187.926C365.321 193.173 359.994 198.061 353.709 204.032C352.601 204.972 352.547 204.641 352.382 204.671Z" fill="#EDEEEE"/>
<path d="M248.302 203.972C248.336 200.819 248.834 197.586 248.917 194.343C249.056 188.951 249.677 183.857 254.893 180.775C258.817 178.456 260.012 178.553 271.099 181.549C265.789 193.379 264.876 194.367 249.644 203.824C248.263 204.372 248.578 203.887 248.302 203.972Z" fill="#EDEEEE"/>
</svg>
