<svg width="647" height="555" viewBox="0 0 647 555" fill="none" xmlns="http://www.w3.org/2000/svg">
<path d="M646.075 44.1856C646.365 49.4783 646.908 54.7709 646.909 60.0636C646.949 216.846 646.936 373.628 646.923 530.41C646.923 532.402 646.821 534.394 644.717 538.35C618.854 540.58 595.042 540.846 570.558 539.32C569.417 522.391 568.946 507.253 568.749 490.246C569.067 378.173 569.118 267.968 569.132 157.763C569.132 154.456 568.746 151.149 568.807 146.384C568.864 141.983 568.653 139.038 568.732 134.231C568.653 106.868 568.283 81.3673 567.914 55.8663C568.361 52.9446 568.809 50.0229 571.323 45.5344C597.618 44.0403 621.846 44.1129 646.075 44.1856Z" fill="#3D6F87"/>
<path d="M483.474 551.901C468.24 552.303 453.008 552.868 437.772 553.058C423.831 553.232 409.884 553 394.081 551.024C392.151 546.09 392.081 543.078 392.123 538.189C392.26 420.179 392.272 304.044 392.345 187.91C392.35 179.959 392.823 172.009 394.842 164.015C425.306 164.072 454.006 164.173 482.993 166.11C483.345 267.362 483.398 366.777 483.493 466.193C483.502 474.803 483.784 483.414 483.79 493.882C483.586 514.46 483.53 533.18 483.474 551.901ZM431.478 483.986C425.851 484.828 421.678 488 418.414 492.424C411.744 501.462 411.838 511.059 418.541 520.028C424.322 527.765 434.839 530.781 445.635 527.535C454.384 524.904 458.096 517.9 459.631 509.704C461.449 500.003 456.933 490.523 448.116 486.404C444.081 484.518 439.164 484.521 431.478 483.986Z" fill="#7E4F25"/>
<path d="M187.5 493.078C187.171 489.778 186.553 486.478 186.553 483.179C186.575 379.959 186.657 276.738 188.998 171.636C232.779 169.873 274.293 169.99 316.017 172.092C316.256 275.66 316.295 377.244 316.288 478.828C316.288 483.464 315.887 488.099 313.831 492.784C270.493 492.915 228.997 492.996 187.5 493.078ZM220.056 314C220.057 355.973 219.962 397.945 220.102 439.917C220.164 458.43 222.679 460.625 241.159 459.47C242.939 459.359 244.633 457.891 246.992 456.751C247.355 453.557 248.038 450.333 248.04 447.108C248.101 367.827 248.114 288.546 248.013 209.265C248.008 205.474 246.87 201.685 246.25 197.832C237.525 195.22 229.941 195.065 222.99 197.604C221.862 199.816 220.769 200.966 220.759 202.124C220.46 238.082 220.266 274.041 220.056 314ZM280.099 314C280.099 289.385 280.104 264.77 280.095 240.155C280.093 235.499 280.19 230.835 279.966 226.188C279.639 219.38 277.582 216.843 272.554 216.485C266.699 216.068 264.448 218.825 263.989 227.088C263.879 229.079 263.927 231.079 263.927 233.075C263.925 296.275 263.912 359.476 263.96 422.676C263.963 426.645 264.038 430.699 264.838 434.557C265.613 438.294 268.819 439.575 272.454 439.35C276.061 439.127 279.055 437.614 279.425 433.702C279.925 428.424 280.064 423.097 280.072 417.79C280.126 384.527 280.1 351.264 280.099 314Z" fill="#07A29C"/>
<path d="M2.92188 524.16C7.58661 501.42 11.8924 478.599 16.9762 455.954C43.7299 336.779 70.6787 217.649 97.5798 98.5074C97.8705 97.2197 98.4286 95.9925 101.021 93.8554C106.324 93.8168 109.448 94.7448 112.615 95.4889C136.089 101.004 159.571 106.482 183.298 112.782C184.174 115.177 184.804 116.762 185.434 118.346C183.394 123.873 180.709 129.253 179.412 134.95C160.82 216.579 142.429 298.254 123.959 379.912C111.939 433.055 99.8678 486.187 85.6703 540.396C56.6547 535.699 29.7883 529.929 2.92188 524.16ZM85.985 348.029C88.2837 337.03 90.3539 325.976 92.9229 315.04C101.539 278.363 110.418 241.747 118.92 205.044C119.728 201.557 118.604 197.623 118.385 194.049C110.632 191.52 104.328 190.862 97.4315 194.558C91.7593 218.234 85.8063 241.921 80.4373 265.74C69.9757 312.15 59.8771 358.643 49.5566 405.085C44.257 428.934 38.8033 452.749 33.2254 477.437C39.8713 480.059 45.658 484.739 54.8351 482.089C66.8093 439.084 74.9965 394.934 85.985 348.029ZM95.1331 421.053C96.7575 413.938 98.3862 406.824 100.006 399.708C108.969 360.318 117.981 320.939 126.843 281.526C128.287 275.105 129.531 268.501 125.807 262.446C120.306 260.746 117.712 264.059 116.786 268.044C113.336 282.887 110.599 297.895 107.169 312.744C95.9902 361.146 84.5938 409.497 73.3612 457.887C71.5661 465.62 70.0009 473.421 68.763 481.258C68.5136 482.837 69.9399 485.937 71.0989 486.213C73.3276 486.744 76.9639 486.627 78.1404 485.216C80.5914 482.275 82.5825 478.486 83.4208 474.745C87.1838 457.953 90.4762 441.056 95.1331 421.053Z" fill="#E63A30"/>
<path d="M315.673 492.734C315.887 488.099 316.288 483.464 316.289 478.828C316.295 377.244 316.257 275.66 316.15 170.516C315.932 158.158 315.792 149.36 315.916 138.938C315.976 132.966 315.771 128.617 315.778 122.484C315.846 112.324 315.703 103.95 315.795 93.8264C315.828 81.5319 315.626 70.9858 315.425 60.4397C315.753 45.49 316.082 30.5403 318.571 13.7767C344.559 12.0041 368.385 12.0454 392.212 12.0867C392.58 33.167 392.949 54.2473 392.991 79.0155C392.802 109.822 392.94 136.94 393.078 164.059C392.823 172.009 392.35 179.96 392.345 187.91C392.272 304.045 392.261 420.179 390.249 538.185C364.575 540.031 340.886 540.007 316.84 538.271C316.244 531.868 316.006 527.176 315.902 520.834C315.916 510.367 315.794 501.551 315.673 492.734ZM371.909 250C371.909 229.367 371.909 208.734 371.909 188.102C371.909 142.843 371.983 97.5836 371.824 52.3253C371.801 45.9218 373.762 38.9231 367.992 32.9871C359.245 32.1765 350.135 29.9807 340.569 35.3466C340.373 42.0545 340.024 48.6271 340.015 55.2001C339.963 94.4688 339.989 133.738 339.989 173.006C339.989 231.577 339.933 290.147 340.062 348.717C340.077 355.835 338.577 363.294 342.625 370.529C351.853 372.476 360.765 373.243 369.01 370.359C370.138 368.082 371.206 366.927 371.215 365.763C371.509 328.509 371.701 291.255 371.909 250ZM347.961 465.892C348.147 477.815 348.188 489.743 348.601 501.658C348.736 505.567 351.816 507.153 355.424 507.396C359.036 507.639 362.072 506.379 363.08 502.665C363.762 500.152 363.877 497.426 363.882 494.795C363.937 468.931 363.937 443.067 363.883 417.204C363.878 414.572 363.762 411.848 363.084 409.333C362.087 405.635 359.095 404.31 355.465 404.542C351.852 404.773 349.07 406.357 348.576 410.251C348.16 413.523 348.005 416.847 347.991 420.15C347.929 434.076 347.962 448.003 347.961 465.892Z" fill="#E3362C"/>
<path d="M566.045 55.8712C568.283 81.3673 568.653 106.868 566.82 134.208C537.761 136.029 510.906 136.011 483.917 134.135C483.522 114.692 483.261 97.1065 483 79.5213C483.301 72.3403 483.602 65.1593 483.922 57.5225C497.964 54.5512 511.221 56.237 524.353 55.9463C537.622 55.6527 550.902 55.8781 566.045 55.8712Z" fill="#F6AF33"/>
<path d="M481.219 79.5837C483.261 97.1065 483.523 114.692 483.82 135.626C483.874 141.959 483.892 144.944 483.823 149.569C483.392 155.564 483.049 159.919 482.706 164.274C454.006 164.173 425.305 164.072 394.842 164.015C392.94 136.94 392.802 109.822 393.062 80.8143C422.119 79.1655 450.779 79.4058 481.219 79.5837ZM404.154 106.316C403.759 111.555 405.246 115.841 411.24 115.867C428.361 115.943 445.484 115.672 462.604 115.391C463.714 115.373 464.803 114.12 466.345 113.166C466.345 109.778 466.345 106.124 466.345 102.46C463.658 101.557 461.837 100.429 460.004 100.411C444.181 100.248 428.354 100.172 412.533 100.385C410.12 100.417 407.729 102.066 404.154 106.316ZM420.646 135.89C446.681 136.09 446.681 136.09 455.456 130.571C440.896 126.714 427.906 127.361 413.489 130.03C415.404 132.602 416.453 134.013 420.646 135.89Z" fill="#996936"/>
<path d="M485.37 552.253C483.53 533.181 483.586 514.46 485.67 493.89C514.624 492.065 541.55 492.09 568.475 492.115C568.946 507.253 569.417 522.391 569.939 540.612C569.808 546.567 569.625 549.439 569.442 552.312C542.05 552.409 514.658 552.507 485.37 552.253Z" fill="#DA9C2C"/>
<path d="M313.59 60.4275C315.626 70.9856 315.828 81.5317 313.957 93.8596C270.408 95.6869 228.932 95.7323 187.455 95.7776C186.236 84.6288 185.34 73.492 188.342 61.2097C209.039 59.5677 229.533 60.6616 249.975 60.4645C270.567 60.266 291.162 60.4175 313.59 60.4275Z" fill="#07A29C"/>
<path d="M313.831 492.784C315.794 501.551 315.916 510.367 314.058 520.783C270.619 522.259 229.16 522.135 187.702 522.012C187.467 513.43 187.232 504.847 187.249 494.671C228.997 492.996 270.493 492.915 313.831 492.784Z" fill="#F6AF33"/>
<path d="M315.651 140.561C315.791 149.36 315.932 158.158 315.94 168.532C274.293 169.99 232.779 169.873 189.355 169.63C187.293 161.027 187.142 152.549 189.172 142.413C232.784 140.69 274.218 140.626 315.651 140.561Z" fill="#F6AF33"/>
<path d="M187.017 96.8039C228.932 95.7324 270.408 95.687 313.723 95.6082C315.703 103.95 315.846 112.324 313.941 122.45C270.469 124.167 229.045 124.133 187.622 124.099C187.315 123.157 187.009 122.215 186.068 119.81C184.804 116.762 184.174 115.177 183.928 111.662C184.87 106.481 185.429 103.231 185.988 99.982C186.185 99.2647 186.382 98.5474 187.017 96.8039Z" fill="#F6AF33"/>
<path d="M187.222 523.961C229.16 522.135 270.619 522.258 313.923 522.433C316.006 527.176 316.244 531.868 316.493 539.754C316.456 545.997 316.409 549.045 316.363 552.094C298.392 552.395 280.423 552.826 262.451 552.961C242.457 553.113 222.462 553.031 202.468 552.966C197.943 552.951 193.42 552.587 187.946 552.341C185.73 542.928 186.602 534.387 187.222 523.961Z" fill="#07A29C"/>
<path d="M187.236 125.749C229.045 124.133 270.469 124.167 313.729 124.235C315.771 128.617 315.976 132.966 315.916 138.938C274.218 140.626 232.785 140.69 189.437 140.803C187.298 136.368 187.074 131.884 187.236 125.749Z" fill="#07A29C"/>
<path d="M570.777 552.977C569.625 549.439 569.808 546.567 570.61 542.403C595.041 540.846 618.854 540.58 644.401 540.202C646.625 552.623 645.922 554.08 635.904 554.139C614.642 554.266 593.377 553.841 570.777 552.977Z" fill="#47B0E2"/>
<path d="M2.09592 525.217C29.7884 529.93 56.6548 535.699 85.0541 542.015C85.9309 545.556 85.2747 548.552 84.389 552.594C55.5606 548.259 28.6395 540.736 0.746582 534.707C0.958099 531.299 1.11401 528.787 2.09592 525.217Z" fill="#5A5A5A"/>
<path d="M184.585 99.9063C185.429 103.231 184.87 106.481 183.681 110.851C159.571 106.482 136.089 101.004 112.615 95.4889C109.448 94.7448 106.324 93.8168 101.723 92.5326C100.457 89.5299 100.648 86.9684 100.944 82.999C129.4 86.2441 155.89 95.1651 184.585 99.9063Z" fill="#5A5A5A"/>
<path d="M646.513 42.5704C621.846 44.1129 597.618 44.0403 571.659 44.0904C569.712 41.0367 569.495 37.8601 569.306 35.0899C570.955 33.8427 571.967 32.4082 573.001 32.3926C595.236 32.0573 617.473 31.7999 639.71 31.7274C645.656 31.708 647.38 35.6437 646.513 42.5704Z" fill="#47B0E2"/>
<path d="M318.177 552.48C316.409 549.045 316.456 545.997 316.85 541.465C340.886 540.007 364.575 540.031 390.137 540.061C392.081 543.078 392.151 546.09 392.265 550.609C368.202 552.366 344.096 552.615 318.177 552.48Z" fill="#C11823"/>
<path d="M392.593 10.3502C368.385 12.0452 344.559 12.0039 318.934 11.9556C317.136 8.74572 317.136 5.5429 317.136 1.68591C321.542 1.25384 325.385 0.572625 329.23 0.551721C347.703 0.451349 366.177 0.612481 384.65 0.494806C390.377 0.458337 393.243 2.78463 392.593 10.3502Z" fill="#C11823"/>
<path d="M568.748 490.246C541.55 492.09 514.624 492.065 485.819 492.032C483.784 483.414 483.502 474.804 483.493 466.193C483.398 366.778 483.345 267.362 482.993 166.111C483.049 159.919 483.392 155.564 485.706 149.563C514.631 147.892 541.585 147.867 568.539 147.841C568.746 151.149 569.132 154.456 569.132 157.763C569.118 267.968 569.067 378.173 568.748 490.246ZM500.01 281.994C500.01 299.253 499.981 316.512 500.034 333.771C500.046 337.744 499.805 341.843 500.718 345.635C501.205 347.661 503.802 350.384 505.634 350.535C507.402 350.682 510.672 348.201 511.064 346.394C512.032 341.927 511.909 337.185 511.913 332.553C511.957 282.767 511.949 232.982 511.929 183.196C511.927 179.219 511.905 175.227 511.581 171.268C511.283 167.633 509.416 164.527 505.445 165.372C503.508 165.784 500.984 168.533 500.679 170.523C499.882 175.724 500.037 181.091 500.03 186.391C499.988 216.927 500.01 247.462 500.01 281.994ZM552.018 284.624C552.019 252.118 552.035 219.613 552.008 187.107C552.003 181.806 551.956 176.496 551.65 171.206C551.424 167.293 548.134 164.049 545.509 165.311C543.478 166.287 541.728 168.521 540.659 170.609C539.826 172.237 540.11 174.499 540.108 176.479C540.086 213.629 540.073 250.778 540.145 287.927C540.15 290.525 540.359 293.329 541.374 295.642C542.015 297.103 544.309 298.615 545.903 298.661C547.469 298.706 549.839 297.284 550.512 295.867C551.59 293.597 551.559 290.801 552.018 284.624ZM531.983 218.016C531.976 204.109 532.065 190.2 531.906 176.295C531.855 171.87 532.822 166.517 526.482 165.152C522.452 164.284 520.424 167.566 520.099 175.297C519.96 178.602 520.042 181.918 520.041 185.229C520.038 208.408 520.039 231.587 520.04 254.766C520.04 257.415 519.985 260.066 520.065 262.713C520.339 271.737 522.437 275.841 526.47 274.819C533.83 272.956 531.399 266.594 531.924 261.713C532.205 259.094 531.982 256.421 531.982 253.772C531.984 243.175 531.983 232.579 531.983 218.016Z" fill="#F6AF33"/>
<path d="M568.807 146.384C541.585 147.867 514.631 147.892 485.794 147.923C483.892 144.944 483.874 141.959 483.953 137.483C510.905 136.01 537.761 136.028 566.53 136.07C568.653 139.038 568.864 141.983 568.807 146.384Z" fill="#DA9C2C"/>
<path d="M433.063 483.827C439.164 484.521 444.081 484.518 448.116 486.404C456.933 490.523 461.448 500.003 459.631 509.704C458.096 517.9 454.384 524.904 445.635 527.535C434.839 530.781 424.321 527.765 418.541 520.028C411.838 511.059 411.744 501.462 418.414 492.424C421.678 488 425.851 484.828 433.063 483.827Z" fill="#F6AF33"/>
<path d="M220.057 312C220.266 274.041 220.46 238.082 220.759 202.124C220.769 200.965 221.862 199.816 222.99 197.603C229.941 195.064 237.526 195.22 246.25 197.832C246.87 201.685 248.008 205.474 248.013 209.264C248.115 288.545 248.101 367.827 248.041 447.108C248.038 450.333 247.355 453.557 246.992 456.75C244.633 457.891 242.939 459.359 241.16 459.47C222.679 460.625 220.164 458.43 220.102 439.917C219.962 397.945 220.057 355.972 220.057 312Z" fill="#01817D"/>
<path d="M280.099 316C280.099 351.263 280.125 384.527 280.072 417.79C280.064 423.097 279.925 428.424 279.425 433.702C279.054 437.614 276.061 439.127 272.454 439.35C268.819 439.575 265.613 438.294 264.838 434.557C264.038 430.699 263.963 426.645 263.96 422.676C263.912 359.475 263.925 296.275 263.927 233.074C263.927 231.079 263.879 229.079 263.989 227.088C264.448 218.825 266.698 216.068 272.554 216.485C277.582 216.843 279.639 219.38 279.966 226.188C280.19 230.835 280.093 235.499 280.095 240.155C280.104 264.77 280.099 289.385 280.099 316Z" fill="#01817D"/>
<path d="M85.3902 349.599C74.9965 394.934 66.8093 439.084 54.8351 482.089C45.6579 484.739 39.8712 480.06 33.2253 477.437C38.8033 452.749 44.2569 428.934 49.5566 405.085C59.877 358.643 69.9757 312.15 80.4372 265.74C85.8062 241.921 91.7592 218.234 97.4315 194.558C104.328 190.862 110.632 191.52 118.385 194.049C118.604 197.623 119.728 201.557 118.92 205.044C110.418 241.747 101.539 278.363 92.9229 315.04C90.3539 325.976 88.2837 337.03 85.3902 349.599Z" fill="#FF4A42"/>
<path d="M94.5359 422.624C90.4763 441.056 87.1839 457.953 83.4209 474.745C82.5826 478.486 80.5915 482.275 78.1404 485.216C76.964 486.628 73.3277 486.744 71.099 486.213C69.94 485.938 68.5137 482.837 68.7631 481.259C70.001 473.421 71.5662 465.62 73.3613 457.887C84.5938 409.497 95.9903 361.146 107.169 312.744C110.599 297.895 113.336 282.887 116.786 268.044C117.712 264.059 120.306 260.746 125.808 262.446C129.531 268.501 128.287 275.105 126.843 281.526C117.981 320.939 108.969 360.318 100.006 399.708C98.3863 406.824 96.7576 413.938 94.5359 422.624Z" fill="#FF4A42"/>
<path d="M371.909 252C371.701 291.254 371.509 328.509 371.214 365.763C371.205 366.927 370.137 368.082 369.01 370.359C360.765 373.243 351.853 372.476 342.625 370.528C338.577 363.294 340.077 355.835 340.062 348.717C339.933 290.147 339.989 231.577 339.989 173.006C339.989 133.737 339.963 94.4687 340.015 55.2C340.024 48.6269 340.373 42.0544 340.569 35.3464C350.134 29.9806 359.244 32.1763 367.991 32.987C373.762 38.9229 371.801 45.9216 371.824 52.3251C371.983 97.5835 371.909 142.843 371.909 188.102C371.909 208.734 371.909 229.367 371.909 252Z" fill="#C11823"/>
<path d="M347.961 463.911C347.962 448.003 347.929 434.076 347.991 420.149C348.005 416.847 348.16 413.523 348.576 410.251C349.07 406.357 351.852 404.773 355.465 404.542C359.095 404.31 362.087 405.635 363.084 409.332C363.762 411.848 363.878 414.572 363.883 417.204C363.937 443.067 363.937 468.931 363.882 494.794C363.877 497.426 363.762 500.151 363.08 502.665C362.072 506.379 359.036 507.639 355.424 507.396C351.816 507.153 348.736 505.567 348.601 501.658C348.188 489.743 348.147 477.815 347.961 463.911Z" fill="#C11823"/>
<path d="M404.741 104.642C407.73 102.066 410.12 100.417 412.533 100.385C428.354 100.172 444.181 100.248 460.004 100.411C461.837 100.429 463.659 101.557 466.346 102.46C466.346 106.124 466.346 109.778 466.346 113.166C464.803 114.12 463.714 115.373 462.604 115.391C445.484 115.672 428.361 115.943 411.24 115.867C405.246 115.841 403.759 111.555 404.741 104.642Z" fill="#F6AF33"/>
<path d="M419.075 135.657C416.453 134.013 415.404 132.602 413.489 130.03C427.906 127.361 440.896 126.714 455.456 130.571C446.681 136.089 446.681 136.089 419.075 135.657Z" fill="#F6AF33"/>
<path d="M500.01 279.996C500.01 247.462 499.988 216.926 500.03 186.391C500.037 181.09 499.882 175.724 500.679 170.523C500.984 168.532 503.508 165.784 505.445 165.372C509.416 164.527 511.283 167.633 511.581 171.268C511.905 175.227 511.927 179.218 511.929 183.196C511.949 232.981 511.957 282.767 511.913 332.553C511.909 337.185 512.032 341.927 511.064 346.393C510.672 348.201 507.402 350.681 505.634 350.535C503.802 350.384 501.205 347.661 500.718 345.635C499.805 341.843 500.046 337.744 500.034 333.771C499.981 316.512 500.01 299.253 500.01 279.996Z" fill="#DA9C2C"/>
<path d="M552.008 286.425C551.559 290.8 551.59 293.597 550.512 295.867C549.839 297.283 547.469 298.706 545.903 298.661C544.309 298.615 542.015 297.103 541.374 295.642C540.359 293.329 540.15 290.525 540.145 287.927C540.073 250.778 540.086 213.629 540.108 176.479C540.11 174.499 539.826 172.236 540.659 170.609C541.728 168.521 543.478 166.287 545.509 165.311C548.134 164.049 551.424 167.293 551.65 171.206C551.956 176.496 552.003 181.806 552.008 187.107C552.035 219.613 552.02 252.118 552.008 286.425Z" fill="#DA9C2C"/>
<path d="M531.983 219.999C531.983 232.579 531.984 243.175 531.983 253.771C531.982 256.42 532.205 259.094 531.924 261.713C531.4 266.594 533.83 272.955 526.47 274.819C522.437 275.84 520.339 271.737 520.065 262.713C519.985 260.066 520.04 257.415 520.04 254.766C520.039 231.587 520.038 208.408 520.041 185.229C520.042 181.918 519.96 178.602 520.099 175.296C520.424 167.566 522.452 164.284 526.482 165.152C532.823 166.516 531.855 171.87 531.906 176.294C532.065 190.2 531.976 204.108 531.983 219.999Z" fill="#DA9C2C"/>
</svg>
