<svg width="780" height="663" viewBox="0 0 780 663" fill="none" xmlns="http://www.w3.org/2000/svg">
<path d="M503.098 500.066C503.063 530.69 503.115 561.314 502.927 591.938C502.886 598.516 501.98 605.088 499.269 613.509C496.385 617.62 495.704 619.886 495.024 622.152C495.024 622.152 494.98 621.973 493.799 622.417C490.151 625.055 487.805 627.407 485.193 629.411C478.497 634.546 479.476 640.496 483.058 646.824C482.232 653.815 478.241 657.463 471.274 657.861C468.627 658.013 465.968 658.012 463.314 658.012C415.525 658.021 367.737 658.048 319.948 657.97C315.401 657.962 310.855 657.28 306.365 656.915C301.258 649.872 303.087 642.338 303.072 635.293C302.931 572.903 302.999 510.512 303.014 448.121C303.016 442.812 302.928 437.495 303.195 432.197C303.322 429.673 304.184 427.187 304.906 423.767C316.855 420.476 328.838 422.871 343.942 421.779C359.865 424.769 372.381 427.859 384.5 432.276C382.016 438.73 379.93 443.858 376.175 448.972C365.02 449.866 355.195 447.334 343.784 451.818C355.292 455.96 365.215 453.188 374.595 456.072C372.719 461.754 370.983 465.91 369.132 470.338C361.809 470.812 355.268 471.151 348.755 471.776C348.018 471.846 347.436 473.527 346.157 475.358C352.493 476.691 358.422 477.939 363.612 479.032C365.372 493.271 355.707 494.343 344.461 495.303C349.415 498.775 352.436 500.892 355.054 502.726C356.081 511.131 351.413 515.637 346.323 519.302C349.947 523.049 353.512 526.734 356.454 531.724C352.033 536.032 348.235 539.036 342.839 543.302C350.987 545.882 356.968 549.077 364.566 547.754C371.06 546.624 377.761 546.354 384.376 546.304C406.36 546.137 428.346 546.281 450.331 546.225C460.318 546.2 470.306 546.083 480.288 545.801C483.361 545.714 484.937 543.85 483.873 539.399C479.129 539.033 473.959 538.316 468.785 538.288C442.803 538.145 416.82 538.27 390.838 538.087C385.01 538.046 378.699 539.454 375.129 534.187C380.14 529.933 383.83 526.038 389.348 522.216C421.64 521.859 452.103 521.433 482.565 520.949C483.01 520.942 483.443 520.223 483.891 519.827C483.27 519.306 482.767 518.512 482.251 518.503C451.763 517.961 421.275 517.485 390.874 515.531C392.784 509.572 394.605 505.085 397.706 500.832C402.305 500.747 405.625 500.428 410.845 500.365C422.991 500.379 433.238 500.138 444.969 500.445C456.384 505.27 466.024 505.998 476.654 502.026C484.872 498.956 493.93 495.552 503.098 500.066ZM334.053 543.658C334.168 540.552 332.747 538.896 329.635 539.72C328.86 539.925 327.829 542.413 328.062 542.632C329.225 543.725 330.769 544.41 334.053 543.658ZM329.788 494.273C329.4 495.82 329.012 497.367 328.623 498.914C330.266 498.91 331.908 498.906 333.551 498.902C333.151 497.351 332.751 495.799 329.788 494.273ZM329.69 476.908C331.115 476.102 332.672 475.442 333.856 474.37C334.098 474.15 333.147 471.677 332.395 471.459C329.393 470.593 327.763 471.953 329.69 476.908Z" fill="#EAEBEA"/>
<path d="M384.896 430.949C372.381 427.859 359.865 424.769 345.854 421.636C344.044 419.697 343.875 417.762 343.392 415.908C340.157 403.476 343.338 393.167 355.786 383.55C362.624 382.268 367.101 382.524 372.75 383.762C383.736 385.157 393.549 385.57 404.772 386.595C417.347 391.252 428.338 391.352 440.325 385.231C443.608 381.458 445.982 378.376 447.612 374.941C450.946 367.912 453.88 360.694 458.47 353.328C469.02 348.081 478.08 343.06 488.805 338.031C496.013 337.799 501.556 337.573 508.696 337.52C515.616 337.78 520.939 337.868 527.625 338.441C533.657 339.831 538.327 340.737 543.972 341.869C545.617 342.098 546.285 342.1 546.953 342.102C569.768 353.155 592.583 364.207 617.029 377.173C618.695 406.495 618.729 433.904 618.763 461.312C617.474 461.488 615.979 461.3 614.927 461.895C598.857 470.982 580.837 473.847 560.664 477.493C555.572 475.899 553.023 474.117 550.659 474.336C537.825 475.522 525.553 471.95 513.362 469.44C496.408 465.95 479.884 459.626 467.088 447.616C456.636 437.806 445.635 432.45 431.328 433.938C427.385 434.349 423.357 433.937 417.766 433.769C405.742 432.741 395.319 431.845 384.896 430.949Z" fill="#FEBA76"/>
<path d="M59.2356 501.873C58.7071 495.41 54.5915 491.19 50.0901 487.195C38.4437 476.859 33.9287 463.861 34.2363 448.385C34.6683 426.65 34.1725 404.896 34.2484 379.874C34.4312 373.251 34.439 369.903 36.1463 366.41C46.3815 366.725 54.9172 367.185 64.5604 367.705C73.224 353.03 87.3524 357.958 99.4417 360.774C106.377 356.749 111.687 352.576 117.719 350.436C125.65 347.623 129.998 357.815 139.196 357.443C140.913 356.682 143.907 355.313 146.934 354.021C158.738 348.983 161.333 349.706 169.458 358.357C173.951 363.14 175.1 368.544 175.05 374.766C174.906 392.723 174.985 410.681 175.021 428.639C175.031 433.241 174.371 438.055 178.342 441.665C174.427 461.268 168.861 479.999 152.311 493.298C151.067 494.298 151.165 496.966 148.661 500.313C117.534 501.803 88.3849 501.838 59.2356 501.873Z" fill="#FEBA76"/>
<path d="M179.048 440.398C174.371 438.055 175.031 433.24 175.021 428.639C174.985 410.681 174.905 392.722 175.05 374.766C175.1 368.544 173.951 363.14 169.458 358.357C161.333 349.706 158.738 348.983 146.934 354.021C143.907 355.313 140.913 356.682 139.196 357.443C129.998 357.815 125.65 347.623 117.719 350.436C111.687 352.576 106.376 356.749 99.4417 360.773C87.3524 357.958 73.2239 353.03 64.5603 367.705C54.9172 367.185 46.3814 366.725 36.201 366.329C34.5564 366.394 34.7413 366.342 34.7506 364.491C34.7655 354.831 35.3286 346.973 34.6362 339.226C33.7633 329.46 36.4906 321.352 44.7144 314.356C50.3075 314.505 54.3667 314.694 59.3692 315.802C62.5048 316.035 65.8576 316.012 66.6888 314.552C70.3287 308.162 75.9051 305.716 84.1199 305.285C90.7261 307.375 95.9194 309.171 101.411 311.07C103.571 305.798 105.722 300.545 109.476 295.017C119.501 294.938 127.923 295.133 136.635 295.336C140.218 290.065 138.396 284.055 138.445 276.752C138.413 273.297 138.189 271.321 138.196 267.779C138.33 260.946 138.232 255.68 138.364 248.945C138.434 245.504 138.275 243.533 138.317 239.998C138.686 234.232 138.855 230.029 139.598 224.812C142.638 220.803 145.105 217.807 149.09 214.699C154.664 214.59 158.72 214.593 163.54 215.489C167.654 219.529 171.005 222.678 174.484 227.417C174.879 233.252 175.146 237.496 175.269 243.159C175.219 246.476 175.313 248.373 175.253 251.872C175.253 258.824 175.408 264.175 175.363 270.948C175.211 274.277 175.258 276.184 175.176 279.676C175.131 285.495 175.216 289.73 175.178 295.456C175.107 299.935 175.159 302.922 175.109 307.665C175.192 318.64 175.362 327.859 175.598 337.077C175.611 337.59 176.054 338.313 176.499 338.539C177.036 338.812 177.79 338.659 178.887 338.712C179.896 337.431 181.703 336.113 182.122 334.446C184.801 323.771 192.971 322.035 202.01 322.235C212.576 322.469 218.928 329.016 219.259 339.788C219.401 344.382 218.711 349.002 217.48 354.415C214.723 358.895 212.883 362.571 210.505 367.521C208.881 373.16 207.797 377.525 206.712 381.889C204.011 385.362 200.446 388.463 198.761 392.374C192.105 407.822 186.039 423.523 179.048 440.398Z" fill="#ECA963"/>
<path d="M159.057 549.531C161 551.174 163.879 552.465 164.661 554.544C165.777 557.51 165.553 561.053 165.559 564.35C165.612 592.956 165.607 621.562 165.56 650.167C165.555 653.395 165.186 656.622 165.07 658.483C163.559 660.273 163.223 660.889 162.705 661.225C162.169 661.574 161.457 661.821 160.82 661.825C125.585 662.042 90.3489 662.247 55.1129 662.386C51.8801 662.399 48.6456 661.975 44.6679 661.703C44.0339 658.792 43.0446 656.342 43.035 653.888C42.915 623.287 42.8682 592.685 43.002 562.084C43.0207 557.81 41.2907 552.384 51.146 550.373C89.4269 550.012 124.242 549.771 159.057 549.531ZM67.2713 572.825C66.4084 571.164 65.9334 568.651 64.5919 568.04C62.5713 567.118 58.6478 566.53 57.8455 567.576C56.1645 569.766 55.2158 573.207 55.5464 575.943C55.6973 577.191 59.5426 578.579 61.811 578.778C63.3266 578.912 65.0163 577.059 67.2713 572.825ZM64.0968 589.247C58.6448 587.266 55.0791 589.089 54.7691 594.887C54.5853 598.325 57.1712 601.27 60.7008 601.171C65.1348 601.048 67.3713 598.012 66.9446 593.407C66.8857 592.771 66.7015 592.146 64.0968 589.247ZM55.3864 612.96C55.1346 614.201 54.5663 615.474 54.6902 616.675C55.0726 620.384 57.4716 622.522 61.033 622.429C64.5676 622.336 67.1343 620.101 67.1776 616.42C67.2193 612.873 65.0828 610.466 61.4342 609.965C60.2422 609.802 58.9527 610.35 55.3864 612.96Z" fill="#08565E"/>
<path d="M666.642 365.955C667.841 362.213 668.548 358.075 673.894 358.087C679.217 358.098 684.539 357.922 689.862 357.917C713.824 357.897 737.786 357.886 761.749 357.927C766.953 357.936 772.157 358.174 778.21 358.329C780.733 369.086 779.313 379.007 779.551 388.771C779.794 398.749 779.605 408.738 779.605 418.722C779.605 428.707 779.642 438.691 779.594 448.675C779.548 458.571 779.849 468.49 779.24 478.952C774.935 479.612 771.759 480.511 768.579 480.523C738.627 480.636 708.674 480.604 678.721 480.598C674.749 480.597 670.629 480.93 667.77 473.623C667.539 452.609 667.724 434.864 667.582 417.122C667.445 400.065 666.969 383.011 666.642 365.955ZM710.467 469.177C714.098 469.596 716.899 468.134 718.124 464.797C718.709 463.204 718.593 460.843 717.801 459.361C716.209 456.383 713.446 454.414 709.891 455.794C708.26 456.427 706.678 457.988 705.776 459.537C703.809 462.918 705.699 465.636 710.467 469.177ZM694.097 456.588C690.952 454.726 688.03 454.974 685.514 457.682C682.505 460.92 682.827 464.806 686.301 467.544C689.203 469.832 692.124 469.772 694.814 467.2C697.477 464.654 697.635 461.69 694.097 456.588ZM733.362 469.142C735.301 467.742 738.127 466.748 738.995 464.856C740.872 460.768 738.707 456.908 734.893 455.973C731.297 455.091 727.315 457.803 727.275 462.05C727.256 464.118 729.431 466.207 733.362 469.142Z" fill="#08565E"/>
<path d="M34.5016 366.474C34.4389 369.903 34.4311 373.25 34.4425 377.82C24.4955 385.119 13.906 381.902 3.97526 381.82C-1.26275 376.135 0.472631 369.873 0.45487 364.131C0.310827 317.496 0.373388 270.86 0.373297 224.225C0.373144 157.602 0.343054 90.9796 0.416906 24.3573C0.424841 17.1957 -0.558436 9.87172 1.71036 3.14174C19.8101 -0.0274549 133.256 -0.868762 249.426 2.88221C251.009 7.04457 251.061 9.49965 249.454 11.9284C241.858 11.341 235.933 10.4662 229.984 10.2682C172.967 8.37342 116.027 9.62196 57.6849 14.5521C50.2105 14.9611 44.2456 15.6278 36.564 16.3976C31.1924 17.37 27.5375 18.2391 23.7957 19.1288C23.401 22.931 22.8921 25.5375 22.8943 28.1437C22.9861 139.189 23.1222 250.235 23.2875 361.28C23.2883 361.889 23.7449 362.514 24.0484 363.1C24.3422 363.668 24.713 364.196 25.4592 365.403C28.24 365.684 31.4906 366.013 34.7413 366.342C34.7413 366.342 34.5563 366.394 34.5016 366.474Z" fill="#E74A40"/>
<path d="M542.996 341.642C538.326 340.737 533.657 339.831 527.681 336.575C526.389 235.842 526.405 137.459 526.418 39.0767C526.419 35.7529 526.499 32.426 526.382 29.106C525.93 16.2454 524.848 15.2502 510.727 14.696C509.424 14.645 508.103 15.0591 505.169 14.8579C497.987 14.4697 492.427 14.4805 485.097 14.1567C420.731 8.41284 358.047 8.4292 295.244 9.36523C295.133 6.02856 295.104 4.1206 295.075 2.21289C298.365 1.94678 301.655 1.44873 304.944 1.44897C383.073 1.4563 461.202 1.51733 541.509 2.73486C544.315 4.88379 545.178 5.57617 546.273 5.97827C546.533 9.93921 547.02 13.9004 547.02 17.8613C547.024 123.348 546.978 228.835 545.899 336.591C543.959 339.601 543.338 340.529 542.996 341.642Z" fill="#E63A30"/>
<path d="M419.368 433.902C423.357 433.937 427.385 434.349 431.328 433.938C445.635 432.45 456.636 437.806 467.089 447.617C479.884 459.626 496.408 465.95 513.362 469.44C525.553 471.95 537.825 475.523 550.659 474.336C553.023 474.118 555.572 475.899 559.246 478.074C552.878 494.998 547.55 496.784 527.675 490.634C520.318 493.673 513.265 496.587 504.655 499.784C493.93 495.552 484.872 498.956 476.654 502.026C466.024 505.998 456.384 505.27 444.737 499.449C441.831 496.336 440.64 494.768 439.396 491.79C438.559 485.174 437.838 479.42 431.26 478.886C425.598 478.427 424.657 484.161 422.344 487.826C421.314 489.458 420.534 491.248 417.936 493.278C410.474 493.639 404.718 493.689 399.107 492.286C404.03 478.703 409.032 466.654 413.496 454.409C415.925 447.745 417.44 440.748 419.368 433.902Z" fill="#ECA963"/>
<path d="M159.049 547.724C124.242 549.771 89.4268 550.012 52.7702 549.845C50.962 537.025 50.9774 524.612 51.0386 512.2C51.0585 508.166 51.5809 504.332 57.6333 502.219C88.3848 501.838 117.534 501.803 148.495 501.756C155.458 502.435 158.835 504.885 158.871 510.53C158.945 522.326 158.986 534.122 159.049 547.724Z" fill="#EDEEEE"/>
<path d="M664.825 365.95C666.969 383.011 667.445 400.065 667.582 417.122C667.724 434.865 667.539 452.61 667.101 472.195C653.524 473.974 640.341 473.988 627.161 473.815C621.367 473.739 619.293 469.955 618.882 463.027C618.729 433.904 618.695 406.495 618.516 377.38C619.207 369.965 621.747 366.075 628.218 366.077C639.815 366.08 651.412 365.994 664.825 365.95Z" fill="#EDEEEE"/>
<path d="M371.577 382.781C367.1 382.524 362.624 382.268 356.506 382.339C336.128 382.539 317.39 382.411 296.845 380.511C295.038 375.005 295.039 371.27 296.39 367.037C299.655 366.358 301.57 366.177 305.292 366.223C314.414 366.47 321.73 366.417 329.043 366.526C354.88 366.913 380.815 364.714 406.928 370.19C407.36 371.009 407.553 372.851 406.998 374.036C405.291 377.566 404.139 379.913 401.234 382.182C390.179 382.33 380.878 382.555 371.577 382.781Z" fill="#E74A40"/>
<path d="M295.04 367.536C295.039 371.27 295.038 375.005 295.014 380.139C281.528 381.724 268.066 381.91 252.814 380.374C250.954 375.074 250.884 371.495 252.495 367.49C261.096 366.735 268.016 366.406 276.593 366.385C283.846 366.973 289.443 367.254 295.04 367.536Z" fill="#CC3128"/>
<path d="M250.814 367.916C250.884 371.495 250.954 375.074 251.022 379.995C237.495 381.62 223.969 381.903 208.577 382.038C207.797 377.525 208.881 373.16 212.314 367.657C226.776 366.319 238.891 366.119 250.981 366.421C250.956 366.922 250.814 367.916 250.814 367.916Z" fill="#E63A30"/>
<path d="M293.27 1.82648C295.104 4.12067 295.133 6.02863 293.977 10.2003C286.756 13.6341 280.719 14.8038 273.037 15.5128C264.632 14.0196 257.873 12.9874 251.114 11.9551C251.061 9.49982 251.009 7.04474 250.959 3.36139C264.463 1.90216 277.964 1.67121 293.27 1.82648Z" fill="#CD392F"/>
<path d="M484.252 646.036C479.476 640.496 478.497 634.546 485.193 629.411C487.805 627.407 490.151 625.055 493.892 622.42C495.208 631.106 491.261 638.567 484.252 646.036Z" fill="#C6C6C6"/>
<path d="M496.023 621.478C495.704 619.886 496.385 617.62 498.063 614.667C498.381 616.255 497.702 618.529 496.023 621.478Z" fill="#C6C6C6"/>
<path d="M543.972 341.869C543.338 340.529 543.959 339.601 545.598 338.446C546.574 338.689 546.811 339.347 547.001 341.053C546.285 342.1 545.617 342.098 543.972 341.869Z" fill="#E74A40"/>
<path d="M546.426 4.91438C545.178 5.57625 544.315 4.88386 543.348 3.13093C544.199 2.85725 545.389 3.35383 546.426 4.91438Z" fill="#E74A40"/>
<path d="M417.766 433.769C417.44 440.748 415.925 447.745 413.496 454.409C409.032 466.654 404.03 478.703 398.776 493.231C398.3 495.628 398.511 497.614 397.983 497.995C396.642 498.9 396.3 499.64 396.427 500.598C394.605 505.085 392.784 509.572 390.082 516.219C388.641 519.634 388.081 520.888 387.521 522.143C383.83 526.038 380.14 529.933 373.893 534.055C366.028 535.042 361.292 533.693 357.077 530.419C353.512 526.734 349.947 523.049 346.323 519.302C351.413 515.637 356.081 511.131 355.054 502.726C352.436 500.892 349.415 498.775 344.461 495.303C355.707 494.343 365.372 493.271 363.612 479.032C358.422 477.939 352.493 476.691 346.156 475.358C347.436 473.527 348.018 471.846 348.755 471.776C355.268 471.151 361.809 470.812 369.132 470.338C370.983 465.91 372.719 461.754 375.432 455.338C376.886 451.713 377.365 450.349 377.843 448.986C379.93 443.858 382.016 438.73 384.5 432.275C395.319 431.845 405.742 432.741 417.766 433.769Z" fill="#07A29C"/>
<path d="M356.454 531.724C361.292 533.693 366.028 535.042 372.572 534.413C378.699 539.454 385.01 538.046 390.838 538.087C416.82 538.27 442.803 538.145 468.785 538.288C473.959 538.316 479.129 539.033 483.873 539.399C484.937 543.85 483.361 545.714 480.288 545.801C470.306 546.083 460.317 546.2 450.331 546.225C428.346 546.281 406.36 546.137 384.376 546.304C377.761 546.354 371.06 546.624 364.566 547.754C356.967 549.077 350.987 545.882 342.839 543.302C348.235 539.036 352.033 536.032 356.454 531.724Z" fill="#848383"/>
<path d="M389.348 522.216C388.081 520.888 388.641 519.634 389.994 517.691C421.275 517.485 451.763 517.962 482.251 518.503C482.767 518.512 483.27 519.306 483.891 519.827C483.443 520.223 483.01 520.942 482.565 520.949C452.103 521.433 421.64 521.859 389.348 522.216Z" fill="#5A5A5A"/>
<path d="M398.511 497.614C398.511 497.614 398.3 495.628 398.631 494.683C404.718 493.688 410.474 493.639 419.565 493.477C428.416 493.309 433.933 493.254 439.45 493.2C440.64 494.768 441.831 496.335 443.253 498.9C433.238 500.138 422.991 500.379 410.085 499.685C404.454 498.37 401.482 497.992 398.511 497.614Z" fill="#7B7A7B"/>
<path d="M376.175 448.972C377.365 450.349 376.886 451.713 375.571 453.811C365.215 453.188 355.292 455.96 343.784 451.818C355.195 447.334 365.02 449.866 376.175 448.972Z" fill="#5A5A5A"/>
<path d="M333.116 544.449C330.769 544.41 329.224 543.725 328.062 542.632C327.829 542.413 328.86 539.925 329.635 539.72C332.747 538.897 334.168 540.552 333.116 544.449Z" fill="#848383"/>
<path d="M397.983 497.995C401.482 497.992 404.454 498.37 408.185 499.429C405.625 500.428 402.305 500.747 397.706 500.832C396.3 499.64 396.642 498.9 397.983 497.995Z" fill="#ECA963"/>
<path d="M331.069 494.261C332.75 495.799 333.15 497.351 333.55 498.902C331.908 498.906 330.266 498.91 328.623 498.914C329.011 497.367 329.4 495.82 331.069 494.261Z" fill="#A49882"/>
<path d="M328.828 476.052C327.762 471.953 329.393 470.593 332.394 471.459C333.147 471.677 334.098 474.15 333.856 474.37C332.672 475.442 331.115 476.102 328.828 476.052Z" fill="#848383"/>
<path d="M486.867 14.4913C492.427 14.4805 497.988 14.4698 505.23 16.6299C506.974 124.983 507.036 231.165 507.098 337.347C501.556 337.573 496.013 337.799 488.773 336.154C487.061 313.843 487.086 293.402 487.008 272.961C486.988 267.779 487.992 262.294 483.226 256.913C482.238 254.27 481.708 252.747 482.622 250.136C488.269 243.85 486.996 237.647 486.997 231.792C487.017 159.359 486.928 86.9249 486.867 14.4913Z" fill="#D4C0A5"/>
<path d="M508.695 337.519C507.036 231.165 506.974 124.983 506.851 17.0287C508.103 15.059 509.424 14.6449 510.727 14.6959C524.848 15.2501 525.93 16.2452 526.382 29.1058C526.499 32.4259 526.419 35.7528 526.418 39.0765C526.405 137.459 526.389 235.842 526.318 336.09C520.939 337.868 515.616 337.78 508.695 337.519Z" fill="#BBAC93"/>
<path d="M407.553 372.851C407.553 372.851 407.36 371.009 407.383 368.852C411.833 355.643 416.297 344.605 420.68 333.536C427.986 315.087 435.11 296.565 442.57 278.179C446.391 268.759 449.779 267.252 459.483 270.576C466.981 273.145 474.245 276.397 481.775 280.765C480.32 287.877 479.029 293.686 477.027 299.239C470.484 317.394 463.682 335.456 456.979 353.554C453.88 360.694 450.946 367.912 447.612 374.941C445.982 378.376 443.608 381.458 439.338 384.275C427.255 380.183 417.404 376.517 407.553 372.851Z" fill="#07A29C"/>
<path d="M458.47 353.328C463.682 335.456 470.484 317.394 477.027 299.239C479.029 293.686 480.32 287.877 482.227 279.076C482.301 272.493 482.086 269.021 482.08 264.271C482.755 261.341 483.22 259.687 483.685 258.033C487.992 262.293 486.988 267.779 487.008 272.961C487.086 293.402 487.061 313.843 487.107 336.161C478.08 343.06 469.02 348.081 458.47 353.328Z" fill="#E4D1B4"/>
<path d="M406.998 374.036C417.404 376.517 427.255 380.183 438.093 384.806C428.339 391.352 417.347 391.252 404.712 385.661C403.241 384.115 402.988 382.259 402.988 382.259C404.139 379.913 405.291 377.566 406.998 374.036Z" fill="#F6AF33"/>
<path d="M401.234 382.182C402.988 382.259 403.241 384.115 403.301 385.049C393.549 385.57 383.736 385.157 372.75 383.762C380.878 382.555 390.179 382.33 401.234 382.182Z" fill="#FCE1C2"/>
<path d="M249.454 11.9285C257.873 12.9874 264.632 14.0196 273.118 17.2466C274.876 134.987 274.906 250.533 274.937 366.078C268.016 366.406 261.096 366.735 252.495 367.49C250.814 367.916 250.956 366.922 249.965 365.317C245.144 363.123 241.329 362.174 237.481 362.023C229.932 361.726 223.362 359.59 218.399 353.61C218.711 349.002 219.401 344.382 219.26 339.788C218.928 329.016 212.576 322.469 202.01 322.235C192.971 322.035 184.801 323.771 182.122 334.446C181.703 336.113 179.896 337.431 178.887 338.712C177.79 338.659 177.036 338.812 176.499 338.539C176.054 338.313 175.611 337.59 175.598 337.077C175.362 327.859 175.192 318.64 176.927 307.647C201.343 304.748 223.424 307.62 245.27 312.762C245.911 312.913 246.569 312.993 247.222 313.093C251.021 313.672 254.917 311.15 254.035 308.236C253.396 306.128 251.264 303.138 249.49 302.908C224.791 299.688 200.04 296.876 175.301 293.964C175.216 289.73 175.131 285.495 176.958 279.638C191.444 278.239 203.928 277.647 216.423 281.142C226.511 283.964 237.258 284.571 247.763 285.686C251.339 286.066 256.121 286.91 256.792 279.913C253.689 278.295 250.421 275.397 246.836 274.929C231.107 272.878 215.304 271.315 199.492 270.017C191.555 269.365 183.541 269.659 175.562 269.526C175.408 264.175 175.253 258.824 176.964 251.819C184.114 250.356 189.452 250.14 194.675 250.814C211.618 253 228.514 255.543 245.441 257.86C247.383 258.126 249.416 257.967 251.381 257.76C254.086 257.475 256.544 256.711 256.454 252.685C255.08 251.919 253.578 250.586 251.862 250.198C226.702 244.512 201.27 241.178 175.413 241.741C175.146 237.496 174.879 233.252 176.406 227.408C196.705 226.624 215.331 224.112 233.7 229.338C239.832 231.083 246.905 229.766 253.518 229.362C254.732 229.288 255.802 226.868 257.323 225.079C254.95 223.9 253.359 222.706 251.587 222.295C237.333 218.996 222.549 219.255 208.325 216.85C193.019 214.262 178.017 214.098 162.776 214.597C158.72 214.594 154.664 214.59 147.22 214.439C113.695 213.825 94.8952 216.416 85.7455 222.297C85.9109 222.891 85.9646 223.943 86.2577 224.014C103.715 228.28 121.45 224.658 139.024 225.827C138.855 230.029 138.686 234.232 136.552 240.113C123.287 241.903 111.986 241.926 100.69 242.179C97.4293 242.252 94.0449 242.574 90.9913 243.6C89.583 244.073 88.0194 246.509 88.0135 248.061C88.0074 249.654 89.6002 252.398 90.8704 252.637C94.7011 253.359 99.0808 254.206 102.591 253.036C114.315 249.13 126.216 250.187 138.135 250.414C138.232 255.68 138.33 260.946 136.455 267.919C120.5 269.848 106.508 269.849 92.5468 270.512C90.2312 270.622 88.0526 273.618 82.5513 277.696C103.853 277.901 121.053 278.066 138.253 278.232C138.396 284.055 140.218 290.065 136.635 295.336C127.923 295.133 119.501 294.938 107.925 294.673C98.7264 296.033 92.5552 297.094 86.7131 299.109C84.9152 299.729 84.0171 302.957 82.707 304.992C75.9051 305.716 70.3287 308.162 66.6888 314.553C65.8576 316.012 62.5048 316.035 59.5641 313.843C58.8718 297.716 58.9652 284.466 58.9779 271.215C59.06 185.747 59.1244 100.279 59.1946 14.8101C116.027 9.62212 172.967 8.37358 229.984 10.2684C235.933 10.4664 241.858 11.3411 249.454 11.9285ZM239.67 29.9917C231.065 29.6385 222.122 30.659 213.924 28.6465C196.767 24.4351 179.22 24.5828 162.532 27.0374C143.954 29.7703 125.565 29.2137 107.094 30.0879C101.806 30.3384 96.4344 30.1507 91.2604 31.0645C87.1475 31.7913 83.9429 34.3328 85.6776 40.0572C92.3817 43.0806 99.9642 42.951 106.722 40.9112C117.2 37.7493 127.697 38.0989 138.263 38.0611C167.467 37.9566 196.675 37.8433 225.876 38.1651C233.727 38.2515 241.564 39.8597 249.402 40.8104C252.68 41.2073 256.469 42.0311 257.084 37.449C257.62 33.4546 254.264 31.7637 251.01 30.9122C248.484 30.2513 245.771 30.3057 239.67 29.9917ZM136.22 145.82C142.766 145.108 149.302 144.287 155.86 143.717C161.756 143.205 168.075 141.448 173.518 142.873C198.794 149.489 225.202 142.091 250.351 149.633C253.385 150.543 256.993 149.149 256.694 143.543C253.617 142.053 250.247 139.297 246.592 138.846C230.891 136.906 215.134 134.986 199.344 134.308C181.472 133.539 163.522 133.552 145.644 134.242C127.202 134.954 108.805 136.853 90.3948 138.326C87.6311 138.548 85.3423 139.684 85.9663 144.337C101.134 148.041 116.885 145.041 136.22 145.82ZM221.347 65.8851C231.296 65.9078 241.246 66.0291 251.192 65.8855C253.728 65.8489 256.552 65.3306 256.414 61.6429C255.59 60.6758 254.823 58.9551 253.992 58.9236C234.185 58.169 214.796 52.5113 194.788 53.9944C188.85 54.4346 182.825 54.4173 176.884 53.9927C148.98 51.9988 121.464 57.2256 93.7308 58.3528C90.3672 58.4893 85.2929 58.6858 87.5347 66.2601C112.341 64.6238 137.301 68.0418 162.403 63.3382C173.835 61.1961 186.091 63.2027 197.955 63.7247C204.522 64.0132 211.052 65.1214 221.347 65.8851ZM223.606 118.152C232.743 119.384 241.861 120.804 251.03 121.714C253.329 121.942 256.548 121.539 256.573 117.733C255.828 116.705 255.279 115.06 254.373 114.832C243.471 112.087 232.644 109.362 221.139 109.783C209.272 110.219 197.514 109.279 185.609 107.136C174.799 105.189 163.242 107.165 152.032 107.758C145.46 108.106 138.938 109.512 132.367 109.762C121.76 110.165 111.129 109.911 100.513 110.146C97.2619 110.218 93.8868 110.573 90.8467 111.611C89.4854 112.077 87.6453 115.07 88.0627 116.001C88.9647 118.013 91.1332 119.492 92.9058 121.05C93.2741 121.373 94.2414 121.277 94.8175 121.064C106.366 116.791 118.411 118.135 130.286 118.079C160.153 117.936 190.022 118.073 223.606 118.152ZM236.974 193.566C228.506 192.365 220.02 190.058 211.573 190.193C194.289 190.47 177.154 186.032 160.291 186.901C142.556 187.816 124.814 190.048 106.951 189.959C103.636 189.942 100.314 189.951 97.0068 190.143C95.0542 190.256 92.5426 190.117 91.3263 191.231C89.6956 192.725 88.6707 195.249 88.2739 197.488C88.1592 198.136 91.1436 200.199 92.6202 200.113C99.1834 199.733 105.711 198.228 112.259 198.179C142.764 197.953 173.274 197.905 203.778 198.196C210.964 198.264 218.141 199.846 225.312 200.807C235.473 202.169 245.61 203.258 257.094 200.509C252.28 192.646 245.86 194.46 236.974 193.566ZM215.53 90.3245C237.991 95.6368 246.972 95.5279 256.463 89.824C255.752 88.8409 255.143 87.0972 254.315 86.9864C237.312 84.7134 220.525 81.2132 203.116 81.7464C177.252 82.5386 151.344 82.2815 125.461 81.952C112.093 81.782 99.2911 84.2815 86.6029 87.9095C86.0549 88.0662 86.0455 90.1067 85.5576 92.2867C97.2196 95.1719 108.871 94.0757 120.526 92.7869C128.381 91.9183 136.221 90.3499 144.084 90.2349C166.648 89.9041 189.22 90.1536 215.53 90.3245ZM129.83 170.139C149.824 170.128 169.822 169.865 189.808 170.23C197.703 170.373 205.562 172.03 213.458 172.794C226.598 174.064 239.747 175.278 252.917 176.146C253.996 176.217 255.592 173.599 256.289 171.951C256.6 171.215 255.551 169.39 254.637 168.763C253.041 167.668 251.08 166.461 249.257 166.437C227.331 166.152 205.876 160.491 183.735 161.689C163.133 162.804 142.42 162.357 121.771 161.888C110.268 161.627 99.2631 163.503 88.3741 166.636C87.0242 167.024 86.1737 169.148 84.4096 171.299C92.96 175.406 100.735 173.892 108.425 172.878C114.321 172.101 120.184 171.077 129.83 170.139Z" fill="#FCE3C5"/>
<path d="M57.6849 14.5522C59.1244 100.279 59.0599 185.747 58.9779 271.215C58.9652 284.466 58.8717 297.716 58.6208 312.925C54.3667 314.694 50.3074 314.505 43.5248 313.121C40.2137 304.692 39.1253 297.46 39.1149 290.226C38.9949 206.903 39.0589 123.581 39.0053 40.2578C39.0002 32.2698 38.5333 24.2822 38.2808 16.2944C44.2456 15.6279 50.2105 14.9612 57.6849 14.5522Z" fill="#E4D1B4"/>
<path d="M36.564 16.3977C38.5333 24.2822 39.0002 32.2698 39.0053 40.2578C39.0589 123.581 38.9949 206.903 39.1149 290.226C39.1253 297.46 40.2138 304.692 41.991 313.161C36.4905 321.352 33.7633 329.46 34.6362 339.226C35.3286 346.973 34.7655 354.831 34.7506 364.491C31.4906 366.013 28.24 365.685 25.4592 365.403C24.713 364.196 24.3423 363.668 24.0485 363.1C23.745 362.514 23.2884 361.889 23.2875 361.281C23.1222 250.235 22.9862 139.189 22.8943 28.1438C22.8921 25.5376 23.401 22.9312 23.7957 19.1289C27.5375 18.2393 31.1924 17.3701 36.564 16.3977Z" fill="#D0BEA3"/>
<path d="M163.54 215.488C178.017 214.098 193.019 214.261 208.325 216.85C222.549 219.255 237.333 218.996 251.587 222.295C253.359 222.705 254.95 223.9 257.323 225.079C255.802 226.868 254.732 229.288 253.518 229.362C246.905 229.766 239.832 231.083 233.699 229.338C215.331 224.112 196.705 226.624 176.278 225.817C171.005 222.678 167.654 219.529 163.54 215.488Z" fill="#D4C0A5"/>
<path d="M175.178 295.456C200.04 296.876 224.791 299.687 249.49 302.907C251.264 303.138 253.396 306.128 254.035 308.236C254.917 311.15 251.021 313.672 247.221 313.093C246.569 312.993 245.911 312.913 245.27 312.762C223.424 307.62 201.343 304.748 177.028 305.891C175.159 302.922 175.107 299.935 175.178 295.456Z" fill="#D4C0A5"/>
<path d="M175.269 243.159C201.27 241.178 226.702 244.512 251.862 250.198C253.578 250.586 255.08 251.919 256.454 252.685C256.544 256.711 254.086 257.475 251.381 257.76C249.416 257.967 247.383 258.126 245.441 257.86C228.514 255.543 211.618 253 194.675 250.814C189.452 250.14 184.114 250.356 177.117 250.218C175.313 248.373 175.219 246.476 175.269 243.159Z" fill="#D4C0A5"/>
<path d="M175.363 270.948C183.541 269.659 191.555 269.365 199.492 270.017C215.304 271.315 231.107 272.878 246.836 274.929C250.421 275.397 253.689 278.295 256.792 279.913C256.121 286.91 251.339 286.066 247.763 285.686C237.258 284.571 226.511 283.964 216.423 281.142C203.928 277.647 191.444 278.239 177.087 278.053C175.258 276.184 175.211 274.277 175.363 270.948Z" fill="#D4C0A5"/>
<path d="M139.598 224.813C121.45 224.658 103.715 228.28 86.2578 224.014C85.9647 223.943 85.911 222.891 85.7456 222.297C94.8953 216.416 113.695 213.825 145.702 214.552C145.105 217.807 142.638 220.803 139.598 224.813Z" fill="#D4C0A5"/>
<path d="M138.364 248.945C126.216 250.187 114.315 249.13 102.591 253.036C99.0808 254.206 94.7011 253.359 90.8704 252.637C89.6002 252.397 88.0074 249.654 88.0134 248.061C88.0194 246.509 89.5829 244.073 90.9913 243.6C94.0449 242.574 97.4293 242.251 100.69 242.179C111.986 241.926 123.287 241.903 136.351 241.677C138.275 243.533 138.434 245.504 138.364 248.945Z" fill="#D4C0A5"/>
<path d="M138.445 276.752C121.053 278.066 103.853 277.901 82.5513 277.696C88.0525 273.618 90.2311 270.622 92.5467 270.512C106.508 269.849 120.5 269.848 136.224 269.485C138.189 271.321 138.413 273.297 138.445 276.752Z" fill="#D4C0A5"/>
<path d="M84.1197 305.285C84.017 302.957 84.9151 299.729 86.713 299.109C92.555 297.094 98.7263 296.033 106.322 294.948C105.722 300.545 103.571 305.798 101.411 311.07C95.9193 309.171 90.726 307.375 84.1197 305.285Z" fill="#D4C0A5"/>
<path d="M217.48 354.415C223.362 359.59 229.932 361.726 237.482 362.023C241.329 362.174 245.144 363.123 249.99 364.815C238.891 366.119 226.776 366.319 212.853 366.382C212.883 362.571 214.723 358.895 217.48 354.415Z" fill="#E9D1B2"/>
<path d="M66.9496 574.46C65.0162 577.059 63.3264 578.912 61.8109 578.778C59.5425 578.579 55.6972 577.191 55.5463 575.943C55.2156 573.206 56.1644 569.766 57.8454 567.576C58.6477 566.53 62.5712 567.118 64.5918 568.039C65.9333 568.651 66.4083 571.163 66.9496 574.46Z" fill="#C6C6C6"/>
<path d="M65.3359 590.382C66.7013 592.146 66.8856 592.771 66.9445 593.407C67.3712 598.012 65.1347 601.048 60.7006 601.171C57.1711 601.269 54.5851 598.325 54.769 594.887C55.079 589.089 58.6447 587.265 65.3359 590.382Z" fill="#C6C6C6"/>
<path d="M56.547 611.767C58.9526 610.35 60.2421 609.802 61.4342 609.965C65.0828 610.466 67.2193 612.873 67.1776 616.421C67.1343 620.101 64.5675 622.337 61.033 622.429C57.4715 622.523 55.0726 620.384 54.6901 616.675C54.5662 615.474 55.1346 614.201 56.547 611.767Z" fill="#C6C6C6"/>
<path d="M709.247 468.628C705.699 465.636 703.809 462.919 705.776 459.537C706.678 457.988 708.26 456.428 709.891 455.794C713.446 454.414 716.209 456.383 717.801 459.361C718.593 460.843 718.709 463.204 718.124 464.798C716.899 468.134 714.098 469.596 709.247 468.628Z" fill="#9CD7C5"/>
<path d="M695.019 457.56C697.635 461.69 697.477 464.654 694.814 467.2C692.124 469.772 689.203 469.832 686.301 467.544C682.827 464.806 682.504 460.92 685.514 457.682C688.03 454.974 690.952 454.726 695.019 457.56Z" fill="#9CD7C5"/>
<path d="M731.988 468.714C729.431 466.207 727.256 464.118 727.275 462.051C727.315 457.803 731.297 455.091 734.893 455.973C738.707 456.908 740.872 460.768 738.995 464.857C738.127 466.749 735.301 467.742 731.988 468.714Z" fill="#C6C6C6"/>
<path d="M276.593 366.385C274.906 250.532 274.876 134.987 274.764 17.7075C280.719 14.8037 286.756 13.634 294.059 11.6291C358.047 8.42914 420.731 8.41279 485.097 14.1567C486.928 86.9247 487.017 159.359 486.997 231.792C486.996 237.647 488.269 243.85 481.389 249.805C474.042 248.491 469.405 246.201 463.058 246.73C456.238 240.441 449.309 242.143 442.82 242.102C414.188 241.916 385.553 241.959 356.92 242.018C336.259 242.061 316.191 246.455 296.147 250.806C294.872 251.083 294.05 253.445 291.789 256.491C297.849 256.863 302.591 258.381 306.503 257.184C323.845 251.874 341.976 252.961 359.62 250.747C381.91 247.951 404.816 250.082 427.457 250.048C432.252 250.04 436.781 250.57 439.276 255.777C435.891 261.162 433.224 265.494 428.946 269.63C425.445 268.8 423.599 267.883 421.657 267.577C406.471 265.181 391.279 265.173 376.078 267.595C370.211 268.53 364.188 270.294 358.424 269.735C340.254 267.972 322.919 274.177 304.989 274.51C300.053 274.602 294.851 276.75 292.024 283.994C296.245 284.616 299.417 285.941 302.185 285.357C326.249 280.272 350.447 277.202 375.13 277.896C392.43 278.383 409.755 277.969 426.992 279.284C424.588 285.282 422.261 289.953 417.98 294.411C392.873 294.794 369.507 291.277 346.663 297.803C331.224 296.22 316.487 301.453 301.312 302.519C296.138 302.883 295.557 305.423 298.418 312.295C319.385 309.774 340.05 304.29 361.442 305.909C363.421 306.059 365.583 306.291 367.4 305.695C384.265 300.165 401.636 302.473 418.75 303.526C416.23 310.663 413.797 316.422 409.457 322.102C379.778 321.769 352.007 321.323 324.454 326.008C317.759 327.146 302.495 331.332 296.455 334.846C302.705 339.765 309.534 338.902 315.273 336.971C323.731 334.126 332.179 334.181 340.771 333.929C344.723 333.813 348.667 333.267 352.604 332.817C360.442 331.922 368.251 330.476 376.109 330.142C386.703 329.691 397.332 330.075 407.822 331.673C403.306 355.596 395.746 362.005 373.324 362.175C354.29 362.32 335.255 362.323 316.221 362.455C311.691 362.486 306.911 361.88 303.485 365.997C301.57 366.177 299.655 366.358 296.39 367.037C289.443 367.254 283.846 366.973 276.593 366.385ZM436.495 29.9899C422.557 29.7277 408.357 31.0036 394.768 28.6901C384.85 27.0021 375.102 25.6965 365.226 26.1672C344.112 27.1738 323.022 28.7556 301.94 30.3395C299.473 30.5251 296.793 31.7917 294.831 33.341C293.608 34.3071 292.721 37.0307 293.207 38.4394C293.656 39.7399 296.487 41.4509 297.672 41.0788C313.923 35.9765 330.603 38.3137 347.089 38.0788C371.003 37.7377 394.927 37.8303 418.842 38.1479C426.047 38.2436 433.218 39.8796 440.433 40.4794C446.314 40.9682 452.246 41.2123 458.132 40.9804C459.411 40.9299 461.757 38.1962 461.566 37.0322C461.204 34.8181 459.615 31.289 458.098 31.0468C452.245 30.1122 446.218 30.2592 436.495 29.9899ZM308.544 220.938C299.238 222.322 299.238 222.322 292.863 227.3C299.842 231.87 307.579 231.049 313.933 229.13C325.77 225.556 337.624 226.518 349.524 225.891C357.421 225.475 365.252 223.775 373.148 223.38C384.4 222.817 396.153 220.828 406.85 223.217C424.807 227.229 442.571 225.487 460.44 225.468C461.861 225.467 463.279 223.605 464.685 222.618C463.595 220.947 463.057 219.175 462.267 219.055C450.513 217.259 438.698 214.15 426.95 214.354C397.797 214.863 368.42 210.534 339.48 217.634C335.694 218.563 331.505 217.721 327.526 218.021C322.254 218.418 317.006 219.132 308.544 220.938ZM357.589 134.015C339.839 135.468 322.08 136.831 304.347 138.477C301.824 138.711 299.185 139.956 297.048 141.398C295.194 142.65 293.975 144.844 291.354 147.951C295.802 148.744 298.642 150.199 300.693 149.461C312.914 145.065 325.537 146.161 338.082 145.984C347.994 145.844 357.712 145.608 367.603 143.088C375.702 141.023 385.183 140.758 393.236 142.844C413.641 148.131 434.15 145.06 454.587 145.793C456.935 145.877 460.076 145.722 460.358 142.011C459.681 140.976 459.044 139.124 458.377 139.113C439.874 138.806 421.947 132.927 403.263 133.873C389.362 134.578 375.395 134.01 357.589 134.015ZM345.374 117.996C382.358 119.55 419.526 114.531 456.406 121.046C457.943 121.317 461.335 118.449 461.568 116.732C461.815 114.913 459.554 111.207 457.978 110.962C452.128 110.053 446.11 110.231 440.155 109.998C424.346 109.381 408.585 110.775 392.751 106.861C383.416 104.554 372.609 104.975 363.169 107.18C352.595 109.651 342.204 110.17 331.669 109.856C319.602 109.496 307.912 111.029 296.489 114.682C295.082 115.132 294.151 117.071 292.658 118.691C298.515 123.564 304.89 122.872 310.048 121.167C320.453 117.727 330.939 118.139 345.374 117.996ZM354.208 62.259C366.133 62.3703 378.509 60.4728 389.888 63.0222C411.686 67.9059 433.431 64.999 455.174 65.7443C457.717 65.8315 460.485 65.0661 460.323 61.4182C459.471 60.4897 458.662 58.8212 457.818 58.8032C441.295 58.4501 424.992 55.7206 408.593 54.3986C390.145 52.9111 371.436 54.8859 352.934 53.7824C334.182 52.6638 316.306 59.0358 297.735 58.5031C294.581 58.4128 293.274 60.6601 293.827 63.8034C310.615 67.1975 335.013 66.7722 354.208 62.259ZM302.933 194.049C299.027 194.617 294.731 194.646 294.355 200.886C303.412 203.168 313.035 203.432 321.622 201.104C334.147 197.707 346.58 198.096 359.127 198.037C386.366 197.909 413.607 198.042 440.847 198.012C446.153 198.006 451.478 197.952 456.751 197.458C458.174 197.325 459.439 195.501 461.383 193.978C457.938 189.726 453.957 190.154 450.204 190.027C431.716 189.398 413.085 191.702 394.817 186.423C390.548 185.189 385.216 185.251 381.007 186.639C368.017 190.924 354.742 190.158 341.542 189.844C329.491 189.557 317.774 190.881 302.933 194.049ZM451.61 173.932C455.196 173.378 459.934 175.023 460.851 168.553C453.078 163.203 444.202 161.942 434.819 161.981C406.216 162.098 377.598 161.488 349.012 162.198C332.531 162.608 316.097 164.992 299.651 166.588C298.412 166.708 296.774 167.321 296.152 168.258C294.815 170.269 293.725 172.582 293.26 174.916C293.17 175.37 296.595 177.457 298.042 177.144C331.33 169.94 365.064 169.393 398.889 170.011C402.214 170.071 405.543 170.098 408.867 170.017C422.167 169.692 435.416 169.832 451.61 173.932ZM373.037 90.0097C395.469 90.7839 418.06 87.8471 440.297 93.6616C445.242 94.9545 450.885 94.0439 456.132 93.468C457.979 93.2653 459.603 91.0288 463.356 88.184C447.163 84.8625 433.967 81.4706 419.865 81.8452C397.317 82.4443 374.723 82.5329 352.182 81.8102C332.863 81.1909 314.027 83.842 295.213 87.4096C294.521 87.5407 294.161 89.4191 293.654 90.4875C302.676 94.196 310.461 95.8444 319.657 92.8894C328.824 89.944 337.932 90.1613 347.176 90.0485C354.475 89.9594 361.776 90.0173 373.037 90.0097Z" fill="#EBD2B4"/>
<path d="M439.396 491.79C433.933 493.254 428.416 493.309 421.27 493.165C420.534 491.248 421.314 489.458 422.344 487.826C424.657 484.16 425.597 478.426 431.26 478.886C437.838 479.419 438.559 485.174 439.396 491.79Z" fill="#E4E4E4"/>
<path d="M411.363 322.181C413.797 316.422 416.23 310.663 418.938 302.268C419.452 297.962 419.693 296.293 419.934 294.624C422.261 289.953 424.588 285.282 427.479 278.285C428.881 273.915 429.719 271.87 430.556 269.825C433.223 265.494 435.891 261.162 440.669 255.662C448.422 255.704 454.065 256.914 460.532 259.182C467.846 263.353 474.051 267.569 481.87 265.548C482.086 269.021 482.301 272.493 482.065 277.655C474.245 276.396 466.981 273.145 459.483 270.576C449.779 267.252 446.391 268.759 442.57 278.178C435.11 296.564 427.986 315.087 420.68 333.536C416.297 344.605 411.833 355.643 406.951 368.033C380.815 364.714 354.88 366.913 329.043 366.526C321.73 366.417 314.414 366.47 305.292 366.223C306.911 361.88 311.691 362.486 316.221 362.455C335.255 362.323 354.29 362.32 373.324 362.175C395.746 362.005 403.306 355.596 408.638 330.926C410.173 326.465 410.768 324.323 411.363 322.181Z" fill="#ECA963"/>
<path d="M482.08 264.271C474.05 267.569 467.846 263.353 461.064 258.23C461.877 253.569 462.98 250.917 464.084 248.266C469.405 246.201 474.042 248.491 479.945 250.894C481.707 252.747 482.237 254.27 483.226 256.913C483.22 259.687 482.755 261.341 482.08 264.271Z" fill="#07A29C"/>
<path d="M241.406 30.0166C245.771 30.3057 248.484 30.2512 251.01 30.9121C254.264 31.7637 257.62 33.4546 257.084 37.449C256.469 42.031 252.68 41.2073 249.402 40.8103C241.564 39.8596 233.727 38.2515 225.876 38.165C196.675 37.8433 167.467 37.9565 138.263 38.061C127.697 38.0989 117.2 37.7493 106.722 40.9111C99.9641 42.9509 92.3816 43.0806 85.6775 40.0571C83.9429 34.3328 87.1474 31.7912 91.2603 31.0644C96.4343 30.1506 101.806 30.3384 107.094 30.0879C125.565 29.2136 143.954 29.7703 162.532 27.0373C179.22 24.5828 196.767 24.435 213.924 28.6465C222.122 30.6589 231.065 29.6384 241.406 30.0166Z" fill="#D4C0A5"/>
<path d="M134.32 145.829C116.885 145.041 101.134 148.041 85.9663 144.337C85.3423 139.684 87.631 138.548 90.3947 138.326C108.804 136.853 127.202 134.954 145.644 134.242C163.522 133.552 181.472 133.539 199.344 134.308C215.134 134.986 230.891 136.906 246.592 138.846C250.247 139.297 253.617 142.053 256.693 143.543C256.993 149.149 253.385 150.543 250.351 149.633C225.202 142.091 198.794 149.489 173.518 142.873C168.075 141.448 161.756 143.205 155.859 143.717C149.302 144.287 142.766 145.108 134.32 145.829Z" fill="#D4C0A5"/>
<path d="M219.473 65.8726C211.052 65.1214 204.522 64.0132 197.955 63.7246C186.09 63.2027 173.834 61.1961 162.403 63.3381C137.301 68.0418 112.341 64.6238 87.5346 66.26C85.2928 58.6858 90.367 58.4893 93.7306 58.3528C121.464 57.2256 148.98 51.9988 176.884 53.9927C182.825 54.4173 188.85 54.4346 194.788 53.9944C214.796 52.5112 234.185 58.169 253.992 58.9236C254.823 58.9551 255.589 60.6758 256.414 61.6428C256.552 65.3306 253.728 65.8489 251.192 65.8855C241.246 66.0291 231.296 65.9077 219.473 65.8726Z" fill="#D4C0A5"/>
<path d="M221.748 118.125C190.022 118.073 160.153 117.936 130.286 118.079C118.411 118.135 106.366 116.791 94.8175 121.064C94.2414 121.277 93.2741 121.373 92.9058 121.05C91.1332 119.492 88.9647 118.013 88.0627 116.001C87.6453 115.07 89.4854 112.077 90.8467 111.611C93.8868 110.573 97.2619 110.218 100.513 110.146C111.129 109.911 121.76 110.165 132.367 109.762C138.938 109.512 145.46 108.106 152.032 107.758C163.242 107.165 174.799 105.189 185.609 107.136C197.514 109.279 209.272 110.219 221.139 109.783C232.644 109.362 243.471 112.087 254.373 114.832C255.279 115.06 255.828 116.705 256.573 117.733C256.548 121.539 253.329 121.942 251.03 121.714C241.861 120.804 232.743 119.384 221.748 118.125Z" fill="#D4C0A5"/>
<path d="M238.659 193.695C245.86 194.459 252.28 192.646 257.094 200.509C245.61 203.258 235.473 202.168 225.312 200.807C218.141 199.846 210.964 198.264 203.778 198.196C173.274 197.905 142.764 197.953 112.259 198.179C105.711 198.228 99.1835 199.733 92.6203 200.113C91.1436 200.199 88.1593 198.136 88.274 197.488C88.6708 195.249 89.6956 192.725 91.3264 191.231C92.5427 190.117 95.0543 190.256 97.0068 190.143C100.314 189.951 103.636 189.942 106.951 189.958C124.814 190.048 142.556 187.816 160.291 186.901C177.154 186.032 194.289 190.47 211.573 190.193C220.02 190.058 228.506 192.365 238.659 193.695Z" fill="#D4C0A5"/>
<path d="M213.659 90.2496C189.22 90.1536 166.648 89.9041 144.084 90.2349C136.221 90.3499 128.381 91.9183 120.526 92.7869C108.871 94.0757 97.2196 95.1719 85.5576 92.2867C86.0455 90.1067 86.055 88.0662 86.6029 87.9095C99.2911 84.2815 112.093 81.782 125.461 81.952C151.344 82.2815 177.252 82.5386 203.116 81.7464C220.525 81.2132 237.312 84.7134 254.315 86.9864C255.143 87.0972 255.752 88.8409 256.461 89.826C246.972 95.5279 237.991 95.6368 213.659 90.2496Z" fill="#D4C0A5"/>
<path d="M127.946 170.151C120.184 171.077 114.321 172.101 108.425 172.878C100.735 173.892 92.96 175.406 84.4097 171.299C86.1737 169.148 87.0242 167.024 88.3741 166.636C99.2631 163.503 110.268 161.627 121.771 161.888C142.42 162.357 163.133 162.804 183.735 161.689C205.876 160.491 227.331 166.152 249.257 166.437C251.08 166.461 253.041 167.667 254.637 168.763C255.551 169.39 256.6 171.215 256.289 171.951C255.592 173.599 253.996 176.217 252.917 176.146C239.747 175.278 226.598 174.064 213.458 172.793C205.562 172.03 197.703 170.373 189.808 170.23C169.822 169.865 149.824 170.128 127.946 170.151Z" fill="#D4C0A5"/>
<path d="M438.375 29.9965C446.218 30.2592 452.244 30.1122 458.098 31.0468C459.615 31.289 461.204 34.818 461.566 37.0321C461.756 38.1962 459.411 40.9298 458.132 40.9804C452.246 41.2123 446.314 40.9682 440.433 40.4794C433.218 39.8795 426.047 38.2436 418.842 38.1479C394.927 37.8302 371.002 37.7377 347.089 38.0788C330.603 38.3136 313.923 35.9765 297.671 41.0788C296.487 41.4508 293.656 39.7399 293.207 38.4394C292.72 37.0307 293.608 34.307 294.831 33.341C296.793 31.7917 299.473 30.525 301.94 30.3395C323.022 28.7555 344.111 27.1737 365.226 26.1671C375.102 25.6964 384.85 27.0021 394.767 28.6901C408.356 31.0036 422.557 29.7277 438.375 29.9965Z" fill="#D4C0A5"/>
<path d="M310.146 220.324C317.006 219.132 322.254 218.419 327.526 218.021C331.505 217.721 335.694 218.563 339.48 217.634C368.42 210.534 397.797 214.863 426.95 214.355C438.698 214.15 450.513 217.259 462.267 219.055C463.057 219.175 463.595 220.947 464.685 222.618C463.279 223.606 461.861 225.467 460.44 225.468C442.571 225.487 424.808 227.23 406.85 223.218C396.153 220.828 384.4 222.817 373.149 223.38C365.252 223.775 357.421 225.475 349.524 225.891C337.625 226.519 325.77 225.556 313.933 229.13C307.58 231.049 299.842 231.87 292.863 227.3C299.238 222.322 299.238 222.322 310.146 220.324Z" fill="#D4C0A5"/>
<path d="M359.523 134.012C375.395 134.01 389.362 134.578 403.263 133.874C421.947 132.927 439.874 138.806 458.377 139.113C459.044 139.124 459.68 140.976 460.358 142.011C460.076 145.722 456.934 145.877 454.587 145.793C434.15 145.061 413.641 148.131 393.236 142.844C385.183 140.758 375.702 141.023 367.602 143.088C357.712 145.608 347.994 145.844 338.082 145.984C325.536 146.161 312.914 145.065 300.693 149.461C298.642 150.199 295.802 148.744 291.354 147.951C293.975 144.844 295.194 142.65 297.048 141.398C299.185 139.956 301.824 138.711 304.347 138.477C322.08 136.831 339.839 135.468 359.523 134.012Z" fill="#D4C0A5"/>
<path d="M343.44 117.999C330.939 118.139 320.453 117.727 310.048 121.167C304.89 122.872 298.515 123.564 292.658 118.691C294.151 117.071 295.082 115.131 296.489 114.682C307.912 111.029 319.602 109.496 331.669 109.856C342.204 110.17 352.595 109.651 363.169 107.18C372.609 104.975 383.416 104.554 392.751 106.861C408.585 110.775 424.346 109.381 440.154 109.998C446.11 110.231 452.128 110.053 457.978 110.962C459.554 111.207 461.815 114.913 461.568 116.732C461.335 118.449 457.943 121.317 456.406 121.046C419.526 114.531 382.358 119.549 343.44 117.999Z" fill="#D0BEA3"/>
<path d="M352.368 62.5351C335.013 66.7722 310.615 67.1975 293.827 63.8034C293.274 60.6601 294.581 58.4128 297.735 58.5031C316.306 59.0359 334.182 52.6638 352.933 53.7824C371.435 54.8859 390.145 52.9111 408.593 54.3986C424.992 55.7207 441.295 58.4502 457.818 58.8032C458.662 58.8213 459.471 60.4897 460.323 61.4182C460.485 65.0661 457.717 65.8315 455.174 65.7443C433.431 64.999 411.686 67.906 389.888 63.0222C378.509 60.4729 366.133 62.3703 352.368 62.5351Z" fill="#D0BEA3"/>
<path d="M463.058 246.73C462.98 250.917 461.877 253.569 460.24 257.173C454.065 256.914 448.423 255.704 441.387 254.608C436.781 250.571 432.252 250.04 427.457 250.048C404.816 250.083 381.91 247.951 359.62 250.747C341.976 252.961 323.845 251.874 306.503 257.184C302.591 258.381 297.849 256.863 291.789 256.491C294.05 253.445 294.872 251.083 296.147 250.806C316.191 246.455 336.259 242.062 356.92 242.019C385.553 241.959 414.188 241.916 442.82 242.102C449.309 242.143 456.238 240.441 463.058 246.73Z" fill="#D0BEA3"/>
<path d="M304.555 193.979C317.774 190.881 329.491 189.557 341.542 189.844C354.742 190.158 368.017 190.925 381.007 186.639C385.216 185.251 390.548 185.189 394.817 186.423C413.085 191.702 431.716 189.398 450.204 190.027C453.957 190.154 457.938 189.726 461.383 193.978C459.439 195.501 458.174 197.325 456.751 197.458C451.478 197.952 446.153 198.006 440.847 198.012C413.607 198.042 386.366 197.909 359.127 198.037C346.58 198.096 334.147 197.707 321.622 201.104C313.035 203.432 303.412 203.168 294.355 200.886C294.731 194.646 299.027 194.617 304.555 193.979Z" fill="#D0BEA3"/>
<path d="M449.948 173.908C435.416 169.832 422.168 169.692 408.867 170.017C405.543 170.098 402.214 170.072 398.889 170.011C365.064 169.393 331.33 169.94 298.042 177.144C296.595 177.457 293.17 175.37 293.261 174.917C293.725 172.582 294.815 170.269 296.152 168.258C296.774 167.322 298.412 166.708 299.651 166.588C316.097 164.992 332.531 162.608 349.012 162.198C377.598 161.488 406.216 162.098 434.819 161.981C444.202 161.942 453.078 163.203 460.851 168.553C459.934 175.023 455.196 173.378 449.948 173.908Z" fill="#D0BEA3"/>
<path d="M371.057 90.0098C361.776 90.0173 354.475 89.9595 347.176 90.0486C337.932 90.1614 328.824 89.9441 319.657 92.8894C310.461 95.8445 302.676 94.196 293.65 90.4853C294.161 89.4192 294.521 87.5408 295.213 87.4097C314.027 83.842 332.863 81.1909 352.182 81.8103C374.723 82.533 397.317 82.4443 419.865 81.8452C433.967 81.4707 447.163 84.8625 463.356 88.1841C459.603 91.0288 457.979 93.2654 456.132 93.468C450.885 94.0439 445.242 94.9546 440.297 93.6616C418.06 87.8472 395.469 90.7839 371.057 90.0098Z" fill="#D0BEA3"/>
<path d="M428.946 269.63C429.719 271.87 428.881 273.915 427.557 276.958C409.755 277.969 392.43 278.383 375.13 277.897C350.447 277.202 326.249 280.272 302.185 285.357C299.417 285.941 296.245 284.616 292.024 283.994C294.851 276.75 300.053 274.602 304.989 274.51C322.919 274.178 340.254 267.972 358.424 269.735C364.188 270.294 370.211 268.53 376.078 267.595C391.279 265.173 406.471 265.181 421.657 267.577C423.599 267.883 425.445 268.8 428.946 269.63Z" fill="#D4C0A5"/>
<path d="M417.98 294.411C419.693 296.293 419.453 297.962 419.024 300.889C401.636 302.473 384.265 300.165 367.4 305.695C365.583 306.291 363.421 306.059 361.442 305.909C340.05 304.29 319.385 309.774 298.418 312.295C295.557 305.423 296.138 302.883 301.312 302.519C316.487 301.453 331.225 296.22 346.663 297.803C369.507 291.277 392.873 294.794 417.98 294.411Z" fill="#D0BEA3"/>
<path d="M409.457 322.102C410.768 324.323 410.173 326.465 408.762 329.354C397.332 330.075 386.703 329.691 376.109 330.142C368.251 330.476 360.441 331.922 352.604 332.817C348.667 333.267 344.723 333.814 340.77 333.93C332.179 334.181 323.731 334.126 315.273 336.972C309.534 338.902 302.705 339.765 296.455 334.846C302.495 331.332 317.759 327.147 324.454 326.008C352.007 321.323 379.778 321.769 409.457 322.102Z" fill="#D0BEA3"/>
</svg>
