<svg width="523" height="628" viewBox="0 0 523 628" fill="none" xmlns="http://www.w3.org/2000/svg">
<path d="M520.872 276.831C521.449 284.083 522.518 291.334 522.527 298.587C522.643 393.864 522.62 489.141 522.581 584.418C522.579 589.733 522.647 595.131 521.806 600.349C519.185 616.589 508.686 626.182 492.17 627.757C488.206 628.136 484.181 627.909 480.184 627.909C334.27 627.914 188.356 627.914 42.442 627.909C38.4452 627.909 34.4213 628.121 30.4559 627.747C13.3175 626.13 2.28942 615.302 0.548458 598.369C0.141475 594.409 0.336788 590.381 0.33752 586.385C0.354854 484.445 0.383175 382.506 2.29284 278.48C7.33117 275.37 10.4203 274.005 13.6525 273.383C25.287 271.146 34.6437 274.996 41.2599 284.808C45.712 291.411 49.5365 298.438 54.0145 305.022C61.4381 315.935 69.1617 326.645 76.8273 338.789C86.0333 357.004 95.2281 373.831 108.572 388.969C121.97 388.445 135.221 387.927 150.28 387.775C236.478 388.217 320.87 388.301 405.262 388.312C407.164 388.312 409.067 387.473 412.675 386.623C416.318 380.097 420.463 372.67 425.626 364.572C429.795 358.266 432.945 352.629 437.096 346.337C438.71 343.454 439.323 341.225 440.697 338.217C442.009 336.12 442.562 334.802 444.312 332.754C455.557 316.677 465.908 301.519 475.533 285.913C480.923 277.174 487.638 270.515 497.118 266.611C501.079 264.98 504.73 265.186 508.242 267.766C512.418 270.834 516.659 273.813 520.872 276.831ZM236.701 476.621C236.843 479.785 236.249 484.237 240.22 484.613C254.892 486.003 269.649 487.018 285.043 483.664C285.043 479.567 285.043 476.396 286.725 470.56C287.218 462.785 287.71 455.011 288.212 447.089C290.715 446.309 292.517 445.682 294.354 445.186C305.911 442.064 307.219 440.514 307.589 429.221C307.655 427.236 307.679 425.243 307.578 423.261C307.008 412.099 304.174 408.955 293.372 408.573C284.11 408.245 274.828 408.452 265.555 408.46C252.971 408.472 240.369 408.168 227.812 408.78C224.336 408.95 219.29 411.019 217.912 413.72C213.881 421.623 214.44 430.547 217.213 438.783C219.562 445.759 226.822 444.509 232.429 445.857C233.484 446.111 234.26 447.527 235.627 448.855C236.301 456.686 230.705 465.491 236.701 476.621Z" fill="#7F5127"/>
<path d="M1.3677 237.109C1.12722 200.556 -0.187719 163.97 0.935572 127.46C2.16238 87.565 35.5513 68.8706 62.063 69.1665C111.938 69.7234 161.822 69.3555 213.736 71.0877C215.944 78.7283 215.825 84.6812 216.377 90.5711C216.945 96.6258 220.433 100.245 226.76 100.328C249.82 100.633 272.889 100.685 295.948 100.386C302.814 100.297 306.221 96.1758 306.935 88.8333C307.571 82.2964 307.841 75.7244 308.272 69.1678C357.42 69.2159 406.569 69.3377 455.717 69.2469C465.105 69.2295 474.362 69.6748 483.112 73.2391C504.449 81.9297 517.736 97.3055 520.898 120.48C521.791 127.024 521.782 133.722 521.802 140.351C521.895 171.565 521.855 202.78 519.668 235.499C462.846 236.98 408.218 236.924 353.59 236.973C346.942 236.979 340.294 237.543 332.448 237.58C328.792 237.207 326.336 237.103 323.95 236.983C324.019 236.969 324.025 237.111 323.963 235.932C322.552 234.181 321.202 233.609 319.934 233.017C320.014 232.997 319.947 233.149 320.119 231.737C313.94 223.783 307.866 216.928 301.068 210.888C299.045 209.092 294.992 209.581 291.942 209.003C292.015 208.983 291.987 209.131 292.178 207.716C288.198 197.61 280.476 192.275 273.15 186.771C270.889 185.073 267.017 185.519 263.954 184.973C264.025 184.962 264.034 185.105 263.967 183.928C262.551 182.178 261.203 181.606 259.934 181.015C260.014 180.996 259.949 181.147 260.136 179.795C257.635 175.104 255.267 171.424 252.172 168.518C248.752 165.306 247.333 166.054 241.773 172.502C240.973 172.817 239.329 173.323 237.942 173.05C232.943 171.37 229.33 169.963 225.158 168.339C204.489 191.478 184.172 214.224 161.989 236.97C107.205 237.016 54.2864 237.062 1.3677 237.109Z" fill="#7E4F25"/>
<path d="M333.646 237.849C340.294 237.543 346.942 236.979 353.59 236.973C408.218 236.924 462.846 236.98 519.134 237.061C521.156 249.193 521.517 261.268 521.375 275.088C516.659 273.814 512.418 270.834 508.242 267.766C504.73 265.186 501.079 264.981 497.118 266.612C487.638 270.515 480.923 277.174 475.533 285.913C465.907 301.519 455.556 316.678 443.177 332.074C436.067 327.92 431.6 323.259 426.385 319.693C423.586 317.779 419.501 317.744 416.003 316.924C416.009 316.987 416.136 316.985 416.162 315.75C414.766 313.985 413.344 313.454 411.986 312.934C412.051 312.944 412.074 313.073 412.305 311.661C406.092 303.748 399.907 296.949 393.042 290.927C390.994 289.131 387.036 289.511 384.007 288.913C384.061 288.932 384.112 289.034 384.111 287.812C382.702 286.049 381.294 285.51 379.958 284.969C380.031 284.967 380.02 285.111 380.233 283.702C374.013 275.812 367.839 269.035 360.99 263.028C358.934 261.225 354.994 261.572 351.981 260.94C352.046 260.947 352.073 261.074 352.32 259.698C346.26 251.498 339.953 244.673 333.646 237.849Z" fill="#6A3E14"/>
<path d="M0.986287 238.881C54.2863 237.062 107.205 237.016 161.477 238.198C145.626 259.413 128.54 279.502 111.178 299.35C99.9133 312.229 88.2461 324.757 76.7588 337.441C69.1616 326.646 61.4379 315.936 54.0144 305.022C49.5363 298.438 45.7119 291.411 41.2597 284.809C34.6435 274.996 25.2868 271.147 13.6523 273.384C10.4201 274.005 7.33101 275.371 2.69844 276.639C1.01534 264.806 0.810018 252.729 0.986287 238.881Z" fill="#6A3E14"/>
<path d="M306.859 68.4654C307.841 75.7244 307.571 82.2964 306.935 88.8333C306.221 96.1758 302.814 100.297 295.948 100.386C272.889 100.685 249.82 100.633 226.76 100.328C220.433 100.245 216.945 96.6258 216.377 90.5711C215.825 84.6812 215.944 78.7283 215.571 71.0899C221.515 67.0494 227.657 64.7225 234.752 62.034C237.297 50.7325 236.343 38.6951 235.765 26.9085C234.755 6.29448 242.866 0.239303 263.447 0.738815C277.59 1.08232 288.635 8.74297 288.025 25.4026C287.589 37.3057 287.94 49.2381 287.94 61.639C294.483 63.9278 299.965 65.8455 306.859 68.4654ZM297.289 78.0704C294.983 77.1458 292.453 75.1656 290.431 75.5926C288.385 76.0252 285.941 78.5574 285.279 80.6731C284.157 84.2623 286.631 87.3052 289.968 88.0337C291.988 88.4749 294.879 87.1023 296.67 85.6631C297.873 84.6968 297.834 82.1858 297.289 78.0704ZM230.663 88.6043C232.325 87.6978 234.937 87.1431 235.433 85.8042C236.226 83.6661 236.518 80.3143 235.334 78.7664C234.185 77.2627 230.683 76.4734 228.62 76.99C224.973 77.9036 223.711 81.0289 225.195 84.6763C225.659 85.8177 226.796 86.6853 230.663 88.6043Z" fill="#E4E4E4"/>
<path d="M424.607 365.242C420.462 372.67 416.317 380.097 412.675 386.623C409.067 387.473 407.164 388.312 405.262 388.312C320.87 388.302 236.478 388.217 149.908 386.561C143.826 377.733 137.461 373.16 131.013 368.305C119.422 359.576 108.973 349.495 99.7942 336.994C103.676 332.439 106.997 328.435 110.432 324.531C122.271 311.079 134.247 297.746 145.989 284.21C160.758 267.185 175.364 250.018 190.008 232.884C195.171 226.842 200.184 220.671 205.363 214.643C211.721 207.241 217.876 199.581 226.994 193.986C251.561 215.753 275.371 236.851 299.182 257.947C301.173 259.711 303.129 261.517 305.178 263.21C318.458 274.183 331.974 284.881 344.994 296.153C359.545 308.749 373.495 322.039 388.003 334.687C399.98 345.129 412.389 355.076 424.607 365.242ZM174.362 361.407C171.966 365.815 173.449 369.56 177.559 371.222C180.227 372.3 184.654 372.467 186.709 370.927C191.416 367.402 195.295 362.708 199.238 358.249C202.742 354.286 205.698 349.837 209.213 345.884C222.007 331.501 235.048 317.338 247.766 302.889C255.212 294.429 262.394 285.719 269.268 276.793C270.5 275.193 270.704 271.039 269.529 269.74C267.568 267.573 264.031 265.534 261.306 265.712C258.422 265.9 255.118 268.204 253.025 270.514C244.121 280.344 235.614 290.534 226.93 300.564C210 320.119 193.049 339.656 174.362 361.407ZM149.96 317.096C155.418 311.302 161.096 305.698 166.291 299.678C179.674 284.169 192.888 268.513 206.081 252.842C214.166 243.239 222.173 233.566 229.954 223.717C230.729 222.737 229.68 220.317 229.368 217.616C221.728 219.82 217.926 225.289 213.72 230.213C207.715 237.246 201.797 244.354 195.728 251.332C192.682 254.834 189.248 258 186.228 261.522C172.035 278.079 157.863 294.654 143.815 311.334C137.858 318.408 132.152 325.699 126.489 333.014C124.721 335.298 124.65 337.777 128.014 339.767C138.254 336.606 142.004 326.755 149.96 317.096ZM235.956 330.799C227.825 340.332 219.385 349.623 211.678 359.488C206.951 365.539 207.873 366.85 217.782 372.067C220.071 370.147 222.84 368.31 225.009 365.926C238.337 351.275 251.672 336.626 264.657 321.673C267.611 318.272 269.703 313.854 271.172 309.555C271.826 307.644 270.638 303.933 269.028 302.746C267.398 301.544 264.182 302.216 261.722 302.536C260.561 302.687 259.336 303.754 258.493 304.716C251.547 312.642 244.683 320.64 235.956 330.799Z" fill="#F6AF33"/>
<path d="M425.626 364.573C412.389 355.076 399.98 345.129 388.003 334.687C373.495 322.039 359.545 308.749 344.994 296.153C331.974 284.881 318.458 274.183 305.178 263.21C303.129 261.517 301.173 259.711 299.182 257.947C275.371 236.851 251.561 215.753 226.994 193.986C217.876 199.581 211.721 207.241 205.363 214.643C200.184 220.671 195.171 226.842 190.008 232.884C175.364 250.018 160.758 267.185 145.989 284.21C134.247 297.746 122.271 311.079 110.432 324.531C106.997 328.435 103.676 332.439 99.7942 336.994C108.973 349.495 119.422 359.576 131.013 368.305C137.461 373.16 143.826 377.733 148.101 386.194C135.221 387.927 121.969 388.446 108.572 388.969C95.228 373.832 86.0332 357.004 76.8271 338.79C88.2461 324.757 99.9133 312.229 111.178 299.35C128.54 279.502 145.626 259.413 163.342 238.198C184.172 214.224 204.489 191.478 225.158 168.339C229.33 169.963 232.943 171.37 238.211 174.381C242.454 178.953 244.732 182.276 247.674 184.836C298.199 228.797 348.763 272.715 399.427 316.516C411.448 326.909 423.862 336.845 436.096 346.992C432.945 352.629 429.795 358.266 425.626 364.573Z" fill="#F29304"/>
<path d="M237.223 473.267C230.705 465.491 236.301 456.686 235.627 448.855C234.26 447.528 233.484 446.111 232.429 445.857C226.822 444.509 219.562 445.759 217.213 438.783C214.44 430.547 213.881 421.623 217.912 413.72C219.29 411.019 224.336 408.95 227.812 408.78C240.369 408.168 252.971 408.472 265.555 408.46C274.828 408.452 284.11 408.245 293.372 408.573C304.174 408.956 307.008 412.099 307.578 423.261C307.679 425.243 307.655 427.237 307.589 429.221C307.219 440.514 305.91 442.064 294.354 445.186C292.517 445.682 290.715 446.309 288.212 447.089C287.71 455.011 287.218 462.785 283.977 471.847C266.56 473.178 251.891 473.223 237.223 473.267ZM226.75 427.148C227.795 430.388 229.506 433.426 233.266 431.23C234.697 430.395 235.778 426.576 235.078 424.957C233.49 421.285 230.467 421.4 226.75 427.148ZM295.677 424.126C292.771 421.27 289.586 420.838 287.948 424.874C287.242 426.615 288.373 430.599 289.869 431.446C293.794 433.669 295.654 430.677 295.677 424.126Z" fill="#C6C6C6"/>
<path d="M437.096 346.338C423.862 336.846 411.448 326.909 399.427 316.516C348.763 272.715 298.199 228.797 247.674 184.836C244.732 182.276 242.454 178.953 239.598 174.654C239.329 173.323 240.973 172.817 243.177 172.959C250.238 175.783 255.093 178.465 259.948 181.147C259.948 181.147 260.014 180.996 260.053 182.151C261.407 183.906 262.72 184.506 264.034 185.105C264.034 185.105 264.025 184.962 264.275 186.288C273.45 195.08 280.049 205.512 291.987 209.131C291.987 209.131 292.015 208.983 292.228 210.33C301.354 219.161 307.857 229.733 319.947 233.149C319.947 233.149 320.014 232.997 320.05 234.154C321.399 235.911 322.712 236.511 324.025 237.111C324.025 237.111 324.019 236.969 324.267 238.301C333.471 247.074 339.999 257.639 352.073 261.074C352.073 261.074 352.046 260.947 352.213 262.286C357.704 268.593 362.797 273.847 368.44 278.422C371.86 281.194 376.131 282.917 380.02 285.111C380.02 285.111 380.031 284.967 380.034 286.139C381.395 287.885 382.753 288.46 384.112 289.034C384.112 289.034 384.061 288.932 384.266 290.25C393.412 299.07 399.967 309.634 412.074 313.073C412.074 313.073 412.051 312.944 412.079 314.091C413.45 315.82 414.793 316.403 416.136 316.985C416.136 316.985 416.009 316.987 416.295 318.244C424.366 325.999 432.151 332.498 439.937 338.996C439.323 341.225 438.71 343.454 437.096 346.338Z" fill="#F0DCBD"/>
<path d="M236.962 474.944C251.891 473.223 266.56 473.178 283.136 473.179C285.043 476.396 285.043 479.567 285.043 483.664C269.649 487.018 254.892 486.003 240.22 484.613C236.249 484.237 236.843 479.785 236.962 474.944Z" fill="#E4E4E4"/>
<path d="M440.697 338.217C432.151 332.498 424.366 325.999 416.288 318.18C419.501 317.744 423.586 317.779 426.385 319.693C431.6 323.259 436.067 327.92 441.98 332.805C442.562 334.802 442.009 336.12 440.697 338.217Z" fill="#F29304"/>
<path d="M292.178 207.716C280.049 205.512 273.45 195.08 264.205 186.299C267.017 185.519 270.889 185.073 273.15 186.771C280.476 192.275 288.198 197.61 292.178 207.716Z" fill="#F29304"/>
<path d="M320.119 231.737C307.857 229.733 301.354 219.161 292.155 210.35C294.992 209.581 299.045 209.091 301.068 210.888C307.866 216.928 313.94 223.782 320.119 231.737Z" fill="#F29304"/>
<path d="M352.32 259.698C339.999 257.639 333.471 247.074 324.197 238.316C326.336 237.103 328.792 237.207 332.447 237.58C339.953 244.673 346.26 251.498 352.32 259.698Z" fill="#F29304"/>
<path d="M260.136 179.795C255.093 178.465 250.238 175.783 243.978 172.643C247.333 166.054 248.752 165.306 252.172 168.518C255.267 171.424 257.635 175.104 260.136 179.795Z" fill="#F29304"/>
<path d="M263.967 183.928C262.72 184.506 261.406 183.906 259.974 182.17C261.203 181.606 262.551 182.178 263.967 183.928Z" fill="#F29304"/>
<path d="M323.963 235.932C322.712 236.511 321.399 235.911 319.969 234.173C321.202 233.609 322.552 234.181 323.963 235.932Z" fill="#F29304"/>
<path d="M412.305 311.661C399.967 309.634 393.412 299.07 384.212 290.231C387.036 289.511 390.994 289.131 393.042 290.927C399.907 296.949 406.092 303.748 412.305 311.661Z" fill="#F29304"/>
<path d="M380.233 283.702C376.131 282.916 371.86 281.194 368.44 278.422C362.797 273.847 357.704 268.593 352.148 262.279C354.994 261.572 358.934 261.225 360.99 263.028C367.839 269.034 374.013 275.812 380.233 283.702Z" fill="#F29304"/>
<path d="M416.162 315.75C414.793 316.403 413.45 315.82 412.014 314.081C413.344 313.454 414.766 313.985 416.162 315.75Z" fill="#F29304"/>
<path d="M384.111 287.811C382.753 288.459 381.395 287.885 379.962 286.14C381.294 285.509 382.702 286.049 384.111 287.811Z" fill="#F29304"/>
<path d="M297.82 79.2182C297.834 82.1857 297.873 84.6967 296.67 85.663C294.879 87.1022 291.988 88.4748 289.968 88.0336C286.631 87.3051 284.157 84.2621 285.279 80.673C285.941 78.5573 288.385 76.0251 290.431 75.5925C292.453 75.1655 294.983 77.1457 297.82 79.2182Z" fill="#7B7A7B"/>
<path d="M229.144 88.1411C226.796 86.6853 225.659 85.8176 225.195 84.6763C223.711 81.0288 224.973 77.9035 228.62 76.99C230.683 76.4734 234.185 77.2627 235.334 78.7663C236.518 80.3142 236.226 83.666 235.433 85.8042C234.937 87.143 232.325 87.6977 229.144 88.1411Z" fill="#7B7A7B"/>
<path d="M175.234 360.304C193.049 339.656 210 320.119 226.93 300.564C235.614 290.534 244.121 280.344 253.025 270.514C255.118 268.204 258.422 265.9 261.306 265.712C264.031 265.534 267.568 267.573 269.529 269.741C270.704 271.039 270.501 275.193 269.268 276.793C262.394 285.719 255.212 294.43 247.766 302.889C235.048 317.338 222.007 331.501 209.213 345.884C205.698 349.837 202.742 354.286 199.238 358.249C195.295 362.709 191.416 367.402 186.709 370.927C184.654 372.467 180.227 372.3 177.559 371.222C173.449 369.56 171.966 365.815 175.234 360.304Z" fill="#F29304"/>
<path d="M148.989 318.137C142.004 326.755 138.254 336.606 128.014 339.767C124.65 337.777 124.721 335.298 126.489 333.014C132.152 325.699 137.858 318.408 143.815 311.334C157.863 294.654 172.035 278.079 186.228 261.522C189.248 258 192.682 254.834 195.728 251.332C201.797 244.354 207.715 237.246 213.72 230.213C217.926 225.289 221.728 219.82 229.368 217.616C229.68 220.317 230.729 222.737 229.954 223.717C222.173 233.566 214.166 243.239 206.081 252.842C192.888 268.513 179.674 284.169 166.291 299.678C161.096 305.698 155.418 311.302 148.989 318.137Z" fill="#F29304"/>
<path d="M236.875 329.707C244.683 320.64 251.547 312.642 258.493 304.716C259.336 303.754 260.561 302.687 261.722 302.536C264.182 302.216 267.398 301.544 269.028 302.746C270.638 303.933 271.826 307.644 271.172 309.555C269.703 313.854 267.611 318.272 264.657 321.673C251.672 336.626 238.337 351.275 225.008 365.926C222.84 368.31 220.071 370.147 217.782 372.067C207.873 366.85 206.951 365.539 211.678 359.488C219.384 349.623 227.825 340.332 236.875 329.707Z" fill="#F29304"/>
<path d="M227.237 425.739C230.467 421.4 233.49 421.285 235.078 424.957C235.778 426.576 234.697 430.395 233.266 431.23C229.506 433.426 227.795 430.388 227.237 425.739Z" fill="#5A5A5A"/>
<path d="M296.112 425.614C295.654 430.677 293.794 433.669 289.869 431.446C288.373 430.599 287.242 426.615 287.948 424.874C289.585 420.838 292.771 421.271 296.112 425.614Z" fill="#7B7A7B"/>
</svg>
