<svg width="690" height="556" viewBox="0 0 690 556" fill="none" xmlns="http://www.w3.org/2000/svg">
<path d="M300.524 452.367C295.221 452.658 289.918 453.201 284.615 453.204C196.693 453.257 108.772 453.253 20.8506 453.215C14.9619 453.212 9.07327 452.826 2.76907 452.604C-0.834693 445.085 0.700219 437.666 0.689721 430.589C0.559838 342.002 0.60476 253.415 0.60476 164.827C0.60476 117.536 0.60476 70.2452 0.60476 22.9542C0.60476 16.3997 0.60476 9.84527 0.60476 2.20098C6.28518 1.57586 10.7049 0.667166 15.125 0.665335C109.04 0.626029 202.956 0.688651 298.743 2.47576C300.565 6.96966 300.515 9.71905 298.743 12.6882C281.834 11.8334 266.662 10.3482 251.455 9.75811C195.768 7.59685 140.225 11.8169 84.6411 14.0776C79.4026 14.2906 74.2149 15.7457 67.3467 16.374C60.1392 16.5241 54.5886 16.9244 47.2998 17.1271C39.1746 17.5696 32.2578 15.4097 25.6509 20.7204C25.5003 27.6851 25.2105 34.9234 25.2075 42.1618C25.1758 126.028 25.187 209.893 25.1875 293.759C25.1878 335.692 25.1348 377.625 25.2617 419.558C25.2771 424.629 26.2666 429.697 26.8689 435.373C32.6643 435.76 37.2193 436.326 41.7747 436.329C110.997 436.385 180.22 436.398 249.442 436.307C254.72 436.3 259.996 435.442 266.674 435.296C269.886 435.105 271.697 434.598 274.572 434.577C277.176 434.945 278.716 434.828 281.832 435.301C286.68 435.543 289.953 435.195 294.373 435.133C297.027 435.827 298.534 436.234 300.195 438.21C300.407 443.974 300.465 448.17 300.524 452.367Z" fill="#E63A30"/>
<path d="M349.3 1.44705C354.6 1.16372 359.899 0.636621 365.199 0.633569C453.047 0.582666 540.895 0.59768 628.742 0.598046C634.635 0.598046 640.528 0.598046 646.295 0.598046C650.728 8.6459 648.954 16.1051 648.964 23.1663C649.104 126.321 649.082 229.475 649.048 332.629C649.035 371.227 648.891 409.825 647.515 449.393C638.587 436.623 630.951 422.882 623.707 407.287C624.206 385.107 624.473 364.78 624.366 344.455C624.29 330.057 623.708 315.66 623.771 299.669C631.136 278.682 634.59 258.861 633.523 238.102C632.763 223.314 627.079 209.987 623.795 194.298C626.065 100.623 625.318 35.583 622.039 18.9738C615.38 16.1034 608.122 17.0658 599.284 17.1162C592.076 16.7907 586.51 16.772 579.316 16.3626C541.295 13.8367 504.928 10.8714 468.504 9.80947C434.734 8.82473 400.862 7.85488 367.146 12.1074C361.268 12.849 355.241 12.4074 349.275 11.1286C349.278 6.97891 349.289 4.21304 349.3 1.44705Z" fill="#E63A30"/>
<path d="M623.315 409.141C630.951 422.882 638.587 436.623 647.171 451.174C658.192 469.971 668.257 487.961 678.344 505.939C681.276 511.164 684.644 516.182 687.157 521.598C691.113 530.121 689.248 537.125 681.09 542.292C673.812 546.902 666.057 550.887 658.169 554.371C651.574 557.284 644.898 555.02 640.663 548.996C638.005 545.215 635.989 540.952 633.944 536.778C623.107 514.66 612.392 492.482 601.541 470.37C598.913 465.015 595.936 459.83 591.945 452.21C587.99 444.971 585.209 440.091 582.129 434.09C580.587 430.276 579.345 427.582 577.803 423.455C571.971 409.756 566.439 397.49 561.7 384.088C573.452 377.402 583.25 369.028 597.618 369.734C606.947 383.371 615.131 396.256 623.315 409.141Z" fill="#3D6F87"/>
<path d="M582.428 435.211C585.209 440.091 587.99 444.971 591.063 451.262C581.427 452.861 571.501 453.214 561.574 453.215C492.025 453.225 422.476 453.163 351.072 451.171C349.382 444.984 349.545 440.751 350.418 436C351.126 435.482 352.616 434.545 354.442 435.137C358.908 435.876 361.548 436.148 364.188 436.149C431.661 436.166 499.135 436.176 566.608 436.109C571.882 436.104 577.154 435.524 582.428 435.211Z" fill="#E63A30"/>
<path d="M349.709 436.517C349.545 440.751 349.382 444.984 349.246 450.806C334.27 452.624 319.265 452.854 302.392 452.726C300.465 448.17 300.406 443.974 301.967 437.851C310.65 435.728 317.713 435.531 326.519 435.676C335.41 436.183 342.56 436.35 349.709 436.517Z" fill="#6A3E14"/>
<path d="M347.452 1.09614C349.289 4.21284 349.278 6.97871 347.787 11.6187C339.16 14.9758 332.014 16.4588 323.364 17.5147C314.729 15.5478 307.597 14.0081 300.465 12.4683C300.515 9.71894 300.565 6.96955 300.553 2.84748C315.528 1.23164 330.566 0.988598 347.452 1.09614Z" fill="#6A3E14"/>
<path d="M298.743 12.6882C307.597 14.0083 314.729 15.548 323.391 19.3254C324.956 100.853 325.035 180.143 325.016 259.434C325.002 318.067 324.861 376.701 324.777 435.335C317.713 435.531 310.65 435.728 301.814 436.283C298.534 436.234 297.027 435.827 293.811 434.547C291.209 433.026 290.226 432.579 288.481 431.575C285.03 429.022 282.849 429.768 280.834 432.954C280.554 433.507 280.257 434.712 280.257 434.712C278.716 434.828 277.176 434.945 274.401 433.401C272.4 426.687 269.349 424.898 262.956 425.59C253.324 426.6 245.239 427.695 236.734 427.232C234.257 424.233 232.208 421.546 230.143 421.533C185.631 421.26 141.116 421.263 96.6023 421.285C91.8181 421.288 89.6494 424.438 87.3918 428.654C80.2703 427.472 74.5972 426.416 68.96 423.45C68.998 286.568 69.0007 151.596 69.0034 16.6241C74.2148 15.7457 79.4026 14.2906 84.6411 14.0776C140.225 11.817 195.768 7.5969 251.455 9.75816C266.662 10.3482 281.834 11.8335 298.743 12.6882ZM229.146 158.891C229.146 122.948 229.219 87.0056 229.067 51.0639C229.042 45.31 230.71 38.9443 224.784 33.75C220.737 33.5162 216.121 33.2812 211.51 32.9783C178.881 30.8342 146.589 36.323 114.096 37.3452C103.74 37.6709 100.888 41.174 100.844 53.0154C100.675 99.6065 100.725 146.199 100.903 192.79C100.917 196.487 102.534 200.178 103.509 204.305C111.017 204.305 118.013 205.729 124.117 204.002C135.954 200.653 147.826 201.186 159.744 201.07C178.379 200.889 197.018 201.079 215.653 200.912C219.448 200.878 223.235 199.957 227.546 199.375C230.471 186.612 228.586 174.645 229.146 158.891ZM182.96 380.907C162.299 380.978 141.637 380.963 120.979 381.188C116.374 381.238 111.635 381.614 107.225 382.819C103.937 383.717 101.802 386.548 103.395 390.765C108.578 394.611 114.733 392.918 120.524 392.94C155.18 393.073 189.837 392.954 224.493 393.06C230.461 393.079 236.504 393.298 242.379 394.248C260.014 397.1 277.575 400.406 295.183 403.431C300.269 404.304 301.095 403.274 302.725 395.255C293.367 389.156 282.473 389.752 272.065 387.967C250.484 384.265 228.912 380.854 206.932 381.003C200.268 381.048 193.603 380.947 182.96 380.907ZM119.13 288.85C113.963 289.569 108.77 290.156 103.654 291.143C102.848 291.298 101.721 293.391 101.915 294.351C102.273 296.124 103.19 298.826 104.427 299.174C107.468 300.03 110.86 300.165 114.046 299.877C121.921 299.164 129.752 297.319 137.616 297.231C166.875 296.9 196.14 297.021 225.403 297.15C231.347 297.177 237.326 297.693 243.224 298.477C258.278 300.476 273.283 302.842 288.337 304.848C291.592 305.282 295.061 305.27 298.252 304.603C300.238 304.188 301.887 302.158 304.963 299.929C300.444 297.431 297.757 294.927 294.753 294.459C281.05 292.321 267.271 290.64 253.491 289.036C247.571 288.347 241.568 288.388 235.627 287.839C227.085 287.052 218.585 285.574 210.032 285.218C198.745 284.747 187.424 285.023 176.118 285.075C158.227 285.158 140.25 284.084 119.13 288.85ZM171.717 221.163C150.614 223.754 129.47 225.635 108.172 225.483C104.59 225.458 101.39 227.607 102.204 231.591C102.595 233.505 105.438 236.076 107.4 236.296C113.319 236.959 119.706 237.929 125.275 236.426C144.341 231.278 163.704 234.119 182.893 232.949C212.92 231.117 242.573 236.21 272.436 237.315C276.331 237.459 280.13 239.331 284.046 239.944C290.452 240.946 297.022 242.622 302.963 238.66C303.801 231.729 299.393 229.636 294.615 229.508C277.334 229.047 260.586 223.175 243.105 224.754C239.205 225.106 235.179 224.152 231.218 223.733C223.325 222.899 215.454 221.587 207.542 221.266C196.895 220.836 186.218 221.156 171.717 221.163ZM136.349 317.161C126.546 318.553 116.74 319.927 106.941 321.344C101.98 322.062 101.347 324.601 104.376 330.791C113.124 330.212 121.667 329.413 130.226 329.141C140.178 328.825 150.145 328.922 160.105 328.924C201.795 328.935 243.558 327.363 284.732 336.556C290.598 337.866 297.522 338.801 303.707 334.195C300.675 327.638 295.649 326.176 290.548 325.462C285.309 324.728 279.872 325.298 274.675 324.403C245.291 319.341 215.776 316.293 185.904 316.976C170.638 317.326 155.359 317.093 136.349 317.161ZM163.196 265.01C181.191 265.026 199.206 264.517 217.175 265.207C235.047 265.893 252.881 267.697 270.715 269.212C274.646 269.546 278.472 271.046 282.404 271.438C288.307 272.026 294.26 272.226 300.194 272.29C301.109 272.3 302.795 270.713 302.809 269.844C302.837 268.069 302.518 265.614 301.346 264.648C299.411 263.052 296.699 261.544 294.294 261.51C276.997 261.27 260.272 255.118 242.784 256.74C238.896 257.101 234.872 256.062 230.916 255.619C223.686 254.81 216.48 253.611 209.229 253.195C175.931 251.286 142.843 255.103 109.695 257.204C107.795 257.325 105.549 257.815 104.193 258.981C102.962 260.04 102.365 262.222 102.191 263.979C102.093 264.968 103.308 266.925 104.115 267.03C109.282 267.703 114.966 269.514 119.612 268.101C132.741 264.107 146.031 265.541 163.196 265.01ZM298.032 360.734C294.889 359.689 291.814 358.07 288.592 357.687C254.517 353.627 220.614 347.691 186.06 348.88C170.818 349.405 155.533 349.436 140.292 348.937C128.852 348.562 117.917 350.581 106.977 353.315C103.819 354.104 102.766 355.946 104.103 360.503C110.078 360.683 116.555 361.039 123.033 361.046C156.204 361.084 189.376 360.833 222.544 361.148C231.05 361.229 239.543 362.972 248.036 363.996C261.786 365.654 275.51 367.565 289.29 368.903C293.689 369.33 298.231 368.28 303.679 367.825C302.423 365.032 301.689 363.4 298.032 360.734ZM256.293 33.0251C254.314 33.2152 251.914 32.7774 250.459 33.7513C248.57 35.0171 246.131 37.5494 246.322 39.2709C246.528 41.1311 249.347 42.8946 251.32 44.2818C252.269 44.9485 253.891 44.7104 255.213 44.7831C270.402 45.6172 285.686 43.7228 300.823 47.3869C304.805 48.3511 308.013 44.6506 306.128 38.4233C290.984 36.6568 275.823 31.7799 256.293 33.0251ZM291.333 111.822C293.29 112.07 295.246 112.509 297.204 112.523C300.805 112.547 303.947 111.242 304.151 107.228C304.356 103.215 301.28 101.788 297.785 101.212C290.67 100.039 283.592 98.2312 276.436 97.8368C267.299 97.3334 258.092 97.8115 248.94 98.3189C247.84 98.38 246.107 101.258 246.102 102.835C246.097 104.408 247.552 106.723 248.984 107.394C251.254 108.457 254.023 108.642 256.606 108.813C267.102 109.507 277.608 110.054 291.333 111.822ZM277.969 77.0657C285.08 78.0709 292.171 79.409 299.316 79.8222C300.893 79.9132 303.219 76.969 304.097 74.9443C304.528 73.9516 302.678 70.7156 301.443 70.4525C291.857 68.4104 282.224 66.3282 272.495 65.306C265.347 64.5548 258 65.0475 250.816 65.749C249.026 65.9237 246.245 69.0456 246.244 70.8147C246.242 72.6297 248.945 75.8413 250.712 76.0226C258.552 76.827 266.48 76.7622 277.969 77.0657ZM245.845 134.914C246.785 139.935 250.625 140.592 254.734 140.77C268.513 141.366 282.476 139.858 295.907 144.505C297.039 144.897 298.923 144.828 299.719 144.131C301.488 142.579 303.41 140.674 304.027 138.551C304.348 137.446 302.199 134.416 300.882 134.226C287.253 132.266 273.593 130.377 259.879 129.233C255.595 128.876 251.12 130.83 245.845 134.914ZM266.474 161.136C260.604 161.47 254.699 161.555 248.89 162.344C247.698 162.506 246.076 165.306 246.085 166.882C246.094 168.458 247.575 170.514 249.006 171.459C250.515 172.456 252.715 172.652 254.635 172.743C267.076 173.334 279.698 172.029 291.745 176.59C292.912 177.031 294.356 176.744 295.672 176.783C300.608 176.93 304.808 174.135 304.235 170.869C303.573 167.086 300.723 165.707 297.207 165.216C288.131 163.949 279.065 162.615 266.474 161.136ZM293.29 197.127C287.438 196.293 281.611 195.138 275.729 194.703C267.229 194.075 258.683 193.692 250.173 193.906C248.729 193.943 246.737 197.346 246.229 199.487C245.952 200.654 247.972 202.941 249.481 203.799C251.08 204.709 253.297 204.742 255.252 204.782C267.774 205.042 280.349 204.546 292.499 208.647C294.266 209.244 296.522 209.043 298.373 208.546C300.084 208.087 302.961 206.563 302.869 205.809C302.589 203.527 301.339 201.242 300.012 199.263C299.387 198.333 297.723 198.099 293.29 197.127Z" fill="#FCE3C5"/>
<path d="M68.9243 425.361C74.5972 426.416 80.2703 427.472 89.2813 428.757C140.798 428.921 188.976 428.855 237.154 428.79C245.239 427.695 253.324 426.6 263.085 426.741C264.932 430.311 265.103 432.645 265.273 434.979C259.996 435.442 254.72 436.301 249.442 436.308C180.22 436.398 110.997 436.386 41.7747 436.33C37.2193 436.326 32.6643 435.76 26.8689 435.373C26.2666 429.697 25.2771 424.629 25.2617 419.558C25.1348 377.625 25.1878 335.692 25.1875 293.759C25.187 209.894 25.1758 126.028 25.2075 42.162C25.2105 34.9236 25.5003 27.6854 25.6509 20.7206C32.2578 15.41 39.1746 17.5699 47.271 18.976C49.1167 154.874 49.2493 288.725 49.4536 422.576C49.4553 423.778 50.4168 424.978 51.2346 426.891C57.0977 429.599 63.1775 431.143 68.9243 425.361Z" fill="#CCBCA2"/>
<path d="M68.96 423.45C63.1775 431.143 57.0977 429.599 51.2346 426.891C50.4167 424.978 49.4553 423.778 49.4536 422.576C49.2493 288.725 49.1167 154.873 49.0093 19.1735C54.5886 16.9244 60.1392 16.5242 67.3467 16.374C69.0007 151.596 68.998 286.568 68.96 423.45Z" fill="#E4D1B4"/>
<path d="M266.674 435.296C265.103 432.645 264.932 430.311 264.632 426.826C269.349 424.898 272.4 426.687 273.338 432.915C271.697 434.598 269.885 435.105 266.674 435.296Z" fill="#E4D1B4"/>
<path d="M289.15 432.333C290.226 432.579 291.21 433.026 292.664 434.261C289.953 435.195 286.68 435.543 281.832 435.301C280.257 434.712 280.554 433.507 282.169 433.113C285.573 432.59 287.361 432.462 289.15 432.333Z" fill="#CCBCA2"/>
<path d="M326.519 435.676C324.861 376.701 325.002 318.067 325.016 259.434C325.035 180.143 324.956 100.853 324.894 19.7527C332.014 16.459 339.16 14.976 347.795 13.0026C355.241 12.4074 361.268 12.849 367.146 12.1074C400.862 7.85488 434.734 8.82473 468.504 9.80947C504.928 10.8714 541.295 13.8367 579.324 18.2593C580.953 62.1316 580.944 103.716 579.526 145.017C576.911 144.181 575.645 143.731 574.507 143.063C545.016 125.734 513.658 121.106 480.412 129.13C475.263 130.372 470.079 131.465 463.71 131.487C442.656 129.898 422.764 130.053 402.958 128.815C386.159 127.766 370.152 132.643 353.67 133.577C352.445 133.647 350.774 134.281 350.173 135.21C348.871 137.225 347.678 139.551 347.423 141.859C347.343 142.581 350.505 144.566 352.021 144.41C360.518 143.536 368.932 141.729 377.438 141.116C386.662 140.451 395.754 139.654 404.955 138.249C417.89 136.274 431.358 137.651 444.591 137.937C446.172 137.971 447.705 140.144 448.404 142.307C439.087 149.409 430.626 155.529 420.239 161.427C397.036 158.61 376.278 163.963 355.268 165.414C350.39 165.751 346.228 167.9 347.186 174.341C352.561 178.476 358.379 177.101 364.032 175.326C377.025 171.247 390.267 173.093 403.416 173.607C405.576 173.691 407.636 176.359 409.291 179.164C397.541 196.672 391.088 214.932 389.128 234.23C386.082 264.215 391.954 292.694 409.828 317.559C416.752 327.191 425.556 335.473 432.569 345.664C425.045 352.35 417.28 353.666 409.154 352.908C393.714 351.467 379.113 356.939 363.996 358.246C359.514 358.633 353.867 360.036 349.869 365.686C356.794 370.615 363.289 369.171 369.5 368.136C388.988 364.888 408.427 360.862 428.261 361.203C435.916 361.334 440.425 357.364 446.363 353.151C450.844 355.689 454.157 357.906 457.315 361.99C457.623 372.886 455.237 382.217 459.483 391.722C464.391 392.151 468.892 392.69 473.409 392.914C497.085 394.085 520.984 390.256 544.471 396.446C548.699 397.56 552.08 394.884 552.676 390.034C552.918 388.065 552.99 386.075 554.447 384.185C557.472 384.592 559.189 384.908 560.907 385.224C566.439 397.49 571.971 409.756 575.971 423.485C571.112 424.895 567.519 425.652 564.504 424.657C548.272 419.301 531.574 421.232 515.039 421.065C491.081 420.824 467.119 421.015 443.159 421.042C438.5 421.047 433.737 420.529 429.202 421.306C406.37 425.217 383.408 427.852 360.29 429.169C356.555 429.381 354.174 431.326 352.616 434.545C352.616 434.545 351.126 435.482 350.417 436C342.56 436.35 335.41 436.183 326.519 435.676ZM446.517 41.0672C450.499 41.0879 454.682 40.3157 458.431 41.2615C478.657 46.3651 499.24 44.5677 519.712 45.1764C524.908 45.3307 530.034 47.1403 535.242 47.8028C538.458 48.2117 541.862 48.3429 544.985 47.6776C546.273 47.4032 547.799 44.7296 547.838 43.1144C547.875 41.546 546.427 38.8877 545.138 38.5409C541.385 37.5313 537.396 37.2478 533.479 37.0294C526.862 36.6603 519.798 37.9442 513.697 36.0447C502.574 32.5814 491.425 33.0995 480.202 33.0398C458.298 32.9236 436.387 33.3219 414.491 32.8808C393.252 32.4528 372.194 33.5564 351.308 37.4926C348.164 38.0851 346.969 39.9042 348.372 43.9206C363.723 46.1236 379.961 46.9319 395.235 43.9477C411.185 40.8313 426.871 41.7932 446.517 41.0672ZM372.009 77.0145C379.337 76.9235 387.103 78.3734 393.909 76.442C411.669 71.4015 429.617 73.5998 447.491 73.1288C456.802 72.8834 466.578 71.6454 475.349 73.9203C488.586 77.3538 501.74 76.4551 514.973 77.0698C524.88 77.5301 534.758 78.6101 544.661 79.203C545.659 79.2626 546.743 77.8605 548.986 76.3065C547.125 73.9906 545.525 70.0257 543.51 69.8014C525.746 67.826 507.929 65.6487 490.086 65.2045C460.784 64.475 431.424 65.7643 402.143 64.7043C384.61 64.0694 367.98 69.6172 350.693 69.5772C350.084 69.5757 349.231 69.8367 348.911 70.2786C347.816 71.7893 345.753 73.9148 346.174 74.9293C347.021 76.971 349.352 79.9614 350.908 79.867C356.792 79.5104 362.61 78.0756 372.009 77.0145ZM395.77 97.0025C380.623 98.5432 365.455 99.9206 350.359 101.858C348.705 102.07 346.632 105.34 346.225 107.473C345.617 110.656 349.482 113.363 353.245 111.955C362.927 108.335 372.91 109.249 382.849 108.941C388.149 108.777 393.448 108.303 398.727 107.763C406.61 106.956 414.461 105.362 422.351 105.181C439.667 104.783 457 105.022 474.325 105.09C478.98 105.109 483.916 104.51 488.239 105.806C507.25 111.507 526.593 108.356 545.794 108.545C547.573 108.562 549.375 106.126 551.653 104.477C549.208 102.934 548.156 101.728 547.006 101.625C521.244 99.3283 495.606 95.8256 469.573 96.7819C446.281 97.6376 422.933 96.9833 395.77 97.0025ZM436.239 392.273C437.437 390.183 439.718 388.033 439.608 386.014C439.381 381.836 435.545 381.051 432.209 381.486C425.68 382.34 419.132 385.096 412.756 384.66C397.261 383.6 382.572 388.463 367.393 389.41C360.772 389.823 357.665 392.121 350.924 398.514C357.245 402.565 363.772 401.209 370.07 400.041C390.873 396.182 411.751 393.125 436.239 392.273Z" fill="#E9D1B2"/>
<path d="M464.911 132.627C470.079 131.465 475.263 130.372 480.412 129.13C513.658 121.107 545.016 125.734 574.507 143.063C575.645 143.731 576.911 144.181 580.183 146.121C588.403 152.406 594.56 157.303 601.326 163.351C609.103 175.016 616.268 185.531 623.433 196.046C627.079 209.988 632.763 223.315 633.523 238.102C634.59 258.861 631.136 278.682 622.968 300.593C615.134 314.722 607.636 325.601 597.84 334.891C595.163 337.43 594.092 341.663 590.906 345.248C575.44 352.372 561.335 359.334 547.292 366.419C546.217 366.961 545.574 368.361 542.893 369.152C512.627 371.375 484.505 370.905 457.471 360.123C454.157 357.906 450.844 355.689 445.672 352.148C440.377 348.672 436.94 346.521 433.504 344.37C425.556 335.473 416.752 327.191 409.828 317.559C391.954 292.694 386.082 264.215 389.128 234.23C391.088 214.932 397.541 196.672 410.327 178.413C415.265 171.437 418.715 166.543 422.166 161.649C430.626 155.529 439.087 149.409 449.716 142.129C456.226 138.189 460.568 135.408 464.911 132.627ZM477.499 331.451C478.924 331.516 480.349 331.581 483.88 332.461C485.322 332.872 486.765 333.284 490.337 335.872C507.298 343.494 524.352 340.017 540.621 334.556C604.496 313.119 619.704 236.177 581.511 190.162C578.302 186.296 573.446 183.797 569.281 180.776C569.281 180.776 569.297 180.721 568.811 178.569C567.513 178.022 566.214 177.476 563.658 175.526C562.679 174.709 561.582 174.11 559.608 171.258C557.238 170.705 554.868 170.152 551.13 168.953C551.13 168.953 549.698 168.467 548.543 166.517C547.115 166.405 545.687 166.292 542.808 165.483C542.808 165.483 541.293 164.941 539.509 162.387C503.715 149.904 472.947 159.024 446.444 184.689C425.393 205.073 418.164 230.465 420.914 259.233C423.334 284.547 435.319 304.429 454.999 319.879C457.911 322.165 462.159 322.748 466.981 324.958C466.981 324.958 468.318 325.539 469.338 327.554C470.749 327.798 472.161 328.042 474.908 328.996C474.908 328.996 476.329 329.513 477.499 331.451Z" fill="#3D6F87"/>
<path d="M623.795 194.298C616.268 185.531 609.103 175.016 601.417 161.368C600.907 111.298 600.917 64.3603 600.927 17.423C608.122 17.0658 615.38 16.1034 622.039 18.9738C625.318 35.583 626.066 100.623 623.795 194.298Z" fill="#BBAC93"/>
<path d="M599.284 17.1162C600.917 64.3602 600.907 111.298 600.806 160.218C594.56 157.303 588.403 152.406 581.591 146.405C580.944 103.716 580.953 62.1316 580.953 18.6501C586.51 16.772 592.076 16.7906 599.284 17.1162Z" fill="#D4C0A5"/>
<path d="M592.284 345.118C594.092 341.663 595.163 337.43 597.84 334.891C607.636 325.601 615.134 314.722 622.548 302.186C623.708 315.66 624.29 330.057 624.366 344.455C624.473 364.78 624.206 385.107 623.707 407.287C615.131 396.256 606.947 383.371 597.72 368.161C598.028 358.333 597.371 351.256 592.284 345.118Z" fill="#BBAC93"/>
<path d="M354.442 435.137C354.174 431.326 356.555 429.381 360.29 429.169C383.408 427.852 406.37 425.217 429.202 421.306C433.737 420.529 438.5 421.047 443.159 421.042C467.119 421.015 491.081 420.824 515.039 421.065C531.574 421.232 548.272 419.301 564.504 424.657C567.519 425.652 571.112 424.895 576.27 424.917C579.345 427.582 580.587 430.276 582.129 434.09C577.154 435.524 571.882 436.104 566.608 436.109C499.135 436.176 431.661 436.166 364.188 436.149C361.548 436.148 358.908 435.876 354.442 435.137Z" fill="#CCBCA2"/>
<path d="M590.906 345.248C597.371 351.256 598.028 358.333 596.575 367.409C583.25 369.028 573.452 377.402 561.7 384.088C559.189 384.908 557.472 384.592 553.862 383.125C549.557 377.77 547.143 373.566 544.729 369.362C545.574 368.361 546.217 366.961 547.292 366.419C561.335 359.334 575.44 352.372 590.906 345.248Z" fill="#2D5669"/>
<path d="M229.147 160.864C228.586 174.646 230.471 186.612 227.546 199.375C223.235 199.957 219.448 200.878 215.653 200.912C197.018 201.079 178.379 200.889 159.744 201.07C147.827 201.186 135.954 200.653 124.118 204.002C118.013 205.729 111.017 204.305 103.509 204.305C102.534 200.178 100.917 196.487 100.903 192.79C100.725 146.199 100.675 99.6067 100.845 53.0155C100.888 41.1742 103.74 37.671 114.096 37.3453C146.589 36.3231 178.881 30.8343 211.51 32.9784C216.121 33.2813 220.737 33.5163 224.784 33.7501C230.71 38.9444 229.043 45.3101 229.067 51.064C229.219 87.0057 229.146 122.948 229.147 160.864Z" fill="#CCBCA2"/>
<path d="M184.949 380.91C193.603 380.947 200.268 381.048 206.932 381.003C228.912 380.854 250.484 384.265 272.065 387.967C282.473 389.752 293.367 389.156 302.725 395.257C301.095 403.274 300.268 404.304 295.183 403.431C277.575 400.406 260.014 397.1 242.379 394.248C236.504 393.298 230.461 393.079 224.493 393.06C189.837 392.954 155.18 393.073 120.524 392.94C114.733 392.918 108.578 394.611 103.395 390.765C101.802 386.548 103.937 383.717 107.225 382.819C111.634 381.614 116.374 381.239 120.978 381.188C141.637 380.963 162.299 380.978 184.949 380.91Z" fill="#D4C0A5"/>
<path d="M120.904 288.821C140.25 284.084 158.227 285.158 176.118 285.075C187.424 285.023 198.745 284.747 210.032 285.218C218.585 285.574 227.085 287.052 235.627 287.839C241.568 288.388 247.571 288.347 253.492 289.036C267.271 290.64 281.05 292.321 294.753 294.459C297.757 294.927 300.444 297.431 304.963 299.929C301.887 302.158 300.238 304.188 298.252 304.603C295.061 305.27 291.592 305.282 288.337 304.848C273.284 302.842 258.278 300.476 243.224 298.477C237.326 297.693 231.347 297.177 225.403 297.151C196.14 297.021 166.875 296.9 137.616 297.231C129.753 297.319 121.921 299.164 114.046 299.877C110.86 300.165 107.468 300.03 104.427 299.174C103.19 298.826 102.274 296.124 101.915 294.351C101.721 293.391 102.848 291.298 103.654 291.143C108.77 290.156 113.963 289.569 120.904 288.821Z" fill="#D4C0A5"/>
<path d="M173.635 221.159C186.218 221.156 196.895 220.836 207.542 221.266C215.454 221.587 223.325 222.899 231.218 223.733C235.179 224.152 239.205 225.106 243.105 224.754C260.586 223.175 277.335 229.047 294.615 229.508C299.393 229.636 303.801 231.729 302.963 238.66C297.022 242.622 290.452 240.946 284.046 239.944C280.13 239.331 276.331 237.459 272.436 237.315C242.573 236.21 212.92 231.117 182.893 232.949C163.704 234.119 144.341 231.278 125.275 236.426C119.706 237.929 113.319 236.959 107.4 236.296C105.438 236.076 102.595 233.505 102.204 231.591C101.39 227.607 104.59 225.458 108.172 225.483C129.47 225.635 150.614 223.754 173.635 221.159Z" fill="#D4C0A5"/>
<path d="M138.217 317.142C155.359 317.093 170.638 317.326 185.904 316.976C215.776 316.293 245.291 319.341 274.675 324.403C279.872 325.298 285.309 324.728 290.548 325.462C295.649 326.176 300.675 327.638 303.707 334.195C297.522 338.801 290.598 337.866 284.732 336.556C243.558 327.363 201.795 328.935 160.105 328.924C150.145 328.922 140.178 328.825 130.226 329.141C121.667 329.413 113.124 330.212 104.376 330.791C101.347 324.601 101.98 322.062 106.941 321.344C116.74 319.927 126.546 318.553 138.217 317.142Z" fill="#D4C0A5"/>
<path d="M161.235 265.02C146.031 265.541 132.741 264.107 119.612 268.101C114.966 269.514 109.282 267.703 104.115 267.03C103.308 266.925 102.093 264.968 102.191 263.978C102.365 262.222 102.962 260.04 104.193 258.981C105.549 257.815 107.795 257.325 109.695 257.204C142.843 255.103 175.931 251.286 209.229 253.195C216.48 253.611 223.686 254.81 230.916 255.619C234.872 256.062 238.896 257.101 242.784 256.74C260.272 255.118 276.997 261.27 294.294 261.51C296.699 261.544 299.411 263.052 301.346 264.648C302.518 265.614 302.837 268.069 302.809 269.844C302.795 270.713 301.109 272.3 300.194 272.29C294.26 272.226 288.307 272.026 282.404 271.438C278.472 271.046 274.645 269.546 270.715 269.212C252.881 267.697 235.047 265.893 217.175 265.207C199.206 264.517 181.191 265.026 161.235 265.02Z" fill="#D4C0A5"/>
<path d="M299.494 361.251C301.689 363.4 302.423 365.032 303.679 367.825C298.231 368.281 293.689 369.33 289.29 368.903C275.51 367.565 261.786 365.654 248.036 363.996C239.543 362.972 231.05 361.229 222.544 361.148C189.376 360.833 156.204 361.084 123.033 361.046C116.555 361.039 110.078 360.683 104.103 360.503C102.766 355.946 103.819 354.104 106.977 353.315C117.917 350.581 128.852 348.563 140.291 348.937C155.533 349.436 170.818 349.405 186.06 348.88C220.614 347.691 254.517 353.627 288.592 357.687C291.814 358.07 294.889 359.689 299.494 361.251Z" fill="#D4C0A5"/>
<path d="M236.734 427.232C188.976 428.855 140.798 428.921 90.73 428.884C89.6495 424.438 91.8182 421.288 96.6023 421.285C141.116 421.263 185.631 421.26 230.143 421.533C232.209 421.546 234.257 424.233 236.734 427.232Z" fill="#E4D1B4"/>
<path d="M258.052 33.0259C275.823 31.7799 290.984 36.6569 306.128 38.4234C308.013 44.6507 304.805 48.3511 300.823 47.387C285.686 43.7228 270.402 45.6172 255.213 44.7831C253.891 44.7105 252.269 44.9485 251.32 44.2819C249.347 42.8947 246.528 41.1311 246.322 39.2709C246.131 37.5495 248.57 35.0171 250.46 33.7514C251.914 32.7775 254.314 33.2153 258.052 33.0259Z" fill="#D4C0A5"/>
<path d="M289.721 111.239C277.608 110.054 267.102 109.507 256.606 108.813C254.023 108.642 251.254 108.457 248.984 107.394C247.552 106.723 246.097 104.408 246.102 102.835C246.107 101.258 247.84 98.38 248.94 98.319C258.092 97.8115 267.299 97.3334 276.436 97.8368C283.592 98.2312 290.67 100.039 297.785 101.212C301.28 101.788 304.356 103.215 304.151 107.228C303.947 111.242 300.805 112.547 297.204 112.523C295.246 112.509 293.29 112.07 289.721 111.239Z" fill="#D4C0A5"/>
<path d="M276.173 77.0388C266.48 76.7622 258.552 76.827 250.712 76.0226C248.945 75.8413 246.242 72.6297 246.244 70.8147C246.245 69.0456 249.026 65.9237 250.816 65.749C258 65.0475 265.347 64.5548 272.495 65.306C282.224 66.3282 291.857 68.4104 301.443 70.4525C302.678 70.7155 304.528 73.9516 304.097 74.9443C303.219 76.969 300.893 79.9132 299.316 79.8222C292.171 79.409 285.08 78.0709 276.173 77.0388Z" fill="#D4C0A5"/>
<path d="M246.289 133.32C251.12 130.83 255.595 128.876 259.879 129.233C273.593 130.377 287.253 132.266 300.882 134.226C302.199 134.416 304.348 137.446 304.027 138.551C303.41 140.674 301.488 142.58 299.719 144.131C298.923 144.829 297.039 144.897 295.907 144.506C282.476 139.858 268.513 141.366 254.734 140.77C250.625 140.592 246.785 139.935 246.289 133.32Z" fill="#D4C0A5"/>
<path d="M268.235 161.222C279.065 162.615 288.131 163.949 297.207 165.216C300.723 165.707 303.573 167.086 304.235 170.869C304.808 174.135 300.608 176.93 295.672 176.783C294.356 176.744 292.912 177.031 291.745 176.59C279.698 172.029 267.076 173.334 254.635 172.743C252.715 172.652 250.515 172.456 249.006 171.459C247.575 170.514 246.094 168.458 246.085 166.882C246.076 165.306 247.698 162.506 248.89 162.344C254.699 161.555 260.604 161.47 268.235 161.222Z" fill="#D4C0A5"/>
<path d="M294.91 197.338C297.723 198.1 299.387 198.333 300.012 199.263C301.339 201.242 302.589 203.527 302.869 205.809C302.961 206.563 300.084 208.087 298.373 208.546C296.522 209.043 294.266 209.244 292.499 208.647C280.349 204.546 267.774 205.042 255.252 204.782C253.297 204.742 251.08 204.709 249.481 203.799C247.972 202.941 245.952 200.654 246.229 199.487C246.737 197.346 248.729 193.943 250.173 193.906C258.683 193.692 267.229 194.075 275.73 194.703C281.611 195.138 287.438 196.293 294.91 197.338Z" fill="#D4C0A5"/>
<path d="M288.481 431.576C287.361 432.462 285.573 432.59 282.449 432.559C282.849 429.768 285.03 429.022 288.481 431.576Z" fill="#E4D1B4"/>
<path d="M542.893 369.152C547.143 373.566 549.557 377.77 552.555 383.035C552.99 386.075 552.919 388.065 552.676 390.034C552.08 394.884 548.699 397.56 544.471 396.446C520.984 390.256 497.085 394.085 473.409 392.914C468.892 392.69 464.391 392.151 459.483 391.722C455.237 382.217 457.623 372.886 457.315 361.99C484.505 370.905 512.627 371.375 542.893 369.152Z" fill="#CCBCA2"/>
<path d="M444.598 41.0658C426.871 41.7933 411.185 40.8314 395.235 43.9478C379.961 46.932 363.723 46.1237 348.372 43.9207C346.969 39.9043 348.164 38.0852 351.308 37.4927C372.194 33.5565 393.252 32.4529 414.491 32.8809C436.387 33.322 458.298 32.9237 480.202 33.0399C491.425 33.0996 502.574 32.5815 513.697 36.0448C519.798 37.9443 526.862 36.6604 533.479 37.0295C537.395 37.2479 541.385 37.5314 545.138 38.541C546.427 38.8878 547.875 41.5461 547.838 43.1145C547.799 44.7297 546.273 47.4033 544.985 47.6777C541.862 48.343 538.457 48.2118 535.242 47.8029C530.034 47.1404 524.908 45.3308 519.712 45.1765C499.24 44.5677 478.657 46.3652 458.431 41.2616C454.682 40.3158 450.499 41.088 444.598 41.0658Z" fill="#D0BEA3"/>
<path d="M370.231 77.0294C362.61 78.0755 356.792 79.5103 350.908 79.8669C349.352 79.9614 347.021 76.9709 346.174 74.9293C345.753 73.9148 347.816 71.7893 348.911 70.2785C349.231 69.8366 350.084 69.5756 350.693 69.5771C367.981 69.6171 384.61 64.0693 402.143 64.7042C431.424 65.7642 460.785 64.4749 490.086 65.2044C507.929 65.6486 525.746 67.8259 543.51 69.8014C545.525 70.0256 547.125 73.9906 548.986 76.3065C546.743 77.8604 545.659 79.2625 544.661 79.203C534.758 78.6101 524.88 77.53 514.973 77.0698C501.74 76.455 488.587 77.3537 475.349 73.9202C466.578 71.6453 456.802 72.8834 447.491 73.1287C429.618 73.5997 411.67 71.4014 393.909 76.442C387.103 78.3734 379.337 76.9234 370.231 77.0294Z" fill="#D0BEA3"/>
<path d="M397.69 96.9987C422.933 96.9832 446.281 97.6375 469.573 96.7818C495.606 95.8255 521.244 99.3281 547.006 101.625C548.156 101.728 549.208 102.934 551.653 104.477C549.375 106.126 547.573 108.562 545.794 108.545C526.593 108.356 507.25 111.507 488.239 105.806C483.916 104.51 478.98 105.108 474.325 105.09C457 105.021 439.667 104.783 422.351 105.181C414.461 105.362 406.61 106.956 398.727 107.762C393.448 108.303 388.149 108.777 382.849 108.941C372.91 109.249 362.927 108.334 353.245 111.955C349.482 113.362 345.617 110.656 346.225 107.473C346.632 105.34 348.705 102.07 350.359 101.858C365.455 99.9204 380.623 98.5431 397.69 96.9987Z" fill="#D0BEA3"/>
<path d="M463.71 131.487C460.568 135.408 456.226 138.189 450.572 141.148C447.705 140.144 446.172 137.971 444.591 137.937C431.358 137.651 417.89 136.274 404.955 138.249C395.754 139.654 386.662 140.451 377.438 141.116C368.932 141.729 360.518 143.536 352.022 144.41C350.505 144.566 347.343 142.581 347.423 141.859C347.678 139.551 348.871 137.225 350.173 135.21C350.774 134.281 352.445 133.647 353.67 133.577C370.152 132.643 386.159 127.766 402.958 128.815C422.764 130.053 442.656 129.898 463.71 131.487Z" fill="#CCBCA2"/>
<path d="M432.569 345.664C436.94 346.521 440.377 348.672 444.505 351.827C440.425 357.364 435.916 361.334 428.261 361.203C408.427 360.862 388.988 364.888 369.5 368.136C363.289 369.171 356.794 370.615 349.869 365.686C353.867 360.036 359.514 358.633 363.996 358.246C379.113 356.939 393.714 351.467 409.154 352.908C417.28 353.666 425.045 352.35 432.569 345.664Z" fill="#D0BEA3"/>
<path d="M434.597 392.557C411.751 393.125 390.873 396.182 370.07 400.041C363.772 401.209 357.245 402.565 350.924 398.514C357.665 392.121 360.772 389.823 367.393 389.41C382.572 388.463 397.261 383.6 412.756 384.66C419.132 385.096 425.68 382.34 432.209 381.486C435.545 381.051 439.381 381.836 439.608 386.014C439.718 388.033 437.437 390.183 434.597 392.557Z" fill="#D0BEA3"/>
<path d="M420.239 161.427C418.715 166.543 415.265 171.437 410.779 177.082C407.636 176.359 405.576 173.691 403.416 173.607C390.267 173.093 377.025 171.247 364.032 175.326C358.379 177.101 352.561 178.476 347.186 174.341C346.228 167.9 350.39 165.751 355.268 165.414C376.278 163.963 397.036 158.609 420.239 161.427Z" fill="#D0BEA3"/>
<path d="M465.789 324.118C462.159 322.748 457.911 322.165 454.999 319.879C435.319 304.429 423.334 284.546 420.914 259.233C418.164 230.465 425.393 205.073 446.444 184.689C472.947 159.023 503.715 149.904 538.697 163.909C531.399 164.406 524.942 162.893 518.417 162.503C512.616 162.156 506.632 162.481 500.929 163.563C495.239 164.643 493.086 168.316 493.538 173.483C494.113 180.057 497.111 183.898 502.637 184.561C505.894 184.952 509.221 184.935 512.51 184.849C524.776 184.527 535.801 188.133 546.06 194.741C549.798 197.149 554.025 198.798 557.405 200.483C566.159 195.797 570.28 189.657 569.355 180.663C573.446 183.797 578.302 186.296 581.511 190.162C619.704 236.177 604.496 313.118 540.621 334.556C524.352 340.016 507.298 343.494 491.053 334.373C497.02 332.943 502.282 333.238 507.523 333.03C515.427 332.716 516.379 330.588 514.193 320.207C499.699 315.952 485.489 311.782 470.622 307.418C464.204 310.912 464.587 317.38 465.789 324.118Z" fill="#9CD7C5"/>
<path d="M569.318 180.72C570.28 189.657 566.159 195.797 557.405 200.483C554.025 198.798 549.798 197.149 546.06 194.741C535.801 188.133 524.776 184.527 512.51 184.849C509.221 184.935 505.894 184.953 502.637 184.561C497.111 183.898 494.113 180.057 493.538 173.483C493.086 168.316 495.239 164.643 500.929 163.563C506.632 162.481 512.616 162.156 518.417 162.503C524.942 162.893 531.399 164.406 539.59 165.186C541.293 164.941 542.808 165.483 544.163 166.725C546.911 168.134 548.304 168.301 549.698 168.467C549.698 168.467 551.13 168.953 552.423 170.31C555.932 172.355 558.148 173.042 560.365 173.73C561.582 174.11 562.679 174.709 564.541 177.306C566.715 179.631 568.006 180.176 569.297 180.721C569.297 180.721 569.281 180.776 569.318 180.72Z" fill="white"/>
<path d="M466.385 324.538C464.588 317.38 464.204 310.912 470.622 307.418C485.489 311.782 499.699 315.953 514.193 320.207C516.38 330.588 515.427 332.716 507.524 333.03C502.282 333.238 497.021 332.943 489.988 333.285C486.765 333.284 485.322 332.872 482.171 331.199C479.085 329.796 477.707 329.654 476.329 329.513C476.329 329.513 474.908 328.996 473.707 327.667C471.11 326.071 469.714 325.805 468.318 325.539C468.318 325.539 466.981 324.958 466.385 324.538Z" fill="white"/>
<path d="M559.986 172.494C558.148 173.042 555.932 172.355 553.106 170.634C554.868 170.152 557.238 170.705 559.986 172.494Z" fill="#9CD7C5"/>
<path d="M476.914 330.482C477.707 329.654 479.085 329.796 481.118 330.792C480.349 331.581 478.924 331.516 476.914 330.482Z" fill="#9CD7C5"/>
<path d="M468.828 326.547C469.714 325.805 471.11 326.071 473.039 327.312C472.161 328.042 470.75 327.798 468.828 326.547Z" fill="#9CD7C5"/>
<path d="M549.12 167.492C548.304 168.301 546.911 168.134 544.888 167.074C545.687 166.292 547.115 166.405 549.12 167.492Z" fill="#9CD7C5"/>
<path d="M569.054 179.645C568.006 180.176 566.715 179.631 565.171 178.007C566.214 177.476 567.513 178.022 569.054 179.645Z" fill="#9CD7C5"/>
</svg>
