<svg width="80" height="80" viewBox="0 0 80 80" fill="none" xmlns="http://www.w3.org/2000/svg">
<path d="M40 65C40 65 31.5487 63.913 26.1797 63.913C23.7608 63.913 20.7447 64.1337 18.1605 64.3762C15.1548 64.6582 12.5 62.3224 12.5 59.3035V27.0256C12.5 25.0089 13.7102 23.1688 15.6621 22.6614C16.5349 22.4345 17.5165 22.2284 18.5102 22.1151M40 65C40 65 48.1703 63.913 53.5392 63.913C56.0143 63.913 59.1742 64.144 61.8616 64.393C64.8592 64.6707 67.5 62.338 67.5 59.3275V26.8845C67.5 24.9395 66.3689 23.1515 64.4826 22.6776C63.7477 22.4929 62.9153 22.327 62.0281 22.2259M40 65V58.4693M40 58.4693C40 58.4693 32.8368 57.3913 28.5417 57.3913C27.1837 57.3913 25.6535 57.4993 24.1958 57.647C21.081 57.9626 18.2515 55.5777 18.2757 52.4471L18.5102 22.1151M40 58.4693C40 58.4693 46.7892 57.3913 51.0843 57.3913C52.5454 57.3913 54.2491 57.5292 55.8612 57.711C58.9557 58.0602 61.7911 55.7218 61.8131 52.6078L62.0281 22.2259M40 58.4693V16.087M18.5102 22.1151V20.3229C18.5102 17.8786 20.2776 15.7894 22.704 15.4934C24.787 15.2394 27.2748 15 29.2551 15C33.475 15 40 16.087 40 16.087M62.0281 22.2259V20.3401C62.0281 17.8882 60.2509 15.7955 57.8164 15.5039C55.6635 15.246 53.0712 15 51.0141 15C46.6896 15 40 16.087 40 16.087" stroke="white" stroke-width="3.75" stroke-linecap="round" stroke-linejoin="round"/>
</svg>
