<svg viewBox="0 0 2299 1844" fill="none" xmlns="http://www.w3.org/2000/svg">
<path d="M2127.73 74.0734C2127.88 76.0592 2128.16 78.0449 2128.16 80.0307C2128.15 224.12 2128.12 368.21 2127.02 513.224C2103.22 511.887 2080.53 508.997 2057.27 509.159C2056.91 366.138 2056.88 223.844 2056.82 81.5488C2056.82 79.2385 2056.52 76.9274 2056.33 74.6191C2056.3 74.3007 2056.16 73.9502 2055.96 73.699C2055.77 73.4496 2055.44 73.307 2054.07 72.3541C2051.24 72.3541 2047.29 72.3542 2043.34 72.3541C1844.06 72.3477 1644.78 72.2539 1445.5 72.4793C1426.89 72.5004 1408.18 73.6215 1389.7 75.8069C1316.97 84.4089 1251.37 111.19 1193.02 155.394C1175.77 168.465 1159.34 182.621 1142.51 196.247C1140.25 198.072 1137.84 199.701 1136.3 200.832C1107.74 179.037 1079.98 157.845 1052.69 136.138C1065.62 116.094 1078.07 96.5646 1090.53 77.0351C1105.6 87.3328 1120.67 97.6306 1136.28 108.299C1138.84 106.415 1141.8 104.343 1144.65 102.126C1209.88 51.3618 1283.37 19.3845 1364.97 6.75159C1387.93 3.19691 1411.37 1.18763 1434.59 1.13947C1641.86 0.709357 1849.14 0.876594 2056.41 0.880134C2059.4 0.880195 2062.4 1.03736 2066.55 1.92286C2075.87 11.8543 2084.29 20.7695 2092.13 30.1637C2104.2 44.6278 2115.88 59.4202 2127.73 74.0734Z" fill="black"/>
<path d="M412.963 1584.67C416.613 1584.5 420.264 1584.18 423.914 1584.17C559.879 1584.15 695.844 1584.13 831.809 1584.17C908.309 1584.19 971.817 1639.26 982.333 1714.83C983.476 1723.04 983.719 1731.4 983.933 1739.71C984.198 1749.97 983.997 1760.25 983.997 1771.93C1079.32 1771.93 1173.83 1771.93 1269.02 1772.73C1266.72 1778.33 1263.55 1783.02 1260.8 1787.93C1250.42 1806.42 1240.18 1824.99 1229.89 1843.53C1226.9 1843.68 1223.92 1843.96 1220.93 1843.96C1121.34 1843.98 1021.75 1843.98 922.157 1843.98C919.209 1843.98 916.261 1843.98 911.861 1843.98C911.861 1839.8 911.861 1836.29 911.861 1832.77C911.86 1801.46 911.907 1770.15 911.848 1738.84C911.758 1690.76 877.311 1656.31 829.341 1656.3C711.431 1656.26 593.521 1656.24 474.418 1655.43C457.581 1632.74 440.026 1612.47 420.926 1593.51C418.116 1590.72 415.61 1587.63 412.963 1584.67Z" fill="black"/>
<path d="M1583.86 1584.57C1587.51 1584.43 1591.17 1584.18 1594.82 1584.18C1825.4 1584.15 2055.98 1584.15 2286.55 1584.16C2290.2 1584.16 2293.84 1584.48 2298.09 1585.31C2298.69 1608.95 2298.69 1631.91 2298.69 1655.36C2296.21 1655.75 2294.35 1656.3 2292.49 1656.3C2082.85 1656.3 1873.21 1656.25 1662.27 1655.52C1653.71 1649.04 1646.29 1643.43 1639.2 1637.43C1619.7 1620.92 1600.44 1604.14 1583.86 1584.57Z" fill="#E7282C"/>
<path d="M164.372 327.587C164.23 323.931 163.966 320.276 163.964 316.621C163.939 242.983 163.961 169.344 163.93 95.7061C163.922 76.3815 163.766 57.0569 163.589 36.8417C163.5 24.694 163.5 13.4369 163.5 0.802463C211.691 0.757297 258.752 0.713169 307.054 1.47586C310.172 3.57431 311.931 5.09751 313.943 6.12394C384.855 42.3026 460.254 60.4056 539.726 61.8635C573.455 62.4823 606.841 58.8098 640.613 53.5719C644.291 59.9486 647.393 65.8856 649.524 72.0305C644.555 72.276 640.556 72.3462 636.557 72.3465C507.241 72.3552 377.925 72.3571 248.609 72.3601C244.695 72.3602 240.78 72.3601 235.758 72.3601C235.758 77.3031 235.758 81.2011 235.758 85.099C235.755 167.421 235.759 249.744 235.729 332.066C235.727 336.051 235.42 340.037 234.607 344.147C227.902 348.214 221.507 351.732 215.865 356.2C206.918 363.282 198.475 370.999 189.415 378.298C189.012 378.15 188.206 377.849 188.172 377.103C180.215 360.1 172.294 343.844 164.372 327.587Z" fill="black"/>
<path d="M650.495 71.8226C647.393 65.8857 644.291 59.9487 640.603 53.2952C640.017 52.5787 640.098 52.0233 640.916 52.0391C676.533 45.8943 710.136 35.6488 742.535 21.6574C756.184 15.7628 769.28 8.58423 782.783 1.87671C782.939 1.7641 783.197 1.14557 783.197 1.14557C834.097 0.241149 884.869 0.569822 934.943 11.9197C990.235 24.4524 1041.98 45.3113 1090.08 76.5779C1078.07 96.5643 1065.62 116.094 1051.97 135.921C1048.49 134.854 1046.2 133.497 1043.92 132.123C977.911 92.3533 906.401 72.3438 829.319 72.3368C773.693 72.3318 718.068 72.3464 662.443 72.3137C658.46 72.3113 654.477 71.9937 650.495 71.8226Z" fill="black"/>
<path d="M0.125366 1586.93C2.77466 1585.38 5.57165 1584.22 8.36902 1584.22C132.976 1584.16 257.584 1584.2 383.007 1585.08C381.482 1588.68 379.371 1591.69 376.75 1594.15C371.448 1599.12 365.551 1603.49 360.473 1608.67C350.97 1618.36 341.77 1628.36 332.654 1638.42C327.56 1644.05 322.887 1650.05 318.025 1655.88C315.039 1656.03 312.054 1656.3 309.068 1656.3C209.807 1656.33 110.546 1656.33 11.2845 1656.33C8.02002 1656.33 4.75537 1656.33 0.273315 1656.33C0.273315 1632.94 0.273315 1610.4 0.125366 1586.93Z" fill="#E7282C"/>
<path d="M1582.96 1584.38C1600.44 1604.14 1619.7 1620.92 1639.2 1637.43C1646.29 1643.43 1653.71 1649.04 1661.33 1655.36C1658.03 1656.02 1654.38 1656.26 1650.73 1656.26C1581.83 1656.28 1512.94 1656.27 1444.04 1656.29C1439.39 1656.29 1434.73 1656.54 1429.04 1655.9C1421.65 1647.41 1415.53 1639.49 1408.84 1632.07C1406.38 1629.36 1402.6 1627.84 1399.61 1625.09C1398.78 1622.48 1398.16 1620.18 1396.7 1618.69C1390.01 1611.86 1383.08 1605.25 1376.24 1598.56C1394.76 1588.53 1414.84 1584.4 1435.6 1584.26C1484.41 1583.93 1533.24 1584.18 1582.96 1584.38Z" fill="black"/>
<path d="M1399.42 1625.77C1402.6 1627.84 1406.38 1629.36 1408.84 1632.07C1415.53 1639.49 1421.65 1647.41 1428.12 1655.86C1420.07 1659.31 1411.37 1660.99 1403.83 1664.92C1375.8 1679.5 1360.55 1702.89 1359.96 1734.65C1359.36 1766.94 1359.82 1799.26 1359.82 1831.57C1359.82 1835.19 1359.82 1838.81 1359.82 1841.71C1358.92 1842.67 1358.71 1842.94 1358.45 1843.14C1358.21 1843.34 1357.9 1843.58 1357.62 1843.59C1315.66 1843.69 1273.71 1843.78 1230.82 1843.7C1240.18 1824.99 1250.42 1806.42 1260.8 1787.93C1263.55 1783.02 1266.72 1778.33 1269.95 1772.91C1275.47 1772.02 1280.73 1771.76 1287.27 1771.44C1287.45 1763.64 1287.63 1755.89 1288.54 1746.87C1318.99 1705.07 1352.33 1667.78 1389.37 1633.82C1392.53 1630.93 1396.06 1628.44 1399.42 1625.77Z" fill="black"/>
<path d="M640.098 52.0233C640.098 52.0233 640.017 52.5787 640.027 52.8555C606.841 58.81 573.455 62.4825 539.726 61.8637C460.254 60.4057 384.855 42.3028 313.943 6.12413C311.931 5.0977 310.172 3.57451 307.924 1.73045C324.532 1.11009 341.511 0.980145 358.49 0.984478C445.058 1.00651 531.626 1.06321 619.133 2.05626C621.53 6.99418 622.844 11.0435 624.472 14.9621C629.617 27.3421 634.88 39.6732 640.098 52.0233Z" fill="black"/>
<path d="M318.946 1656.06C322.887 1650.05 327.56 1644.05 332.654 1638.42C341.77 1628.36 350.97 1618.36 360.473 1608.67C365.551 1603.49 371.448 1599.12 376.75 1594.15C379.371 1591.69 381.482 1588.68 383.927 1585.28C393.138 1584.51 402.246 1584.39 412.158 1584.47C415.61 1587.63 418.116 1590.72 420.926 1593.51C440.026 1612.47 457.581 1632.74 473.479 1655.25C469.747 1656 465.761 1656.28 461.776 1656.29C414.473 1656.3 367.169 1656.26 318.946 1656.06Z" fill="#E7282C"/>
<path d="M640.916 52.0392C634.88 39.6733 629.617 27.3422 624.472 14.9622C622.844 11.0436 621.53 6.99426 620.016 2.34075C621.915 1.46026 623.869 1.0559 625.824 1.05486C677.507 1.0266 729.189 1.03997 781.548 1.29943C782.224 1.55261 782.627 1.9895 782.627 1.9895C769.28 8.58434 756.184 15.7629 742.535 21.6575C710.136 35.6489 676.533 45.8944 640.916 52.0392Z" fill="black"/>
<path d="M2127.89 73.1422C2115.88 59.4202 2104.2 44.6279 2092.13 30.1638C2084.29 20.7696 2075.87 11.8544 2067.39 2.18066C2086.95 1.63672 2106.85 1.63672 2128.23 1.63672C2128.23 9.14282 2128.23 16.6631 2128.42 25.0964C2128.42 41.4098 2128.24 56.8104 2127.89 73.1422Z" fill="black"/>
<path d="M782.783 1.87672C782.627 1.98939 782.224 1.5525 782.47 1.37135C782.715 1.19025 782.931 0.824532 783.064 0.985054C783.197 1.14558 782.939 1.76411 782.783 1.87672Z" fill="#32A165"/>
<path d="M476.004 1435.37C473.792 1431.05 471.956 1426.47 469.302 1422.44C459.825 1408.03 449.939 1393.89 440.542 1379.43C438.877 1376.87 438.809 1373.28 438.926 1369.21C572.047 1368.24 704.247 1368 836.447 1368.32C878.972 1368.42 920.667 1375.26 960.856 1389.4C979.646 1396.02 997.853 1404.29 1016.81 1412.26C1061.72 1435.44 1100.08 1466.28 1135.41 1502.33C1149.59 1489.1 1163.11 1476.49 1177.21 1463.62C1185.44 1457.5 1192.93 1451.42 1200.74 1445.79C1263.43 1400.57 1333.26 1374.88 1410.46 1369.59C1423.04 1368.73 1435.65 1368.32 1449.14 1367.88C1454.04 1368.1 1458.04 1368.17 1462.04 1368.17C1592.04 1368.18 1722.04 1368.17 1852.03 1368.19C1856.02 1368.19 1860.01 1368.47 1864 1368.62C1863.52 1374.4 1861.06 1379.11 1857.58 1383.84C1849.13 1395.32 1841.47 1407.36 1833.35 1419.08C1830 1423.9 1824.44 1427.31 1823.09 1434.86C1712.02 1435.77 1601.89 1435.79 1491.76 1435.84C1487.77 1435.84 1483.79 1436.08 1478.9 1436.04C1453.75 1436.45 1429.38 1435.75 1405.26 1437.88C1350.74 1442.7 1301.41 1462.3 1256.76 1493.81C1253.82 1495.88 1251.27 1498.52 1247.9 1501.05C1220.12 1521.09 1197.4 1545.3 1178.84 1573.2C1169.47 1587.28 1161.85 1602.52 1153.5 1617.26C1151.89 1620.1 1151.1 1623.51 1146.69 1623.44C1138.11 1623.29 1129.53 1623.39 1121.12 1623.39C1119.07 1619.21 1117.45 1615.95 1115.87 1612.67C1063.98 1505.43 953.408 1435.96 834.247 1435.84C771.996 1435.77 709.744 1435.82 647.493 1435.84C643.507 1435.85 639.521 1436.13 634.651 1436.12C585.163 1435.92 536.558 1435.88 487.953 1435.81C483.969 1435.8 479.987 1435.52 476.004 1435.37Z" fill="white"/>
<path d="M1016.32 1411.8C997.853 1404.29 979.646 1396.02 960.856 1389.4C920.667 1375.26 878.972 1368.42 836.447 1368.32C704.247 1368 572.047 1368.24 438.925 1368.45C434.017 1368.47 430.031 1368.19 426.044 1368.19C343.074 1368.16 260.103 1368.17 177.133 1368.17C173.192 1368.17 169.25 1368.17 164.078 1368.17C164.078 1294.16 164.078 1220.99 164.919 1146.99C166.885 1146.84 168.229 1147.32 169.105 1148.23C185.938 1165.84 205.785 1179.77 225.323 1194.04C228.116 1196.08 231.925 1196.73 235.448 1198.94C235.632 1231.73 235.632 1263.61 235.632 1296.5C241.072 1296.5 245.321 1296.5 249.57 1296.5C442.125 1296.5 634.679 1296.47 827.234 1296.55C853.896 1296.56 880.506 1298.21 906.841 1302.49C989.724 1315.94 1064.26 1348.5 1130.07 1400.79C1131.83 1402.19 1133.79 1403.34 1135.33 1404.38C1136.6 1403.9 1137.31 1403.8 1137.82 1403.43C1139.97 1401.85 1142.07 1400.21 1144.17 1398.57C1195.47 1358.46 1252.48 1329.76 1315.45 1313.1C1352.26 1303.37 1389.61 1297.19 1427.92 1298.5C1431.08 1310.45 1434.01 1321.64 1437.3 1332.73C1440.77 1344.44 1444.58 1356.05 1448.24 1367.7C1435.65 1368.32 1423.04 1368.73 1410.46 1369.59C1333.26 1374.88 1263.43 1400.58 1200.74 1445.79C1192.93 1451.42 1185.44 1457.5 1176.69 1463.12C1139.37 1445.72 1101.83 1432.14 1063.06 1422.07C1047.63 1418.06 1031.91 1415.19 1016.32 1411.8Z" fill="black"/>
<path d="M1449.14 1367.88C1444.58 1356.05 1440.77 1344.44 1437.3 1332.73C1434.01 1321.64 1431.08 1310.45 1428.72 1298.24C1435.44 1296.97 1441.43 1296.59 1447.43 1296.59C1646.05 1296.56 1844.67 1296.56 2043.29 1296.55C2047.52 1296.55 2051.76 1296.55 2056.9 1296.55C2056.9 1291.45 2056.9 1287.53 2056.9 1283.62C2056.89 1159.65 2056.87 1035.67 2056.89 911.704C2056.89 908.089 2057.28 904.474 2058.2 900.667C2069.94 888.991 2081.42 877.906 2091.86 865.922C2104.28 851.675 2115.81 836.655 2127.73 821.97C2127.88 825.619 2128.15 829.269 2128.15 832.919C2128.17 1007.07 2128.17 1181.22 2128.17 1355.36C2128.17 1359.28 2128.17 1363.2 2128.17 1368.25C2040.1 1368.25 1952.97 1368.25 1864.92 1368.43C1860.01 1368.47 1856.02 1368.19 1852.03 1368.19C1722.04 1368.17 1592.04 1368.18 1462.04 1368.17C1458.04 1368.17 1454.04 1368.1 1449.14 1367.88Z" fill="black"/>
<path d="M635.534 1436.28C639.521 1436.13 643.507 1435.85 647.493 1435.84C709.744 1435.82 771.996 1435.77 834.247 1435.84C953.408 1435.96 1063.98 1505.43 1115.87 1612.67C1117.45 1615.95 1119.07 1619.21 1121.12 1623.39C1129.53 1623.39 1138.11 1623.29 1146.69 1623.43C1151.1 1623.51 1151.89 1620.1 1153.5 1617.26C1161.85 1602.52 1169.47 1587.28 1178.84 1573.2C1197.4 1545.3 1220.12 1521.09 1248.58 1501.52C1252.98 1503.77 1256.15 1505.58 1259.14 1507.65C1276.49 1519.69 1293.8 1531.8 1311.12 1543.89C1296.41 1555.82 1280.84 1566.86 1267.15 1579.88C1240.65 1605.07 1222.12 1635.75 1209.89 1670.21C1206.99 1678.36 1204.14 1686.52 1201.08 1695.22C1157.82 1695.22 1114.62 1695.22 1070.43 1695.22C1068.28 1689.09 1065.97 1682.58 1063.71 1676.06C1039.6 1606.48 994.12 1556.46 926.506 1527.06C896.84 1514.17 865.602 1508 833.197 1508C723.215 1508.01 613.233 1508 503.251 1508C498.92 1508 494.588 1507.92 489.768 1507.24C517.378 1488.64 546.884 1473.26 577.424 1459.94C596.59 1451.59 616.151 1444.13 635.534 1436.28Z" fill="black"/>
<path d="M235.264 1198.03C231.925 1196.73 228.116 1196.08 225.323 1194.04C205.785 1179.77 185.938 1165.84 169.105 1148.23C168.228 1147.32 166.885 1146.85 165.103 1146.07C164.299 1142.65 164.021 1139.33 164.02 1136.01C163.999 1048.02 164.007 960.028 164.689 870.66C170.867 858.296 176.741 847.48 181.801 836.295C210.604 772.638 227.029 705.734 231.498 636.155C233.777 600.677 232.937 565.081 228.443 529.6C223.537 490.875 215.123 453.051 202.899 416.039C198.738 403.443 194.19 390.974 189.819 378.447C198.475 370.999 206.918 363.282 215.865 356.2C221.507 351.733 227.902 348.215 234.78 345.069C235.629 418.985 235.659 492.102 235.667 565.219C235.667 566.871 235.424 568.524 234.863 570.855C234.301 589.069 234.146 606.603 234.097 624.138C234.093 625.364 234.876 626.591 235.451 628.754C235.634 631.021 235.684 632.353 235.684 633.684C235.688 818.812 235.69 1003.94 235.671 1189.07C235.671 1192.05 235.405 1195.04 235.264 1198.03Z" fill="black"/>
<path d="M1479.81 1436.21C1483.79 1436.08 1487.77 1435.84 1491.76 1435.84C1601.89 1435.8 1712.02 1435.77 1823.08 1435.56C1827.98 1435.53 1831.96 1435.81 1835.93 1435.81C1957.37 1435.83 2078.8 1435.82 2200.23 1435.82C2204.2 1435.82 2208.18 1435.82 2212.01 1435.82C2214.05 1443.23 2214.62 1491.43 2212.83 1507.96C2199.2 1507.96 2185.37 1507.96 2170.1 1507.33C2167.77 1506.25 2166.91 1505.72 2165.99 1505.33C2121.56 1486.18 2075.76 1471.49 2028.38 1461.42C1991.88 1453.67 1955.04 1448.27 1917.89 1446.61C1888.03 1445.28 1857.99 1446.64 1828.08 1447.96C1808.88 1448.81 1789.7 1451.23 1770.63 1453.88C1719.37 1461 1669.67 1474.45 1621.3 1492.75C1609.83 1497.09 1598.81 1502.63 1587.58 1507.61C1565.76 1507.7 1543.93 1507.79 1521.04 1507.04C1514.63 1497.77 1508.92 1489.55 1504.02 1480.88C1495.68 1466.14 1487.85 1451.12 1479.81 1436.21Z" fill="black"/>
<path d="M2127.91 821.049C2115.81 836.655 2104.28 851.674 2091.86 865.922C2081.42 877.906 2069.94 888.991 2058.01 899.643C2057.08 771.147 2057.05 643.484 2057.05 515.821C2057.05 513.842 2057.41 511.863 2057.59 509.884C2080.53 508.997 2103.22 511.886 2126.82 514.153C2127.85 516.138 2128.15 518.117 2128.15 520.097C2128.14 620.107 2128.11 720.117 2127.91 821.049Z" fill="black"/>
<path d="M1588.55 1507.77C1598.81 1502.63 1609.83 1497.09 1621.3 1492.75C1669.67 1474.45 1719.37 1461 1770.63 1453.88C1789.7 1451.23 1808.88 1448.81 1828.08 1447.96C1857.99 1446.64 1888.03 1445.28 1917.89 1446.61C1955.04 1448.27 1991.88 1453.67 2028.38 1461.42C2075.76 1471.49 2121.56 1486.18 2165.99 1505.33C2166.91 1505.72 2167.77 1506.25 2169.16 1507.12C2166.69 1507.7 2163.71 1508 2160.72 1508C1971.32 1508.01 1781.92 1508.01 1592.51 1508C1591.52 1508 1590.52 1507.95 1588.55 1507.77Z" fill="black"/>
<path d="M189.415 378.298C194.19 390.974 198.738 403.442 202.899 416.039C215.124 453.05 223.537 490.874 228.443 529.599C232.937 565.08 233.777 600.676 231.498 636.155C227.029 705.733 210.604 772.638 181.801 836.295C176.741 847.479 170.867 858.296 164.878 869.754C164.256 868.237 164.01 866.249 164.01 864.26C164.012 709.458 164.032 554.657 164.814 398.656C173.12 390.92 180.663 384.384 188.206 377.849C188.206 377.849 189.012 378.15 189.415 378.298Z" fill="black"/>
<path d="M634.651 1436.12C616.151 1444.13 596.59 1451.59 577.424 1459.94C546.884 1473.26 517.378 1488.64 488.872 1507.09C485.814 1507.71 483.164 1507.99 480.514 1507.99C422.954 1508 365.394 1507.98 306.505 1507.26C304.415 1505.92 303.737 1505.13 302.881 1504.67C269.185 1486.71 234.088 1472.16 197.268 1461.95C182.047 1457.73 166.681 1454.03 151.467 1449.2C151.943 1444.2 152.334 1440.08 152.724 1435.97C213.617 1435.93 274.51 1435.88 335.403 1435.83C381.655 1435.8 427.907 1435.77 475.082 1435.56C479.987 1435.52 483.969 1435.8 487.953 1435.81C536.558 1435.88 585.163 1435.92 634.651 1436.12Z" fill="#E7282C"/>
<path d="M1478.9 1436.04C1487.85 1451.12 1495.68 1466.14 1504.02 1480.88C1508.92 1489.55 1514.63 1497.77 1520.14 1506.86C1493.69 1507.68 1467.07 1508.03 1440.46 1507.96C1406.36 1507.86 1373.68 1514.53 1342.52 1528.22C1332.19 1532.75 1322.38 1538.48 1311.73 1543.78C1293.8 1531.8 1276.49 1519.69 1259.14 1507.65C1256.15 1505.58 1252.98 1503.77 1249.22 1501.37C1251.27 1498.52 1253.82 1495.88 1256.76 1493.81C1301.41 1462.3 1350.74 1442.7 1405.26 1437.88C1429.38 1435.75 1453.75 1436.45 1478.9 1436.04Z" fill="black"/>
<path d="M151.381 1450.09C166.681 1454.03 182.047 1457.73 197.268 1461.95C234.088 1472.16 269.185 1486.71 302.881 1504.67C303.737 1505.13 304.415 1505.92 305.583 1507.08C303.673 1507.74 301.357 1507.99 299.04 1507.99C230.925 1508.02 162.81 1508.01 94.6957 1508.02C92.0947 1508.02 89.4938 1508.02 85.6727 1508.02C85.6727 1486.78 85.6727 1466.31 86.6317 1444.73C94.4792 1444.12 101.388 1444.43 108.252 1445.16C122.641 1446.69 137.006 1448.43 151.381 1450.09Z" fill="#E7282C"/>
<path d="M1399.61 1625.09C1396.06 1628.44 1392.53 1630.93 1389.37 1633.82C1352.33 1667.78 1318.99 1705.07 1288.7 1745.98C1282.54 1680.12 1322.49 1622.43 1375.56 1598.59C1383.08 1605.25 1390.01 1611.86 1396.7 1618.69C1398.16 1620.18 1398.78 1622.48 1399.61 1625.09Z" fill="black"/>
<path d="M188.172 377.103C180.663 384.385 173.12 390.92 164.992 397.735C164.304 375.186 164.201 352.358 164.235 328.559C172.294 343.844 180.215 360.101 188.172 377.103Z" fill="black"/>
<path d="M151.467 1449.2C137.006 1448.43 122.641 1446.69 108.252 1445.16C101.388 1444.43 94.4792 1444.12 86.6687 1443.79C85.7467 1441.45 85.7467 1438.94 85.7467 1435.54C107.953 1435.54 129.345 1435.54 151.73 1435.76C152.334 1440.08 151.943 1444.2 151.467 1449.2Z" fill="#E7282C"/>
<path d="M1016.81 1412.26C1031.91 1415.19 1047.63 1418.06 1063.06 1422.07C1101.83 1432.14 1139.37 1445.72 1176.11 1463.37C1163.11 1476.49 1149.59 1489.1 1135.41 1502.33C1100.08 1466.28 1061.72 1435.44 1016.81 1412.26Z" fill="black"/>
<path d="M234.863 570.855C235.425 588.789 235.556 607.401 235.49 626.916C234.876 626.591 234.093 625.364 234.097 624.138C234.146 606.603 234.302 589.069 234.863 570.855Z" fill="#32A165"/>
<path d="M780.094 1213.2C776.108 1213.36 772.121 1213.67 768.135 1213.67C622.493 1213.69 476.852 1213.69 331.21 1213.69C327.603 1213.69 323.995 1213.69 319.629 1213.69C319.629 1103.82 319.629 994.709 319.629 884.956C385.592 884.956 451.064 884.956 517.755 884.956C517.755 927.977 517.755 970.749 517.755 1014.17C644.072 1015.88 769.217 1012.32 894.886 1016.47C894.886 940.265 894.886 864.125 894.886 786.537C798.593 786.537 702.747 786.537 606.901 786.537C511.317 786.537 415.732 786.537 319.458 786.537C319.212 782.276 318.859 779.005 318.859 775.734C318.833 618.428 318.837 461.122 318.848 303.816C318.848 302.485 318.978 301.155 319.942 298.733C342.494 290.331 363.906 282.162 385.87 275.936C411.306 268.725 437.231 263.38 463.803 261.842C479.969 260.907 496.102 258.209 512.24 258.284C531.387 258.372 550.586 260.012 569.649 262.047C588.016 264.008 606.366 266.674 624.5 270.185C669.085 278.817 711.484 294.207 751.674 315.125C772.231 325.825 791.584 338.838 811.436 350.881C812.496 351.524 813.133 352.866 813.967 353.884C809.979 354.026 805.992 354.291 802.005 354.293C711.717 354.318 621.43 354.314 531.143 354.315C527.202 354.315 523.26 354.315 518.582 354.315C518.582 432.179 518.582 509.275 518.582 587.843C522.338 587.843 526.197 587.843 530.055 587.843C678.313 587.843 826.571 587.842 974.829 587.847C978.493 587.847 982.157 587.906 986.812 588.897C994.536 621.624 1004.56 652.379 1016.36 682.586C1020.19 692.388 1024.05 702.177 1027.41 712.498C1027.94 727.853 1029.67 742.677 1029.82 757.515C1029.99 775.093 1031.15 792.714 1028.2 810.292C1026.51 820.378 1027.47 830.924 1025.62 840.967C1021.68 862.434 1016.98 883.777 1012.06 905.045C1004.59 937.249 992.45 967.854 978.055 997.477C965.706 1022.89 951.932 1047.67 934.556 1070.05C919.112 1089.94 902.941 1109.31 886.396 1128.3C879.021 1136.76 869.745 1143.54 861.677 1151.44C845.231 1167.53 826.856 1181.14 807.919 1194.06C798.621 1200.41 789.368 1206.82 780.094 1213.2Z" fill="#F04823"/>
<path d="M814.886 354.06C813.133 352.866 812.496 351.524 811.436 350.88C791.584 338.838 772.231 325.824 751.674 315.125C711.484 294.207 669.085 278.817 624.5 270.185C606.366 266.674 588.016 264.008 569.649 262.047C550.586 260.011 531.387 258.371 512.24 258.283C496.102 258.209 479.969 260.907 463.803 261.842C437.231 263.379 411.306 268.725 385.87 275.935C363.906 282.162 342.494 290.331 320.235 297.849C319.349 295.762 318.82 293.468 318.817 291.173C318.767 248.512 318.775 205.851 318.794 163.19C318.795 161.234 319.015 159.278 319.18 156.548C322.341 156.288 325.189 155.851 328.038 155.851C453.354 155.834 578.67 155.856 705.059 156.708C721.839 176.398 736.951 195.792 753.407 213.968C772.829 235.42 794.71 254.362 817.264 272.545C861.014 307.817 908.845 336.23 960.192 358.849C965.321 361.108 970.792 362.592 976.194 365.286C976.072 369.784 976.075 373.46 975.611 377.075C970.809 414.454 971.156 451.953 972.833 489.488C963.84 489.638 954.846 489.787 944.832 489.081C943.151 486.723 942.752 485.025 941.792 483.746C930.576 468.795 919.446 453.773 907.891 439.086C904.56 434.851 899.94 431.629 895.911 427.943C895.763 411.686 895.34 395.425 895.611 379.176C895.709 373.267 893.556 370.255 888.396 367.757C870.772 359.225 852.256 354.774 832.738 354.332C827.096 354.204 821.449 354.263 814.886 354.06Z" fill="#F04823"/>
<path d="M781.007 1213.4C789.368 1206.82 798.621 1200.41 807.919 1194.06C826.856 1181.14 845.231 1167.53 861.677 1151.44C869.745 1143.54 879.021 1136.76 886.396 1128.3C902.941 1109.3 919.112 1089.94 934.556 1070.05C951.932 1047.67 965.706 1022.89 978.055 997.477C992.45 967.854 1004.59 937.249 1012.06 905.045C1016.98 883.776 1021.68 862.433 1025.62 840.966C1027.47 830.924 1026.51 820.378 1028.2 810.292C1031.15 792.713 1029.99 775.093 1029.82 757.515C1029.67 742.676 1027.94 727.853 1027.76 713.106C1029.68 714.85 1030.88 716.441 1031.8 718.18C1041.72 736.888 1050.91 756.023 1061.69 774.225C1071.43 790.689 1082.88 806.14 1093.58 822.038C1093.72 825.692 1093.98 829.347 1093.98 833.002C1094 977.59 1094 1122.18 1094 1266.77C1094 1270.02 1094 1273.28 1094 1277.64C1090.33 1276.09 1087.6 1275.11 1085.03 1273.82C1025.86 1244.09 963.542 1224.65 897.63 1217.78C873.505 1215.26 849.156 1214.74 824.89 1213.8C810.585 1213.24 796.244 1213.63 781.007 1213.4Z" fill="#F04823"/>
<path d="M976.104 364.435C970.792 362.592 965.321 361.108 960.192 358.849C908.845 336.23 861.014 307.817 817.264 272.545C794.71 254.362 772.829 235.42 753.407 213.968C736.951 195.792 721.839 176.398 705.971 156.876C726.435 156.08 747.06 155.88 767.685 155.841C791.314 155.798 814.947 155.614 838.57 155.989C903.233 157.017 962.087 176.409 1015.56 213.919C1000.36 253.786 989.103 293.527 981.788 334.393C979.992 344.425 978.004 354.422 976.104 364.435Z" fill="#F04823"/>
<path d="M976.194 365.286C978.004 354.422 979.992 344.425 981.788 334.393C989.103 293.527 1000.36 253.786 1015.92 214.493C1036.18 226.542 1054.89 240.997 1070.81 258.462C1086.1 275.239 1093.81 295.786 1093.91 318.587C1094.17 372.799 1094 427.014 1093.98 481.227C1093.98 483.803 1093.73 486.379 1093.54 489.866C1053.48 489.866 1014.01 489.866 973.681 489.677C971.156 451.953 970.809 414.454 975.611 377.075C976.075 373.46 976.071 369.784 976.194 365.286Z" fill="#F04823"/>
<path d="M1093.73 821.105C1082.88 806.14 1071.43 790.689 1061.69 774.225C1050.91 756.023 1041.72 736.888 1031.8 718.18C1030.88 716.442 1029.68 714.85 1028.26 712.581C1024.05 702.177 1020.19 692.388 1016.36 682.586C1004.56 652.379 994.536 621.624 987.713 589.058C1022.52 588.261 1057.42 588.261 1093.02 588.261C1093.33 590.326 1093.96 592.498 1093.96 594.671C1093.97 669.838 1093.93 745.005 1093.73 821.105Z" fill="#F04823"/>
<path d="M895.732 428.872C899.94 431.629 904.559 434.852 907.891 439.087C919.446 453.773 930.576 468.795 941.792 483.746C942.752 485.025 943.151 486.723 943.911 488.904C929.261 489.695 914.511 489.808 898.613 489.403C897.077 488.452 896.598 488.18 896.028 488.068C895.87 468.646 895.711 449.223 895.732 428.872Z" fill="#F04823"/>
<path d="M896.044 488.584C896.598 488.18 897.077 488.452 897.682 489.242C897.286 489.433 896.673 489.266 896.044 488.584Z" fill="#F5799E" fill-opacity="0.58"/>
<path d="M1487.11 1213.51C1491.24 1213.67 1495.37 1213.97 1499.5 1213.97C1650.39 1214 1801.29 1214 1952.18 1214C1955.92 1214 1959.66 1214 1964.18 1214C1964.18 1104.06 1964.18 994.881 1964.18 885.06C1895.84 885.06 1828.01 885.06 1758.91 885.06C1758.91 928.108 1758.91 970.906 1758.91 1014.36C1628.04 1016.07 1498.38 1012.51 1368.18 1016.65C1368.18 940.404 1368.18 864.216 1368.18 786.581C1467.94 786.581 1567.25 786.581 1666.55 786.581C1765.58 786.581 1864.61 786.581 1964.36 786.581C1964.61 782.317 1964.98 779.044 1964.98 775.771C1965.01 618.368 1965 460.965 1964.99 303.561C1964.99 302.23 1964.86 300.899 1963.86 298.476C1940.49 290.068 1918.31 281.895 1895.55 275.664C1869.2 268.449 1842.34 263.101 1814.81 261.562C1798.06 260.627 1781.34 257.927 1764.62 258.002C1744.79 258.09 1724.9 259.731 1705.15 261.767C1686.12 263.729 1667.1 266.397 1648.32 269.91C1602.12 278.548 1558.19 293.947 1516.55 314.878C1495.26 325.584 1475.21 338.606 1454.64 350.655C1453.54 351.299 1452.88 352.643 1452.02 353.66C1456.15 353.803 1460.28 354.068 1464.41 354.07C1557.95 354.095 1651.5 354.091 1745.04 354.092C1749.12 354.092 1753.21 354.092 1758.05 354.092C1758.05 432.004 1758.05 509.147 1758.05 587.764C1754.16 587.764 1750.16 587.764 1746.17 587.764C1592.56 587.764 1438.96 587.763 1285.35 587.768C1281.56 587.768 1277.76 587.827 1272.94 588.818C1264.93 621.566 1254.55 652.34 1242.32 682.565C1238.35 692.374 1234.35 702.169 1230.88 712.496C1230.32 727.861 1228.53 742.693 1228.38 757.541C1228.2 775.129 1227 792.761 1230.06 810.35C1231.81 820.443 1230.81 830.995 1232.72 841.044C1236.81 862.524 1241.68 883.88 1246.78 905.162C1254.51 937.386 1267.1 968.01 1282.01 997.651C1294.8 1023.08 1309.07 1047.87 1327.08 1070.27C1343.08 1090.17 1359.83 1109.55 1376.97 1128.55C1384.61 1137.02 1394.23 1143.8 1402.59 1151.7C1419.62 1167.81 1438.66 1181.42 1458.28 1194.36C1467.91 1200.71 1477.5 1207.12 1487.11 1213.51Z" fill="#F04823"/>
<path d="M1451.1 353.757C1452.91 352.567 1453.57 351.227 1454.67 350.585C1475.23 338.57 1495.28 325.587 1516.57 314.912C1558.21 294.042 1602.13 278.687 1648.31 270.075C1667.1 266.572 1686.1 263.912 1705.13 261.955C1724.88 259.925 1744.76 258.289 1764.6 258.201C1781.32 258.127 1798.03 260.818 1814.77 261.751C1842.3 263.285 1869.15 268.618 1895.5 275.812C1918.25 282.024 1940.44 290.174 1963.49 297.675C1964.41 295.594 1964.96 293.305 1964.96 291.015C1965.01 248.452 1965 205.889 1964.98 163.326C1964.98 161.374 1964.76 159.422 1964.59 156.698C1961.31 156.44 1958.36 156.003 1955.41 156.003C1825.6 155.986 1695.79 156.008 1564.86 156.859C1547.48 176.503 1531.83 195.853 1514.78 213.987C1494.66 235.39 1472 254.288 1448.63 272.429C1403.31 307.621 1353.77 335.969 1300.58 358.535C1295.26 360.789 1289.6 362.27 1284 364.957C1284.13 369.445 1284.12 373.113 1284.6 376.72C1289.58 414.013 1289.22 451.426 1287.48 488.875C1296.8 489.024 1306.11 489.174 1316.49 488.469C1318.23 486.117 1318.64 484.422 1319.64 483.146C1331.25 468.23 1342.78 453.242 1354.75 438.589C1358.2 434.364 1362.99 431.149 1367.16 427.471C1367.32 411.252 1367.76 395.028 1367.47 378.816C1367.37 372.921 1369.6 369.916 1374.95 367.424C1393.2 358.911 1412.38 354.47 1432.6 354.029C1438.45 353.902 1444.3 353.96 1451.1 353.757Z" fill="#F04823"/>
<path d="M1486 1213.71C1477.34 1207.12 1467.77 1200.71 1458.14 1194.35C1438.54 1181.42 1419.52 1167.8 1402.49 1151.69C1394.14 1143.79 1384.54 1137.01 1376.9 1128.53C1359.78 1109.53 1343.04 1090.15 1327.05 1070.24C1309.06 1047.84 1294.81 1023.04 1282.02 997.606C1267.12 967.959 1254.55 937.328 1246.83 905.098C1241.72 883.811 1236.86 862.451 1232.78 840.966C1230.87 830.915 1231.86 820.36 1230.11 810.266C1227.06 792.673 1228.26 775.037 1228.44 757.445C1228.59 742.594 1230.38 727.759 1230.57 713C1228.58 714.745 1227.34 716.338 1226.39 718.077C1216.12 736.801 1206.6 755.952 1195.45 774.169C1185.36 790.647 1173.51 806.111 1162.43 822.022C1162.29 825.679 1162.02 829.337 1162.02 832.995C1162 977.703 1162 1122.41 1162 1267.12C1162 1270.38 1162 1273.64 1162 1278C1165.8 1276.45 1168.63 1275.47 1171.28 1274.18C1232.53 1244.43 1297.05 1224.97 1365.28 1218.09C1390.25 1215.57 1415.45 1215.05 1440.57 1214.11C1455.38 1213.55 1470.23 1213.94 1486 1213.71Z" fill="#F04823"/>
<path d="M1283.91 365C1289.42 363.154 1295.09 361.668 1300.41 359.405C1353.65 336.751 1403.24 308.294 1448.6 272.968C1471.99 254.757 1494.68 235.786 1514.81 214.301C1531.88 196.096 1547.55 176.672 1564 157.12C1542.78 156.323 1521.4 156.122 1500.01 156.084C1475.51 156.04 1451.01 155.856 1426.51 156.232C1359.47 157.261 1298.44 176.683 1243 214.251C1258.75 254.18 1270.43 293.982 1278.01 334.912C1279.88 344.959 1281.94 354.971 1283.91 365Z" fill="#F04823"/>
<path d="M1284.5 365.136C1282.62 354.248 1280.55 344.228 1278.69 334.173C1271.08 293.214 1259.38 253.383 1243.21 214C1222.15 226.077 1202.71 240.564 1186.16 258.069C1170.26 274.885 1162.25 295.479 1162.14 318.331C1161.88 372.667 1162.05 427.005 1162.08 481.342C1162.08 483.923 1162.34 486.505 1162.53 490C1204.17 490 1245.2 490 1287.11 489.811C1289.74 452.001 1290.1 414.416 1285.11 376.952C1284.62 373.329 1284.63 369.644 1284.5 365.136Z" fill="#F04823"/>
<path d="M1162.23 822C1173.47 806.961 1185.33 791.433 1195.41 774.887C1206.57 756.595 1216.09 737.365 1226.35 718.564C1227.31 716.817 1228.55 715.217 1230.02 712.938C1234.37 702.482 1238.37 692.644 1242.34 682.793C1254.56 652.436 1264.94 621.529 1272 588.802C1235.96 588 1199.83 588 1162.98 588C1162.65 590.075 1162 592.259 1162 594.442C1161.99 669.982 1162.04 745.522 1162.23 822Z" fill="#F04823"/>
<path d="M1368 428C1363.54 430.814 1358.65 434.102 1355.13 438.423C1342.9 453.41 1331.11 468.738 1319.24 483.994C1318.23 485.299 1317.8 487.032 1317 489.258C1332.51 490.065 1348.12 490.18 1364.95 489.766C1366.57 488.796 1367.08 488.518 1367.68 488.404C1367.85 468.586 1368.02 448.767 1368 428Z" fill="#F04823"/>
<path d="M1367 488.202C1366.32 487.762 1365.74 488.058 1365 488.92C1365.48 489.128 1366.23 488.946 1367 488.202Z" fill="#F5799E" fill-opacity="0.58"/>
</svg>
